SplineFontDB: 3.0
FontName: NovaRound-Book
FullName: Nova Round Book
FamilyName: Nova Round
Weight: Book
Copyright: Copyright (c) 2020-2024 by Wojciech Kalinowski "wmk69" with Reserved Font Name "NovaRound-Book".\nThis Font Software is licensed under the SIL Open Font License, Version 1.1.
Version: 3.1.0; 2021-05-23
ItalicAngle: 0
UnderlinePosition: -80
UnderlineWidth: 200
Ascent: 1638
Descent: 410
InvalidEm: 0
LayerCount: 2
Layer: 0 1 "Warstwa t+AUIA-a" 1
Layer: 1 1 "Plan pierwszy" 0
XUID: [1021 783 23647091 8360855]
StyleMap: 0x0040
FSType: 0
OS2Version: 3
OS2_WeightWidthSlopeOnly: 0
OS2_UseTypoMetrics: 1
CreationTime: 1260698820
ModificationTime: 1621761934
PfmFamily: 33
TTFWeight: 400
TTFWidth: 5
LineGap: 200
VLineGap: 0
Panose: 2 12 5 4 2 5 3 6 2 4
OS2TypoAscent: 2000
OS2TypoAOffset: 0
OS2TypoDescent: -500
OS2TypoDOffset: 0
OS2TypoLinegap: 200
OS2WinAscent: 2000
OS2WinAOffset: 0
OS2WinDescent: 500
OS2WinDOffset: 0
HheadAscent: 2000
HheadAOffset: 0
HheadDescent: -500
HheadDOffset: 0
OS2SubXSize: 1434
OS2SubYSize: 1331
OS2SubXOff: 0
OS2SubYOff: 287
OS2SupXSize: 1434
OS2SupYSize: 1331
OS2SupXOff: 0
OS2SupYOff: 977
OS2StrikeYSize: 102
OS2StrikeYPos: 512
OS2CapHeight: 1530
OS2XHeight: 1120
OS2Vendor: '    '
OS2CodePages: 20000093.00000000
OS2UnicodeRanges: 8000002f.4000204b.00000000.00000000
Lookup: 258 0 0 "'kern' Horizontal Kerning lookup 0" { "'kern' Horizontal Kerning lookup 0-1 subtable" [307,0,4] } ['kern' ('DFLT' <'dflt' > 'grek' <'dflt' > 'latn' <'dflt' > ) ]
MarkAttachClasses: 1
DEI: 91125
KernClass2: 65 55 "'kern' Horizontal Kerning lookup 0-1 subtable"
 134 A M N Agrave Aacute Acircumflex Atilde Adieresis Aring Ntilde Amacron Abreve Aogonek Nacute Ncommaaccent Ncaron Eng Aringacute uni1E40
 28 B germandbls uni1E02 uni1E9E
 47 C Ccedilla Cacute Ccircumflex Cdotaccent Ccaron
 122 D O Q Eth Ograve Oacute Ocircumflex Otilde Odieresis Oslash Dcaron Dcroat Omacron Obreve Ohungarumlaut Oslashacute uni1E0A

StartChar: .notdef
Encoding: 65536 -1 0
Width: 994
Flags: W
HStem: 0 68<260 734> 1442 68<260 734>
VStem: 150 110<68 1442> 734 110<68 1442>
LayerCount: 2
Fore
SplineSet
150 0 m 1,0,-1
 150 1510 l 1,1,-1
 844 1510 l 1,2,-1
 844 0 l 1,3,-1
 150 0 l 1,0,-1
260 68 m 1,4,-1
 734 68 l 1,5,-1
 734 1442 l 1,6,-1
 260 1442 l 1,7,-1
 260 68 l 1,4,-1
EndSplineSet
Validated: 1
EndChar

StartChar: exclam
Encoding: 33 33 4
Width: 600
GlyphClass: 2
Flags: W
HStem: -20 245<216.097 383.903> 1510 20G<347.778 400>
VStem: 180 240<17.1285 187.871> 200 200<490 1440>
LayerCount: 2
Fore
SplineSet
300 -20 m 128,-1,1
 250 -20 250 -20 215 16 c 128,-1,2
 180 52 180 52 180 102.5 c 128,-1,3
 180 153 180 153 215 189 c 128,-1,4
 250 225 250 225 300 225 c 128,-1,5
 350 225 350 225 385 189 c 128,-1,6
 420 153 420 153 420 102.5 c 128,-1,7
 420 52 420 52 385 16 c 128,-1,0
 350 -20 350 -20 300 -20 c 128,-1,1
390 1530 m 1,8,-1
 400 1530 l 1,9,-1
 400 490 l 1,10,-1
 210 400 l 1,11,-1
 200 400 l 1,12,-1
 200 1440 l 1,13,-1
 390 1530 l 1,8,-1
EndSplineSet
Validated: 1
EndChar

StartChar: quotedbl
Encoding: 34 34 5
Width: 453
GlyphClass: 2
Flags: W
HStem: 1140 440
VStem: 50 120<1192 1528> 283 120<1192 1528>
LayerCount: 2
Fore
SplineSet
393 1580 m 1,0,-1
 403 1580 l 1,1,-1
 403 1192 l 1,2,-1
 293 1140 l 1,3,-1
 283 1140 l 1,4,-1
 283 1528 l 1,5,-1
 393 1580 l 1,0,-1
160 1580 m 1,6,-1
 170 1580 l 1,7,-1
 170 1192 l 1,8,-1
 60 1140 l 1,9,-1
 50 1140 l 1,10,-1
 50 1528 l 1,11,-1
 160 1580 l 1,6,-1
EndSplineSet
Validated: 1
EndChar

StartChar: numbersign
Encoding: 35 35 6
Width: 1368
GlyphClass: 2
Flags: W
HStem: 520 120<202 448 568 800 920 1166> 872 120<202 448 568 800 920 1166>
VStem: 448 120<274 520 640 872 992 1238> 800 120<274 520 640 872 992 1238>
LayerCount: 2
Fore
SplineSet
558 1290 m 1,0,-1
 568 1290 l 1,1,-1
 568 992 l 1,2,-1
 800 992 l 1,3,-1
 800 1238 l 1,4,-1
 910 1290 l 1,5,-1
 920 1290 l 1,6,-1
 920 992 l 1,7,-1
 1218 992 l 1,8,-1
 1218 982 l 1,9,-1
 1166 872 l 1,10,-1
 920 872 l 1,11,-1
 920 640 l 1,12,-1
 1218 640 l 1,13,-1
 1218 630 l 1,14,-1
 1166 520 l 1,15,-1
 920 520 l 1,16,-1
 920 274 l 1,17,-1
 810 222 l 1,18,-1
 800 222 l 1,19,-1
 800 520 l 1,20,-1
 568 520 l 1,21,-1
 568 274 l 1,22,-1
 458 222 l 1,23,-1
 448 222 l 1,24,-1
 448 520 l 1,25,-1
 150 520 l 1,26,-1
 150 530 l 1,27,-1
 202 640 l 1,28,-1
 448 640 l 1,29,-1
 448 872 l 1,30,-1
 150 872 l 1,31,-1
 150 882 l 1,32,-1
 202 992 l 1,33,-1
 448 992 l 1,34,-1
 448 1238 l 1,35,-1
 558 1290 l 1,0,-1
800 872 m 1,36,-1
 568 872 l 1,37,-1
 568 640 l 1,38,-1
 800 640 l 1,39,-1
 800 872 l 1,36,-1
EndSplineSet
Validated: 1
EndChar

StartChar: dollar
Encoding: 36 36 7
Width: 1140
GlyphClass: 2
Flags: W
HStem: -19 181<383.812 516> 1346 182<418.312 516>
VStem: 60 189<291.313 369.808> 153 195<1024.99 1277.13> 516 100<-78 -14.9873 166 734 957 1345 1522.03 1588> 855 205<303.944 622.472>
LayerCount: 2
Fore
SplineSet
526 -120 m 1,0,-1
 516 -120 l 1,1,-1
 516 -19 l 1,2,3
 330 -7 330 -7 196 121 c 0,4,5
 91 221 91 221 60 363 c 1,6,-1
 239 448 l 1,7,-1
 249 448 l 1,8,9
 249 319 249 319 337 240 c 0,10,11
 414 172 414 172 516 162 c 1,12,-1
 516 750 l 1,13,14
 364 777 364 777 268 861 c 0,15,16
 153 961 153 961 153 1120 c 0,17,18
 153 1312 153 1312 278 1424 c 0,19,20
 379 1515 379 1515 516 1528 c 1,21,-1
 516 1588 l 1,22,-1
 606 1630 l 1,23,-1
 616 1630 l 1,24,-1
 616 1527 l 1,25,26
 749 1512 749 1512 849 1417 c 0,27,28
 934 1337 934 1337 957 1237 c 1,29,-1
 781 1153 l 1,30,-1
 773 1153 l 1,31,32
 772 1240 772 1240 712 1295 c 0,33,34
 670 1333 670 1333 616 1345 c 1,35,-1
 616 940 l 1,36,37
 822 912 822 912 936 791 c 0,38,39
 1060 659 1060 659 1060 477 c 0,40,41
 1059 264 1059 264 912 122 c 0,42,43
 787 1 787 1 616 -17 c 1,44,-1
 616 -78 l 1,45,-1
 526 -120 l 1,0,-1
516 1346 m 1,46,47
 453 1336 453 1336 412 1298 c 0,48,49
 348 1239 348 1239 348 1145 c 0,50,51
 348 1002 348 1002 516 957 c 1,52,-1
 516 1346 l 1,46,47
616 166 m 1,53,54
 707 183 707 183 771 251 c 0,55,56
 855 340 855 340 855 462 c 128,-1,57
 855 584 855 584 788 650 c 0,58,59
 726 712 726 712 616 734 c 1,60,-1
 616 166 l 1,53,54
EndSplineSet
Validated: 1
EndChar

StartChar: percent
Encoding: 37 37 8
Width: 1547
GlyphClass: 2
Flags: W
HStem: -20 125<984.737 1199.26> 471 125<984.737 1199.26> 914 125<347.737 562.263> 1405 125<347.737 562.263>
VStem: 150 140<1097.74 1346.26> 620 140<1097.74 1346.26> 787 140<163.736 412.264> 1257 140<163.736 412.264>
DStem2: 358 42 495 -20 0.423185 0.906043<1.80173 1641.88>
LayerCount: 2
Fore
SplineSet
485 -20 m 1,0,-1
 358 42 l 1,1,-1
 1052 1530 l 1,2,-1
 1062 1530 l 1,3,-1
 1190 1468 l 1,4,-1
 495 -20 l 1,5,-1
 485 -20 l 1,0,-1
1092 105 m 128,-1,7
 1160 105 1160 105 1208.5 159 c 128,-1,8
 1257 213 1257 213 1257 288 c 152,-1,9
 1257 363 1257 363 1208.5 417 c 128,-1,10
 1160 471 1160 471 1092 471 c 128,-1,11
 1024 471 1024 471 975.5 417 c 128,-1,12
 927 363 927 363 927 288 c 152,-1,13
 927 213 927 213 975.5 159 c 128,-1,6
 1024 105 1024 105 1092 105 c 128,-1,7
1092 -20 m 128,-1,15
 965 -20 965 -20 876 70.5 c 128,-1,16
 787 161 787 161 787 288 c 152,-1,17
 787 415 787 415 876 505.5 c 128,-1,18
 965 596 965 596 1092 596 c 128,-1,19
 1219 596 1219 596 1308 505.5 c 128,-1,20
 1397 415 1397 415 1397 288 c 152,-1,21
 1397 161 1397 161 1308 70.5 c 128,-1,14
 1219 -20 1219 -20 1092 -20 c 128,-1,15
455 1405 m 128,-1,23
 387 1405 387 1405 338.5 1351 c 128,-1,24
 290 1297 290 1297 290 1222 c 152,-1,25
 290 1147 290 1147 338.5 1093 c 128,-1,26
 387 1039 387 1039 455 1039 c 128,-1,27
 523 1039 523 1039 571.5 1093 c 128,-1,28
 620 1147 620 1147 620 1222 c 152,-1,29
 620 1297 620 1297 571.5 1351 c 128,-1,22
 523 1405 523 1405 455 1405 c 128,-1,23
455 1530 m 128,-1,31
 582 1530 582 1530 671 1439.5 c 128,-1,32
 760 1349 760 1349 760 1222 c 152,-1,33
 760 1095 760 1095 671 1004.5 c 128,-1,34
 582 914 582 914 455 914 c 128,-1,35
 328 914 328 914 239 1004.5 c 128,-1,36
 150 1095 150 1095 150 1222 c 152,-1,37
 150 1349 150 1349 239 1439.5 c 128,-1,30
 328 1530 328 1530 455 1530 c 128,-1,31
EndSplineSet
Validated: 1
EndChar

StartChar: ampersand
Encoding: 38 38 9
Width: 1624
GlyphClass: 2
Flags: W
HStem: -20 173<495.795 881.348> 755 164<516.544 655> 1370 160<516.837 791.403>
VStem: 150 202<293.504 615.512> 241 186<1007.33 1279.63> 1247 205<610.431 827>
DStem2: 774 919 655 755 0.632155 -0.774842<21.3045 582.087 823.409 1055.66>
LayerCount: 2
Fore
SplineSet
658 -20 m 0,0,1
 448 -20 448 -20 299 115 c 128,-1,2
 150 250 150 250 150 453 c 0,3,4
 150 675 150 675 297 793 c 0,5,6
 343 830 343 830 395 852 c 1,7,8
 241 954 241 954 241 1139 c 0,9,10
 241 1305 241 1305 361 1417.5 c 128,-1,11
 481 1530 481 1530 653 1530 c 0,12,13
 827 1530 827 1530 948 1418 c 0,14,15
 1036 1336 1036 1336 1060 1225 c 1,16,-1
 892 1145 l 1,17,-1
 882 1145 l 1,18,19
 882 1242 882 1242 816 1306 c 128,-1,20
 750 1370 750 1370 654 1370 c 0,21,22
 559 1370 559 1370 493 1306 c 128,-1,23
 427 1242 427 1242 427 1144 c 128,-1,24
 427 1046 427 1046 493 982.5 c 128,-1,25
 559 919 559 919 654 919 c 2,26,-1
 774 919 l 1,27,-1
 1142 468 l 1,28,29
 1232 639 1232 639 1247 827 c 1,30,-1
 1442 919 l 1,31,-1
 1452 919 l 1,32,33
 1452 569 1452 569 1272 308 c 1,34,-1
 1474 61 l 1,35,-1
 1303 -20 l 1,36,-1
 1293 -20 l 1,37,-1
 1145 159 l 1,38,39
 949 -20 949 -20 658 -20 c 0,0,1
1029 300 m 1,40,-1
 655 755 l 1,41,42
 529 755 529 755 440.5 669.5 c 128,-1,43
 352 584 352 584 352 454 c 128,-1,44
 352 324 352 324 441 238.5 c 128,-1,45
 530 153 530 153 658 153 c 0,46,47
 890 153 890 153 1029 300 c 1,40,-1
EndSplineSet
Validated: 1
EndChar

StartChar: quotesingle
Encoding: 39 39 10
Width: 220
GlyphClass: 2
Flags: W
HStem: 1140 440
VStem: 50 120<1192 1528>
LayerCount: 2
Fore
SplineSet
160 1580 m 1,0,-1
 170 1580 l 1,1,-1
 170 1192 l 1,2,-1
 60 1140 l 1,3,-1
 50 1140 l 1,4,-1
 50 1528 l 1,5,-1
 160 1580 l 1,0,-1
EndSplineSet
Validated: 1
EndChar

StartChar: parenleft
Encoding: 40 40 11
Width: 756
GlyphClass: 2
Flags: W
HStem: -240 180<539.847 706> 1570 180<540.353 706>
VStem: 200 200<76.4529 1433.55>
LayerCount: 2
Fore
SplineSet
706 -240 m 1,0,1
 496 -240 496 -240 348 -99 c 128,-1,2
 200 42 200 42 200 254 c 2,3,-1
 200 1256 l 2,4,5
 200 1468 200 1468 348 1609 c 128,-1,6
 496 1750 496 1750 706 1750 c 1,7,-1
 706 1570 l 1,8,9
 580 1570 580 1570 490 1489.5 c 128,-1,10
 400 1409 400 1409 400 1282 c 18,11,-1
 400 228 l 10,12,13
 400 101 400 101 490 20 c 0,14,15
 580 -60 580 -60 706 -60 c 1,16,-1
 706 -240 l 1,0,1
EndSplineSet
Validated: 1
EndChar

StartChar: parenright
Encoding: 41 41 12
Width: 756
GlyphClass: 2
Flags: W
HStem: -240 180<50 216.153> 1570 180<50 215.647>
VStem: 356 200<76.4529 1433.55>
LayerCount: 2
Fore
SplineSet
50 -240 m 1,0,1
 50 -60 l 1,2,3
 176 -60 176 -60 266 20 c 0,4,5
 356 101 356 101 356 228 c 18,6,-1
 356 1282 l 10,7,8
 356 1409 356 1409 266 1489.5 c 128,-1,9
 176 1570 176 1570 50 1570 c 1,10,-1
 50 1750 l 1,11,12
 260 1750 260 1750 408 1609 c 128,-1,13
 556 1468 556 1468 556 1256 c 2,14,-1
 556 254 l 2,15,16
 556 42 556 42 408 -99 c 128,-1,17
 260 -240 260 -240 50 -240 c 1,0,1
EndSplineSet
Validated: 1
EndChar

StartChar: asterisk
Encoding: 42 42 13
Width: 748
GlyphClass: 2
Flags: W
HStem: 900 680
VStem: 314 120<952 1136 1344 1528>
DStem2: 155 1436 50 1358 0.865681 -0.500596<0 183.698 391.704 575.402> 50 1122 155 1044 0.865681 0.500596<51.85 235.548 443.554 627.252>
LayerCount: 2
Fore
SplineSet
424 1580 m 1,0,-1
 434 1580 l 1,1,-1
 434 1344 l 1,2,-1
 593 1436 l 1,3,-1
 693 1367 l 1,4,-1
 698 1358 l 1,5,-1
 494 1240 l 1,6,-1
 698 1122 l 1,7,-1
 693 1113 l 1,8,-1
 593 1044 l 1,9,-1
 434 1136 l 1,10,-1
 434 952 l 1,11,-1
 324 900 l 1,12,-1
 314 900 l 1,13,-1
 314 1136 l 1,14,-1
 155 1044 l 1,15,-1
 55 1113 l 1,16,-1
 50 1122 l 1,17,-1
 254 1240 l 1,18,-1
 50 1358 l 1,19,-1
 55 1367 l 1,20,-1
 155 1436 l 1,21,-1
 314 1344 l 1,22,-1
 314 1528 l 1,23,-1
 424 1580 l 1,0,-1
EndSplineSet
Validated: 1
EndChar

StartChar: plus
Encoding: 43 43 14
Width: 1200
GlyphClass: 2
Flags: W
HStem: 680 150<216 525 675 984>
VStem: 525 150<371 680 830 1139>
LayerCount: 2
Fore
SplineSet
525 1139 m 1,0,-1
 665 1205 l 1,1,-1
 675 1205 l 1,2,-1
 675 830 l 1,3,-1
 1050 830 l 1,4,-1
 1050 820 l 1,5,-1
 984 680 l 1,6,-1
 675 680 l 1,7,-1
 675 371 l 1,8,-1
 535 305 l 1,9,-1
 525 305 l 1,10,-1
 525 680 l 1,11,-1
 150 680 l 1,12,-1
 150 690 l 1,13,-1
 216 830 l 1,14,-1
 525 830 l 1,15,-1
 525 1139 l 1,0,-1
EndSplineSet
Validated: 1
EndChar

StartChar: comma
Encoding: 44 44 15
Width: 389
GlyphClass: 2
Flags: W
HStem: -276 554
VStem: 184 155<-122.682 121.561>
LayerCount: 2
Fore
SplineSet
220 278 m 1,0,-1
 230 278 l 1,1,2
 339 171 339 171 339 34 c 0,3,4
 339 -163 339 -163 114 -276 c 1,5,-1
 107 -269 l 1,6,7
 184 -139 184 -139 184 -10 c 128,-1,8
 184 119 184 119 50 198 c 1,9,-1
 220 278 l 1,0,-1
EndSplineSet
Validated: 1
EndChar

StartChar: hyphen
Encoding: 45 45 16
Width: 1200
GlyphClass: 2
Flags: W
HStem: 680 150<216 984>
LayerCount: 2
Fore
SplineSet
216 830 m 5,0,-1
 1050 830 l 5,1,-1
 1050 820 l 5,2,-1
 984 680 l 5,3,-1
 150 680 l 5,4,-1
 150 690 l 5,5,-1
 216 830 l 5,0,-1
EndSplineSet
Validated: 1
EndChar

StartChar: period
Encoding: 46 46 17
Width: 340
GlyphClass: 2
Flags: W
HStem: -20 245<86.0974 253.903>
VStem: 50 240<17.1285 187.871>
LayerCount: 2
Fore
SplineSet
170 -20 m 128,-1,1
 120 -20 120 -20 85 16 c 128,-1,2
 50 52 50 52 50 102.5 c 128,-1,3
 50 153 50 153 85 189 c 128,-1,4
 120 225 120 225 170 225 c 128,-1,5
 220 225 220 225 255 189 c 128,-1,6
 290 153 290 153 290 102.5 c 128,-1,7
 290 52 290 52 255 16 c 128,-1,0
 220 -20 220 -20 170 -20 c 128,-1,1
EndSplineSet
Validated: 1
EndChar

StartChar: slash
Encoding: 47 47 18
Width: 1019
GlyphClass: 2
Flags: W
DStem2: 10 -138 147 -200 0.422724 0.906258<1.72523 2038.73>
LayerCount: 2
Fore
SplineSet
137 -200 m 1,0,-1
 10 -138 l 1,1,-1
 871 1710 l 1,2,-1
 881 1710 l 1,3,-1
 1009 1648 l 1,4,-1
 147 -200 l 1,5,-1
 137 -200 l 1,0,-1
EndSplineSet
Validated: 1
EndChar

StartChar: zero
Encoding: 48 48 19
Width: 1330
GlyphClass: 2
Flags: W
HStem: -20 180<499.38 831.44> 1350 180<499.38 831.44>
VStem: 160 200<296.453 1213.55> 970 200<292.395 1217.6>
LayerCount: 2
Fore
SplineSet
665.5 160 m 128,-1,1
 792 160 792 160 881 240.5 c 128,-1,2
 970 321 970 321 970 448 c 18,3,-1
 970 1062 l 10,4,5
 970 1189 970 1189 881 1269.5 c 128,-1,6
 792 1350 792 1350 665.5 1350 c 128,-1,7
 539 1350 539 1350 449.5 1269.5 c 128,-1,8
 360 1189 360 1189 360 1062 c 18,9,-1
 360 448 l 10,10,11
 360 321 360 321 449.5 240.5 c 128,-1,0
 539 160 539 160 665.5 160 c 128,-1,1
665.5 -20 m 128,-1,13
 455 -20 455 -20 307.5 121 c 128,-1,14
 160 262 160 262 160 474 c 2,15,-1
 160 1036 l 2,16,17
 160 1248 160 1248 307.5 1389 c 128,-1,18
 455 1530 455 1530 665.5 1530 c 128,-1,19
 876 1530 876 1530 1023 1389 c 128,-1,20
 1170 1248 1170 1248 1170 1036 c 2,21,-1
 1170 474 l 2,22,23
 1170 262 1170 262 1023 121 c 128,-1,12
 876 -20 876 -20 665.5 -20 c 128,-1,13
EndSplineSet
Validated: 1
EndChar

StartChar: one
Encoding: 49 49 20
Width: 714
GlyphClass: 2
Flags: W
HStem: -20 21G<264 316.222> 1510 20G<412.068 464>
VStem: 264 200<70 1252>
LayerCount: 2
Fore
SplineSet
264 -20 m 1,0,-1
 264 1252 l 1,1,-1
 20 1138 l 1,2,-1
 20 1323 l 1,3,-1
 454 1530 l 1,4,-1
 464 1530 l 1,5,-1
 464 70 l 1,6,-1
 274 -20 l 1,7,-1
 264 -20 l 1,0,-1
EndSplineSet
Validated: 1
EndChar

StartChar: two
Encoding: 50 50 21
Width: 1273
GlyphClass: 2
Flags: W
HStem: 0 180<441 1063> 1350 180<467.319 802.25>
VStem: 130 200<895.151 1215.18> 934 205<866.017 1215.69>
DStem2: 200 180 441 180 0.745444 0.666569<179.652 948.384>
LayerCount: 2
Fore
SplineSet
120 0 m 1,0,-1
 120 10 l 1,1,-1
 200 180 l 1,2,-1
 682 611 l 2,3,4
 934 836 934 836 934 1039 c 0,5,6
 934 1167 934 1167 868 1247 c 0,7,8
 783 1350 783 1350 635 1350 c 128,-1,9
 487 1350 487 1350 400 1249 c 0,10,11
 330 1171 330 1171 330 1047 c 0,12,13
 330 980 330 980 369 914 c 1,14,-1
 201 833 l 1,15,-1
 191 833 l 1,16,17
 130 941 130 941 130 1070 c 0,18,19
 130 1242 130 1242 265 1385 c 0,20,21
 402 1530 402 1530 635 1530 c 128,-1,22
 868 1530 868 1530 1005 1385 c 0,23,24
 1139 1243 1139 1243 1139 1037 c 0,25,26
 1139 759 1139 759 865 532 c 2,27,-1
 441 180 l 1,28,-1
 1143 180 l 1,29,-1
 1143 170 l 1,30,-1
 1063 0 l 1,31,-1
 120 0 l 1,0,-1
EndSplineSet
Validated: 1
EndChar

StartChar: three
Encoding: 51 51 22
Width: 1223
GlyphClass: 2
Flags: W
HStem: -20 180<435.267 766.025> 1330 180<293 707>
VStem: 100 194<304.67 399.778> 903 200<300.804 634.808>
LayerCount: 2
Fore
SplineSet
599 -20 m 128,-1,1
 366 -20 366 -20 229 125 c 0,2,3
 123 238 123 238 100 393 c 1,4,-1
 284 480 l 1,5,-1
 294 480 l 1,6,7
 294 348 294 348 366 263 c 0,8,9
 453 160 453 160 599 160 c 0,10,11
 746 160 746 160 832 263 c 0,12,13
 903 348 903 348 903 470 c 0,14,15
 903 579 903 579 844 657 c 0,16,17
 766 761 766 761 599 761 c 0,18,19
 527 761 527 761 460 741 c 1,20,-1
 420 791 l 1,21,-1
 707 1330 l 1,22,-1
 213 1330 l 1,23,-1
 213 1340 l 1,24,-1
 293 1510 l 1,25,-1
 1016 1510 l 1,26,-1
 684 929 l 1,27,28
 839 918 839 918 967 805 c 0,29,30
 1103 685 1103 685 1103 472 c 0,31,32
 1103 268 1103 268 969 125 c 0,33,0
 832 -20 832 -20 599 -20 c 128,-1,1
EndSplineSet
Validated: 1
EndChar

StartChar: four
Encoding: 52 52 23
Width: 1232
GlyphClass: 2
Flags: W
HStem: -20 21G<782 834.222> 340 180<326 782 982 1052> 1510 20G<929.778 982>
VStem: 782 200<70 340 520 1166>
DStem2: 10 350 326 520 0.577976 0.816054<321.37 1112.1>
LayerCount: 2
Fore
SplineSet
326 520 m 1,0,-1
 782 520 l 1,1,-1
 782 1166 l 1,2,-1
 326 520 l 1,0,-1
782 -20 m 1,3,-1
 782 340 l 1,4,-1
 10 340 l 1,5,-1
 10 350 l 1,6,-1
 782 1440 l 1,7,-1
 972 1530 l 1,8,-1
 982 1530 l 1,9,-1
 982 520 l 1,10,-1
 1132 520 l 1,11,-1
 1132 510 l 1,12,-1
 1052 340 l 1,13,-1
 982 340 l 1,14,-1
 982 70 l 1,15,-1
 792 -20 l 1,16,-1
 782 -20 l 1,3,-1
EndSplineSet
Validated: 1
EndChar

StartChar: five
Encoding: 53 53 24
Width: 1223
GlyphClass: 2
Flags: W
HStem: -20 180<435.267 762.056> 771 180<411.307 771.005> 1330 180<486 946>
VStem: 100 194<304.67 399.778> 903 200<300.12 641.343>
DStem2: 166 808 374 889 0.231433 0.972851<126.939 581.887>
LayerCount: 2
Fore
SplineSet
599 -20 m 128,-1,1
 366 -20 366 -20 229 125 c 0,2,3
 122 238 122 238 100 393 c 1,4,-1
 284 480 l 1,5,-1
 294 480 l 1,6,7
 294 348 294 348 366 263 c 0,8,9
 453 160 453 160 599 160 c 0,10,11
 742 160 742 160 832 263 c 0,12,13
 903 344 903 344 903 470 c 0,14,15
 903 597 903 597 834 675 c 0,16,17
 748 771 748 771 599 771 c 0,18,19
 479 771 479 771 375 707 c 1,20,-1
 166 808 l 1,21,-1
 333 1510 l 1,22,-1
 1026 1510 l 1,23,-1
 1026 1500 l 1,24,-1
 946 1330 l 1,25,-1
 486 1330 l 1,26,-1
 374 889 l 1,27,28
 482 951 482 951 599 951 c 0,29,30
 820 951 820 951 961 817 c 0,31,32
 1103 682 1103 682 1103 472 c 0,33,34
 1103 268 1103 268 969 125 c 0,35,0
 832 -20 832 -20 599 -20 c 128,-1,1
EndSplineSet
Validated: 1
EndChar

StartChar: six
Encoding: 54 54 25
Width: 1300
GlyphClass: 2
Flags: W
HStem: -20 180<507.712 824.932> 788 180<507.782 824.591> 1350 180<498.56 830.575>
VStem: 160 200<313.468 637.883 842 1217.6> 968 202<307.083 640.794 1140.59 1218.69>
LayerCount: 2
Fore
SplineSet
664 788 m 0,0,1
 539 788 539 788 450 698 c 0,2,3
 362 609 362 609 362 474 c 24,4,5
 362 340 362 340 450 250 c 128,-1,6
 538 160 538 160 665 160 c 0,7,8
 793 160 793 160 880 249 c 0,9,10
 968 339 968 339 968 474 c 128,-1,11
 968 609 968 609 880 698.5 c 128,-1,12
 792 788 792 788 664 788 c 0,0,1
664.5 -20 m 128,-1,14
 454 -20 454 -20 307 121 c 128,-1,15
 160 262 160 262 160 474 c 18,16,-1
 160 1036 l 2,17,18
 160 1248 160 1248 307 1389 c 128,-1,19
 454 1530 454 1530 664.5 1530 c 128,-1,20
 875 1530 875 1530 1022 1389 c 0,21,22
 1129 1287 1129 1287 1159 1147 c 1,23,-1
 980 1062 l 1,24,-1
 970 1062 l 9,25,26
 970 1189 970 1189 880.5 1269.5 c 128,-1,27
 791 1350 791 1350 664.5 1350 c 128,-1,28
 538 1350 538 1350 449 1269.5 c 128,-1,29
 360 1189 360 1189 360 1062 c 2,30,-1
 360 842 l 1,31,32
 488 968 488 968 664 968 c 0,33,34
 875 968 875 968 1022.5 827 c 128,-1,35
 1170 686 1170 686 1170 474 c 152,-1,36
 1170 262 1170 262 1022.5 121 c 128,-1,13
 875 -20 875 -20 664.5 -20 c 128,-1,14
EndSplineSet
Validated: 1
EndChar

StartChar: seven
Encoding: 55 55 26
Width: 967
GlyphClass: 2
Flags: W
HStem: -20 21G<162 214.167> 1330 180<90 675>
DStem2: 162 -20 425 100 0.355218 0.934784<205.596 1444.18>
LayerCount: 2
Fore
SplineSet
162 -20 m 1,0,-1
 675 1330 l 1,1,-1
 10 1330 l 1,2,-1
 10 1340 l 1,3,-1
 90 1510 l 1,4,-1
 957 1510 l 1,5,-1
 957 1500 l 1,6,-1
 425 100 l 1,7,-1
 172 -20 l 1,8,-1
 162 -20 l 1,0,-1
EndSplineSet
Validated: 1
EndChar

StartChar: eight
Encoding: 56 56 27
Width: 1210
GlyphClass: 2
Flags: W
HStem: -20 173<443.989 766.424> 755 164<466.544 742.063> 1370 160<466.837 741.403>
VStem: 100 202<293.504 615.512> 191 186<1007.33 1279.63> 832 187<1008.91 1279.95> 908 202<294.049 613.687>
LayerCount: 2
Fore
SplineSet
604 1370 m 0,0,1
 509 1370 509 1370 443 1306 c 128,-1,2
 377 1242 377 1242 377 1144 c 152,-1,3
 377 1046 377 1046 443 982.5 c 128,-1,4
 509 919 509 919 604 919 c 0,5,6
 702 919 702 919 765 982 c 0,7,8
 832 1048 832 1048 832 1145 c 152,-1,9
 832 1242 832 1242 766 1306 c 128,-1,10
 700 1370 700 1370 604 1370 c 0,0,1
605 755 m 0,11,12
 479 755 479 755 390.5 669.5 c 128,-1,13
 302 584 302 584 302 454 c 152,-1,14
 302 324 302 324 390.5 238.5 c 128,-1,15
 479 153 479 153 605.5 153 c 128,-1,16
 732 153 732 153 820 238 c 0,17,18
 908 324 908 324 908 454 c 152,-1,19
 908 584 908 584 820 670 c 0,20,21
 732 755 732 755 605 755 c 0,11,12
605 -20 m 128,-1,23
 395 -20 395 -20 247.5 115 c 128,-1,24
 100 250 100 250 100 453 c 0,25,26
 100 675 100 675 247 793 c 0,27,28
 293 830 293 830 345 852 c 1,29,30
 191 954 191 954 191 1139 c 0,31,32
 191 1305 191 1305 311 1417.5 c 128,-1,33
 431 1530 431 1530 603 1530 c 0,34,35
 777 1530 777 1530 898 1418 c 128,-1,36
 1019 1306 1019 1306 1019 1139 c 0,37,38
 1019 960 1019 960 866 852 c 1,39,40
 921 830 921 830 963 793 c 0,41,42
 1110 664 1110 664 1110 457 c 128,-1,43
 1110 250 1110 250 963 115 c 0,44,22
 815 -20 815 -20 605 -20 c 128,-1,23
EndSplineSet
Validated: 1
EndChar

StartChar: nine
Encoding: 57 57 28
Width: 1300
GlyphClass: 2
Flags: W
HStem: -20 180<469.425 801.44> 542 180<478.975 794.611> 1350 180<479.091 795.226>
VStem: 130 202<291.306 369.413 869.538 1202.67> 940 200<292.395 668 870.785 1201.45>
LayerCount: 2
Fore
SplineSet
636 1350 m 0,0,1
 511 1350 511 1350 421 1260 c 0,2,3
 332 1171 332 1171 332 1036 c 24,4,5
 332 902 332 902 421 812 c 128,-1,6
 510 722 510 722 636 722 c 0,7,8
 761 722 761 722 850 811 c 0,9,10
 938 899 938 899 938 1036 c 128,-1,11
 938 1173 938 1173 850 1261.5 c 128,-1,12
 762 1350 762 1350 636 1350 c 0,0,1
635.5 -20 m 128,-1,14
 425 -20 425 -20 278 121 c 0,15,16
 171 223 171 223 141 363 c 1,17,-1
 320 448 l 1,18,-1
 330 448 l 9,19,20
 330 321 330 321 419.5 240.5 c 128,-1,21
 509 160 509 160 635.5 160 c 128,-1,22
 762 160 762 160 851 240.5 c 128,-1,23
 940 321 940 321 940 448 c 2,24,-1
 940 668 l 1,25,26
 812 542 812 542 636 542 c 0,27,28
 425 542 425 542 277.5 683 c 128,-1,29
 130 824 130 824 130 1036 c 152,-1,30
 130 1248 130 1248 277.5 1389 c 128,-1,31
 425 1530 425 1530 635.5 1530 c 128,-1,32
 846 1530 846 1530 993 1389 c 128,-1,33
 1140 1248 1140 1248 1140 1036 c 18,34,-1
 1140 474 l 2,35,36
 1140 262 1140 262 993 121 c 128,-1,13
 846 -20 846 -20 635.5 -20 c 128,-1,14
EndSplineSet
Validated: 1
EndChar

StartChar: colon
Encoding: 58 58 29
Width: 340
GlyphClass: 2
Flags: W
HStem: -20 245<86.0974 253.903> 632 245<86.0974 253.903>
VStem: 50 240<17.1285 187.871 669.129 839.871>
LayerCount: 2
Fore
SplineSet
170 877 m 128,-1,1
 220 877 220 877 255 841 c 128,-1,2
 290 805 290 805 290 754.5 c 128,-1,3
 290 704 290 704 255 668 c 128,-1,4
 220 632 220 632 170 632 c 128,-1,5
 120 632 120 632 85 668 c 128,-1,6
 50 704 50 704 50 754.5 c 128,-1,7
 50 805 50 805 85 841 c 128,-1,0
 120 877 120 877 170 877 c 128,-1,1
170 -20 m 128,-1,9
 120 -20 120 -20 85 16 c 128,-1,10
 50 52 50 52 50 102.5 c 128,-1,11
 50 153 50 153 85 189 c 128,-1,12
 120 225 120 225 170 225 c 128,-1,13
 220 225 220 225 255 189 c 128,-1,14
 290 153 290 153 290 102.5 c 128,-1,15
 290 52 290 52 255 16 c 128,-1,8
 220 -20 220 -20 170 -20 c 128,-1,9
EndSplineSet
Validated: 1
EndChar

StartChar: semicolon
Encoding: 59 59 30
Width: 389
GlyphClass: 2
Flags: W
HStem: 632 245<106.097 273.903>
VStem: 70 240<669.129 839.871> 184 155<-122.682 121.561>
LayerCount: 2
Fore
SplineSet
190 877 m 128,-1,1
 240 877 240 877 275 841 c 128,-1,2
 310 805 310 805 310 754.5 c 128,-1,3
 310 704 310 704 275 668 c 128,-1,4
 240 632 240 632 190 632 c 128,-1,5
 140 632 140 632 105 668 c 128,-1,6
 70 704 70 704 70 754.5 c 128,-1,7
 70 805 70 805 105 841 c 128,-1,0
 140 877 140 877 190 877 c 128,-1,1
220 278 m 1,8,-1
 230 278 l 1,9,10
 339 171 339 171 339 34 c 0,11,12
 339 -163 339 -163 114 -276 c 1,13,-1
 107 -269 l 1,14,15
 184 -139 184 -139 184 -10 c 128,-1,16
 184 119 184 119 50 198 c 1,17,-1
 220 278 l 1,8,-1
EndSplineSet
Validated: 1
EndChar

StartChar: less
Encoding: 60 60 31
Width: 1315
GlyphClass: 2
Flags: W
DStem2: 392 750 150 680 0.942662 -0.33375<0 751.043> 216 830 392 750 0.937519 0.347934<137.169 893.848>
LayerCount: 2
Fore
SplineSet
1054 1141 m 1,0,-1
 1115 1014 l 1,1,-1
 1115 1004 l 1,2,-1
 392 750 l 1,3,-1
 1115 505 l 1,4,-1
 1115 495 l 1,5,-1
 1051 361 l 1,6,-1
 150 680 l 1,7,-1
 150 690 l 1,8,-1
 216 830 l 1,9,-1
 1054 1141 l 1,0,-1
EndSplineSet
Validated: 1
EndChar

StartChar: equal
Encoding: 61 61 32
Width: 1200
GlyphClass: 2
Flags: W
HStem: 480 150<216 984> 880 150<216 984>
LayerCount: 2
Fore
SplineSet
216 1030 m 1,0,-1
 1050 1030 l 1,1,-1
 1050 1020 l 1,2,-1
 984 880 l 1,3,-1
 150 880 l 1,4,-1
 150 890 l 1,5,-1
 216 1030 l 1,0,-1
216 630 m 1,6,-1
 1050 630 l 1,7,-1
 1050 620 l 1,8,-1
 984 480 l 1,9,-1
 150 480 l 1,10,-1
 150 490 l 1,11,-1
 216 630 l 1,6,-1
EndSplineSet
Validated: 1
EndChar

StartChar: greater
Encoding: 62 62 33
Width: 1315
GlyphClass: 2
Flags: W
DStem2: 264 1149 200 1005 0.942662 -0.33375<0 751.043> 200 506 261 369 0.937519 0.347934<9.52175 766.201>
LayerCount: 2
Fore
SplineSet
264 1149 m 1,0,-1
 1165 830 l 1,1,-1
 1165 820 l 1,2,-1
 1099 680 l 1,3,-1
 261 369 l 1,4,-1
 200 496 l 1,5,-1
 200 506 l 1,6,-1
 923 760 l 1,7,-1
 200 1005 l 1,8,-1
 200 1015 l 1,9,-1
 264 1149 l 1,0,-1
EndSplineSet
Validated: 1
EndChar

StartChar: question
Encoding: 63 63 34
Width: 1300
GlyphClass: 2
Flags: W
HStem: -20 245<541.097 708.903> 1350 180<491.493 819.887>
VStem: 150 200<895.151 1209.1> 505 240<17.1285 187.871> 528 203<454 557.676> 949 201<895.312 1224.77>
LayerCount: 2
Fore
SplineSet
625 -20 m 128,-1,1
 575 -20 575 -20 540 16 c 128,-1,2
 505 52 505 52 505 102.5 c 128,-1,3
 505 153 505 153 540 189 c 128,-1,4
 575 225 575 225 625 225 c 128,-1,5
 675 225 675 225 710 189 c 128,-1,6
 745 153 745 153 745 102.5 c 128,-1,7
 745 52 745 52 710 16 c 128,-1,0
 675 -20 675 -20 625 -20 c 128,-1,1
655 1530 m 0,8,9
 891 1530 891 1530 1025 1385 c 0,10,11
 1150 1250 1150 1250 1150 1070 c 0,12,13
 1150 756 1150 756 821 591 c 0,14,15
 731 546 731 546 731 454 c 1,16,-1
 538 361 l 1,17,-1
 528 361 l 1,18,19
 528 638 528 638 738 743 c 0,20,21
 949 849 949 849 949 1072 c 0,22,23
 949 1173 949 1173 888 1247 c 0,24,25
 803 1350 803 1350 655 1350 c 0,26,27
 510 1350 510 1350 422 1247 c 0,28,29
 350 1163 350 1163 350 1047 c 0,30,31
 350 980 350 980 389 914 c 1,32,-1
 221 833 l 1,33,-1
 211 833 l 1,34,35
 150 941 150 941 150 1070 c 0,36,37
 150 1241 150 1241 285 1385 c 0,38,39
 422 1530 422 1530 655 1530 c 0,8,9
EndSplineSet
Validated: 1
EndChar

StartChar: at
Encoding: 64 64 35
Width: 1380
GlyphClass: 2
Flags: W
HStem: -430 160<519.998 685> -20 158<782.069 1010> 514 155<773.75 1017> 960 160<509.693 870.513>
VStem: 180 180<-116.079 811.684> 519 180<212.549 446.292> 1020 180<138 514 669 812.183>
LayerCount: 2
Fore
SplineSet
1010 -20 m 1,0,-1
 934 -20 l 2,1,2
 756 -20 756 -20 641 70 c 0,3,4
 519 166 519 166 519 330 c 0,5,6
 519 469 519 469 643 573 c 0,7,8
 759 669 759 669 934 669 c 2,9,-1
 1017 669 l 1,10,11
 1017 783 1017 783 936 865 c 0,12,13
 840 960 840 960 689 960 c 0,14,15
 546 960 546 960 454 873 c 0,16,17
 360 785 360 785 360 640 c 2,18,-1
 360 50 l 2,19,20
 360 -84 360 -84 447 -171 c 0,21,22
 546 -270 546 -270 685 -270 c 2,23,-1
 756 -270 l 1,24,-1
 756 -280 l 1,25,-1
 685 -430 l 1,26,27
 457 -430 457 -430 315 -285 c 0,28,29
 180 -147 180 -147 180 70 c 2,30,-1
 180 620 l 2,31,32
 180 837 180 837 315 975 c 0,33,34
 457 1120 457 1120 690 1120 c 128,-1,35
 923 1120 923 1120 1065 975 c 0,36,37
 1200 838 1200 838 1200 620 c 2,38,-1
 1200 70 l 1,39,-1
 1010 -20 l 1,0,-1
1020 514 m 1,40,41
 849 514 849 514 774 471 c 128,-1,42
 699 428 699 428 699 327 c 0,43,44
 699 250 699 250 754 202 c 0,45,46
 825 138 825 138 1020 138 c 1,47,-1
 1020 514 l 1,40,41
EndSplineSet
Validated: 1
EndChar

StartChar: A
Encoding: 65 65 36
Width: 1370
GlyphClass: 2
Flags: W
HStem: -20 21G<180 232.222 990 1042.22> 665 180<380 990> 1350 180<519.38 851.44>
VStem: 180 200<70 665 845 1213.55> 990 200<70 665 845 1217.6>
LayerCount: 2
Fore
SplineSet
180 -20 m 1,0,-1
 180 1036 l 2,1,2
 180 1248 180 1248 327.5 1389 c 128,-1,3
 475 1530 475 1530 685.5 1530 c 128,-1,4
 896 1530 896 1530 1043 1389 c 128,-1,5
 1190 1248 1190 1248 1190 1036 c 2,6,-1
 1190 70 l 1,7,-1
 1000 -20 l 1,8,-1
 990 -20 l 1,9,-1
 990 665 l 1,10,-1
 380 665 l 1,11,-1
 380 70 l 1,12,-1
 190 -20 l 1,13,-1
 180 -20 l 1,0,-1
990 845 m 1,14,-1
 990 1062 l 2,15,16
 990 1189 990 1189 901 1269.5 c 128,-1,17
 812 1350 812 1350 685.5 1350 c 128,-1,18
 559 1350 559 1350 469.5 1269.5 c 128,-1,19
 380 1189 380 1189 380 1062 c 2,20,-1
 380 845 l 1,21,-1
 990 845 l 1,14,-1
EndSplineSet
Validated: 1
EndChar

StartChar: B
Encoding: 66 66 37
Width: 1250
GlyphClass: 2
Flags: W
HStem: 0 180<400 843.001> 746 180<400 804.5> 1330 180<400 807.427>
VStem: 200 200<180 746 926 1330> 880 199<999.629 1257.36> 970 200<301.995 621.641>
LayerCount: 2
Fore
SplineSet
400 926 m 1,0,-1
 665 926 l 2,1,2
 757 926 757 926 815 977 c 0,3,4
 880 1034 880 1034 880 1127 c 0,5,6
 880 1222 880 1222 815 1279 c 0,7,8
 757 1330 757 1330 665 1330 c 2,9,-1
 400 1330 l 1,10,-1
 400 926 l 1,0,-1
400 180 m 1,11,-1
 665 180 l 2,12,13
 821 180 821 180 905 275 c 0,14,15
 970 348 970 348 970 463 c 0,16,17
 970 575 970 575 905 651 c 0,18,19
 824 746 824 746 665 746 c 2,20,-1
 400 746 l 1,21,-1
 400 180 l 1,11,-1
200 0 m 1,22,-1
 200 1440 l 1,23,-1
 348 1510 l 1,24,-1
 665 1510 l 2,25,26
 827 1510 827 1510 946 1418 c 0,27,28
 1079 1314 1079 1314 1079 1141 c 0,29,30
 1079 969 1079 969 927 855 c 1,31,32
 985 831 985 831 1026 794 c 0,33,34
 1170 663 1170 663 1170 463 c 0,35,36
 1170 264 1170 264 1042 137 c 0,37,38
 905 0 905 0 665 0 c 2,39,-1
 200 0 l 1,22,-1
EndSplineSet
Validated: 1
EndChar

StartChar: C
Encoding: 67 67 38
Width: 1250
GlyphClass: 2
Flags: W
HStem: -20 180<499.38 832.982> 1350 180<499.38 831.44>
VStem: 160 200<296.453 1213.55> 970 189<1140.19 1217.6>
LayerCount: 2
Fore
SplineSet
665.5 -20 m 128,-1,1
 455 -20 455 -20 307.5 121 c 128,-1,2
 160 262 160 262 160 474 c 2,3,-1
 160 1036 l 2,4,5
 160 1248 160 1248 307.5 1389 c 128,-1,6
 455 1530 455 1530 665.5 1530 c 128,-1,7
 876 1530 876 1530 1023 1389 c 0,8,9
 1129 1287 1129 1287 1159 1147 c 1,10,-1
 980 1062 l 1,11,-1
 970 1062 l 9,12,13
 970 1189 970 1189 881 1269.5 c 128,-1,14
 792 1350 792 1350 665.5 1350 c 128,-1,15
 539 1350 539 1350 449.5 1269.5 c 128,-1,16
 360 1189 360 1189 360 1062 c 18,17,-1
 360 448 l 10,18,19
 360 321 360 321 449.5 240.5 c 128,-1,20
 539 160 539 160 665.5 160 c 128,-1,21
 792 160 792 160 881 240 c 0,22,23
 944 297 944 297 963 380 c 1,24,-1
 1160 474 l 1,25,-1
 1170 474 l 1,26,27
 1170 262 1170 262 1023 121 c 128,-1,0
 876 -20 876 -20 665.5 -20 c 128,-1,1
EndSplineSet
Validated: 1
EndChar

StartChar: D
Encoding: 68 68 39
Width: 1350
GlyphClass: 2
Flags: W
HStem: 0 180<400 851.463> 1330 180<400 850.378>
VStem: 200 200<180 1330> 990 200<311.847 1193.55>
LayerCount: 2
Fore
SplineSet
400 180 m 1,0,-1
 685 180 l 2,1,2
 810 180 810 180 900 260 c 128,-1,3
 990 340 990 340 990 468 c 18,4,-1
 990 1042 l 10,5,6
 990 1169 990 1169 900.5 1249.5 c 128,-1,7
 811 1330 811 1330 685 1330 c 2,8,-1
 400 1330 l 1,9,-1
 400 180 l 1,0,-1
200 0 m 1,10,-1
 200 1440 l 1,11,-1
 348 1510 l 1,12,-1
 685 1510 l 2,13,14
 896 1510 896 1510 1043 1369 c 128,-1,15
 1190 1228 1190 1228 1190 1016 c 2,16,-1
 1190 494 l 2,17,18
 1190 284 1190 284 1042 141 c 0,19,20
 896 0 896 0 685 0 c 2,21,-1
 200 0 l 1,10,-1
EndSplineSet
Validated: 1
EndChar

StartChar: E
Encoding: 69 69 40
Width: 1060
GlyphClass: 2
Flags: W
HStem: 0 180<400 930> 665 180<400 880> 1330 180<400 880>
VStem: 200 200<180 665 845 1330>
CounterMasks: 1 e0
LayerCount: 2
Fore
SplineSet
200 0 m 1,0,-1
 200 1440 l 1,1,-1
 348 1510 l 1,2,-1
 960 1510 l 1,3,-1
 960 1500 l 1,4,-1
 880 1330 l 1,5,-1
 400 1330 l 1,6,-1
 400 845 l 1,7,-1
 960 845 l 1,8,-1
 960 835 l 1,9,-1
 880 665 l 1,10,-1
 400 665 l 1,11,-1
 400 180 l 1,12,-1
 1010 180 l 1,13,-1
 1010 170 l 1,14,-1
 930 0 l 1,15,-1
 200 0 l 1,0,-1
EndSplineSet
Validated: 1
EndChar

StartChar: F
Encoding: 70 70 41
Width: 1010
GlyphClass: 2
Flags: W
HStem: -20 21G<200 252.222> 665 180<400 880> 1330 180<400 880>
VStem: 200 200<70 665 845 1330>
LayerCount: 2
Fore
SplineSet
200 -20 m 1,0,-1
 200 1440 l 1,1,-1
 348 1510 l 1,2,-1
 960 1510 l 1,3,-1
 960 1500 l 1,4,-1
 880 1330 l 1,5,-1
 400 1330 l 1,6,-1
 400 845 l 1,7,-1
 960 845 l 1,8,-1
 960 835 l 1,9,-1
 880 665 l 1,10,-1
 400 665 l 1,11,-1
 400 70 l 1,12,-1
 210 -20 l 1,13,-1
 200 -20 l 1,0,-1
EndSplineSet
Validated: 1
EndChar

StartChar: G
Encoding: 71 71 42
Width: 1330
GlyphClass: 2
Flags: W
HStem: -20 180<499.38 831.44> 665 180<702 970> 1350 180<499.38 831.44>
VStem: 160 200<296.453 1213.55> 970 200<292.395 665 1140.59 1217.6>
CounterMasks: 1 e0
LayerCount: 2
Fore
SplineSet
665.5 -20 m 128,-1,1
 455 -20 455 -20 307.5 121 c 128,-1,2
 160 262 160 262 160 474 c 2,3,-1
 160 1036 l 2,4,5
 160 1248 160 1248 307.5 1389 c 128,-1,6
 455 1530 455 1530 665.5 1530 c 128,-1,7
 876 1530 876 1530 1023 1389 c 0,8,9
 1129 1287 1129 1287 1159 1147 c 1,10,-1
 980 1062 l 1,11,-1
 970 1062 l 9,12,13
 970 1189 970 1189 881 1269.5 c 128,-1,14
 792 1350 792 1350 665.5 1350 c 128,-1,15
 539 1350 539 1350 449.5 1269.5 c 128,-1,16
 360 1189 360 1189 360 1062 c 18,17,-1
 360 448 l 10,18,19
 360 321 360 321 449.5 240.5 c 128,-1,20
 539 160 539 160 665.5 160 c 128,-1,21
 792 160 792 160 881 240.5 c 128,-1,22
 970 321 970 321 970 448 c 18,23,-1
 970 665 l 1,24,-1
 622 665 l 1,25,-1
 622 675 l 1,26,-1
 702 845 l 1,27,-1
 1170 845 l 1,28,-1
 1170 474 l 2,29,30
 1170 262 1170 262 1023 121 c 128,-1,0
 876 -20 876 -20 665.5 -20 c 128,-1,1
EndSplineSet
Validated: 1
EndChar

StartChar: H
Encoding: 72 72 43
Width: 1400
GlyphClass: 2
Flags: W
HStem: -20 21G<200 252.222 1000 1052.22> 665 180<400 1000> 1510 20G<347.778 400 1147.78 1200>
VStem: 200 200<70 665 845 1440> 1000 200<70 665 845 1440>
LayerCount: 2
Fore
SplineSet
200 -20 m 1,0,-1
 200 1440 l 1,1,-1
 390 1530 l 1,2,-1
 400 1530 l 1,3,-1
 400 845 l 1,4,-1
 1000 845 l 1,5,-1
 1000 1440 l 1,6,-1
 1190 1530 l 1,7,-1
 1200 1530 l 1,8,-1
 1200 70 l 1,9,-1
 1010 -20 l 1,10,-1
 1000 -20 l 1,11,-1
 1000 665 l 1,12,-1
 400 665 l 1,13,-1
 400 70 l 1,14,-1
 210 -20 l 1,15,-1
 200 -20 l 1,0,-1
EndSplineSet
Validated: 1
EndChar

StartChar: I
Encoding: 73 73 44
Width: 600
GlyphClass: 2
Flags: W
HStem: -20 21G<200 252.222> 1510 20G<347.778 400>
VStem: 200 200<70 1440>
LayerCount: 2
Fore
SplineSet
200 -20 m 1,0,-1
 200 1440 l 1,1,-1
 390 1530 l 1,2,-1
 400 1530 l 1,3,-1
 400 70 l 1,4,-1
 210 -20 l 1,5,-1
 200 -20 l 1,0,-1
EndSplineSet
Validated: 1
EndChar

StartChar: J
Encoding: 74 74 45
Width: 1150
GlyphClass: 2
Flags: W
HStem: -20 180<336.548 656.211> 1330 180<205 790>
VStem: 10 189<292.395 369.808> 790 200<290.851 1330>
LayerCount: 2
Fore
SplineSet
498.5 -20 m 128,-1,1
 293 -20 293 -20 146 121 c 0,2,3
 40 223 40 223 10 363 c 1,4,-1
 189 448 l 1,5,-1
 199 448 l 9,6,7
 199 321 199 321 288 240.5 c 128,-1,8
 377 160 377 160 498.5 160 c 128,-1,9
 620 160 620 160 705 240.5 c 128,-1,10
 790 321 790 321 790 448 c 18,11,-1
 790 1330 l 1,12,-1
 125 1330 l 1,13,-1
 125 1340 l 1,14,-1
 205 1510 l 1,15,-1
 990 1510 l 1,16,-1
 990 474 l 2,17,18
 990 262 990 262 847 121 c 128,-1,0
 704 -20 704 -20 498.5 -20 c 128,-1,1
EndSplineSet
Validated: 1
EndChar

StartChar: K
Encoding: 75 75 46
Width: 1350
GlyphClass: 2
Flags: W
HStem: -20 21G<200 252.222 990 1042.22> 1510 20G<347.778 400 980.023 1053.34>
VStem: 200 200<70 744.541 957 1440> 990 200<70 741.605>
DStem2: 400 957 484.5 793.5 0.722653 0.691211<0 100.885 297.825 830.378>
LayerCount: 2
Fore
SplineSet
200 -20 m 1,0,-1
 200 1440 l 1,1,-1
 390 1530 l 1,2,-1
 400 1530 l 1,3,-1
 400 957 l 9,4,-1
 1001 1530 l 1,5,-1
 1011 1530 l 1,6,-1
 1174 1453 l 1,7,-1
 727 1046 l 1,8,9
 915 1036 915 1036 1043 913 c 0,10,11
 1190 772 1190 772 1190 560 c 2,12,-1
 1190 70 l 1,13,-1
 1000 -20 l 1,14,-1
 990 -20 l 1,15,-1
 990 586 l 2,16,17
 990 713 990 713 901 793.5 c 128,-1,18
 812 874 812 874 690.5 874 c 128,-1,19
 569 874 569 874 484.5 793.5 c 128,-1,20
 400 713 400 713 400 586 c 2,21,-1
 400 70 l 1,22,-1
 210 -20 l 1,23,-1
 200 -20 l 1,0,-1
EndSplineSet
Validated: 1
EndChar

StartChar: L
Encoding: 76 76 47
Width: 1020
GlyphClass: 2
Flags: W
HStem: 0 180<400 930> 1510 20G<347.778 400>
VStem: 200 200<180 1440>
LayerCount: 2
Fore
SplineSet
200 0 m 1,0,-1
 200 1440 l 1,1,-1
 390 1530 l 1,2,-1
 400 1530 l 1,3,-1
 400 180 l 1,4,-1
 1010 180 l 1,5,-1
 1010 170 l 1,6,-1
 930 0 l 1,7,-1
 200 0 l 1,0,-1
EndSplineSet
Validated: 1
EndChar

StartChar: M
Encoding: 77 77 48
Width: 2180
GlyphClass: 2
Flags: W
HStem: -20 21G<180 232.222 990 1042.22 1800 1852.22> 1350 180<519.38 851.44 1328.53 1661.52>
VStem: 180 200<70 1213.55> 990 200<70 1217.6> 1800 200<70 1217.6>
CounterMasks: 1 38
LayerCount: 2
Fore
SplineSet
180 -20 m 1,0,-1
 180 1036 l 2,1,2
 180 1248 180 1248 327.5 1389 c 128,-1,3
 475 1530 475 1530 685.5 1530 c 128,-1,4
 896 1530 896 1530 1043 1389 c 0,5,6
 1069 1364 1069 1364 1090 1337 c 1,7,8
 1109 1361 1109 1361 1138 1389 c 0,9,10
 1281 1530 1281 1530 1496 1530 c 0,11,12
 1706 1530 1706 1530 1853 1389 c 128,-1,13
 2000 1248 2000 1248 2000 1036 c 2,14,-1
 2000 70 l 1,15,-1
 1810 -20 l 1,16,-1
 1800 -20 l 1,17,-1
 1800 1062 l 2,18,19
 1800 1189 1800 1189 1711 1269.5 c 128,-1,20
 1622 1350 1622 1350 1495.5 1350 c 128,-1,21
 1369 1350 1369 1350 1279.5 1269.5 c 128,-1,22
 1190 1189 1190 1189 1190 1062 c 2,23,-1
 1190 70 l 1,24,-1
 1000 -20 l 1,25,-1
 990 -20 l 1,26,-1
 990 1062 l 2,27,28
 990 1189 990 1189 901 1269.5 c 128,-1,29
 812 1350 812 1350 685.5 1350 c 128,-1,30
 559 1350 559 1350 469.5 1269.5 c 128,-1,31
 380 1189 380 1189 380 1062 c 2,32,-1
 380 70 l 1,33,-1
 190 -20 l 1,34,-1
 180 -20 l 1,0,-1
EndSplineSet
Validated: 1
EndChar

StartChar: N
Encoding: 78 78 49
Width: 1370
GlyphClass: 2
Flags: W
HStem: -20 21G<180 232.222 990 1042.22> 1350 180<519.38 851.44>
VStem: 180 200<70 1213.55> 990 200<70 1217.6>
LayerCount: 2
Fore
SplineSet
180 -20 m 9,0,-1
 180 1036 l 2,1,2
 180 1248 180 1248 327.5 1389 c 128,-1,3
 475 1530 475 1530 685.5 1530 c 128,-1,4
 896 1530 896 1530 1043 1389 c 128,-1,5
 1190 1248 1190 1248 1190 1036 c 2,6,-1
 1190 70 l 17,7,-1
 1000 -20 l 1,8,-1
 990 -20 l 9,9,-1
 990 1062 l 10,10,11
 990 1189 990 1189 901 1269.5 c 128,-1,12
 812 1350 812 1350 685.5 1350 c 128,-1,13
 559 1350 559 1350 469.5 1269.5 c 128,-1,14
 380 1189 380 1189 380 1062 c 18,15,-1
 380 70 l 17,16,-1
 190 -20 l 1,17,-1
 180 -20 l 9,0,-1
EndSplineSet
Validated: 1
EndChar

StartChar: O
Encoding: 79 79 50
Width: 1330
GlyphClass: 2
Flags: W
HStem: -20 180<499.38 831.44> 1350 180<499.38 831.44>
VStem: 160 200<296.453 1213.55> 970 200<292.395 1217.6>
LayerCount: 2
Fore
SplineSet
665.5 160 m 128,-1,1
 792 160 792 160 881 240.5 c 128,-1,2
 970 321 970 321 970 448 c 18,3,-1
 970 1062 l 10,4,5
 970 1189 970 1189 881 1269.5 c 128,-1,6
 792 1350 792 1350 665.5 1350 c 128,-1,7
 539 1350 539 1350 449.5 1269.5 c 128,-1,8
 360 1189 360 1189 360 1062 c 18,9,-1
 360 448 l 10,10,11
 360 321 360 321 449.5 240.5 c 128,-1,0
 539 160 539 160 665.5 160 c 128,-1,1
665.5 -20 m 128,-1,13
 455 -20 455 -20 307.5 121 c 128,-1,14
 160 262 160 262 160 474 c 2,15,-1
 160 1036 l 2,16,17
 160 1248 160 1248 307.5 1389 c 128,-1,18
 455 1530 455 1530 665.5 1530 c 128,-1,19
 876 1530 876 1530 1023 1389 c 128,-1,20
 1170 1248 1170 1248 1170 1036 c 2,21,-1
 1170 474 l 2,22,23
 1170 262 1170 262 1023 121 c 128,-1,12
 876 -20 876 -20 665.5 -20 c 128,-1,13
EndSplineSet
Validated: 1
EndChar

StartChar: P
Encoding: 80 80 51
Width: 1210
GlyphClass: 2
Flags: W
HStem: -20 21G<200 252.222> 500 180<400 820.791> 1330 180<400 820.791>
VStem: 200 200<70 500 680 1330> 960 200<833 1176.18>
LayerCount: 2
Fore
SplineSet
400 680 m 1,0,-1
 672 680 l 10,1,2
 799 680 799 680 879.5 779 c 128,-1,3
 960 878 960 878 960 1004.5 c 128,-1,4
 960 1131 960 1131 879.5 1230.5 c 128,-1,5
 799 1330 799 1330 672 1330 c 18,6,-1
 400 1330 l 1,7,-1
 400 680 l 1,0,-1
200 -20 m 1,8,-1
 200 1440 l 1,9,-1
 348 1510 l 1,10,-1
 666 1510 l 2,11,12
 878 1510 878 1510 1019 1362.5 c 128,-1,13
 1160 1215 1160 1215 1160 1004.5 c 128,-1,14
 1160 794 1160 794 1019 647 c 128,-1,15
 878 500 878 500 666 500 c 2,16,-1
 400 500 l 1,17,-1
 400 70 l 1,18,-1
 210 -20 l 1,19,-1
 200 -20 l 1,8,-1
EndSplineSet
Validated: 1
EndChar

StartChar: Q
Encoding: 81 81 52
Width: 1330
GlyphClass: 2
Flags: W
HStem: -20 180<498.549 760.136> 1350 180<499.38 831.44>
VStem: 160 200<296.453 1213.55> 970 200<292.359 1217.6>
DStem2: 750 540 564 457 0.572465 -0.819929<0 304.591 488.106 567.726>
LayerCount: 2
Fore
SplineSet
666 -20 m 0,0,1
 456 -20 456 -20 308 121 c 128,-1,2
 160 262 160 262 160 474 c 2,3,-1
 160 1036 l 2,4,5
 160 1248 160 1248 307.5 1389 c 128,-1,6
 455 1530 455 1530 665.5 1530 c 128,-1,7
 876 1530 876 1530 1023 1389 c 128,-1,8
 1170 1248 1170 1248 1170 1036 c 2,9,-1
 1170 474 l 2,10,11
 1170 271 1170 271 1035 132 c 1,12,-1
 1097 43 l 1,13,-1
 921 -40 l 1,14,-1
 911 -40 l 1,15,-1
 870 19 l 1,16,17
 777 -20 777 -20 666 -20 c 0,0,1
564 457 m 1,18,-1
 740 540 l 1,19,-1
 750 540 l 1,20,-1
 924 290 l 1,21,22
 970 357 970 357 970 448 c 2,23,-1
 970 1062 l 2,24,25
 970 1189 970 1189 881 1269.5 c 128,-1,26
 792 1350 792 1350 665.5 1350 c 128,-1,27
 539 1350 539 1350 449.5 1269.5 c 128,-1,28
 360 1189 360 1189 360 1062 c 2,29,-1
 360 448 l 2,30,31
 360 321 360 321 450 240 c 0,32,33
 540 160 540 160 666 160 c 0,34,35
 717 160 717 160 762 173 c 1,36,-1
 564 457 l 1,18,-1
EndSplineSet
Validated: 1
EndChar

StartChar: R
Encoding: 82 82 53
Width: 1294
GlyphClass: 2
Flags: W
HStem: -20 21G<200 252.222 1003.85 1072.82> 500 180<400 650> 1330 180<400 820.791>
VStem: 200 200<70 500 680 1330> 960 200<833 1176.18>
DStem2: 867 540 650 500 0.577669 -0.816271<0 544.34>
LayerCount: 2
Fore
SplineSet
200 -20 m 1,0,-1
 200 1440 l 1,1,-1
 348 1510 l 1,2,-1
 666 1510 l 2,3,4
 878 1510 878 1510 1019 1362.5 c 128,-1,5
 1160 1215 1160 1215 1160 1004.5 c 128,-1,6
 1160 794 1160 794 1019 647 c 0,7,8
 951 576 951 576 867 540 c 1,9,-1
 1214 63 l 1,10,-1
 1028 -20 l 1,11,-1
 1018 -20 l 1,12,-1
 650 500 l 1,13,-1
 400 500 l 1,14,-1
 400 70 l 1,15,-1
 210 -20 l 1,16,-1
 200 -20 l 1,0,-1
400 680 m 1,17,-1
 672 680 l 2,18,19
 799 680 799 680 879.5 779 c 128,-1,20
 960 878 960 878 960 1004.5 c 128,-1,21
 960 1131 960 1131 879.5 1230.5 c 128,-1,22
 799 1330 799 1330 672 1330 c 2,23,-1
 400 1330 l 1,24,-1
 400 680 l 1,17,-1
EndSplineSet
Validated: 1
EndChar

StartChar: T
Encoding: 84 84 54
Width: 1070
GlyphClass: 2
Flags: W
HStem: -20 21G<435 487.222> 1330 180<90 435 635 980>
VStem: 435 200<70 1330>
LayerCount: 2
Fore
SplineSet
435 -20 m 1,0,-1
 435 1330 l 1,1,-1
 10 1330 l 1,2,-1
 10 1340 l 1,3,-1
 90 1510 l 1,4,-1
 1060 1510 l 1,5,-1
 1060 1500 l 1,6,-1
 980 1330 l 1,7,-1
 635 1330 l 1,8,-1
 635 70 l 1,9,-1
 445 -20 l 1,10,-1
 435 -20 l 1,0,-1
EndSplineSet
Validated: 1
EndChar

StartChar: U
Encoding: 85 85 55
Width: 1370
GlyphClass: 2
Flags: W
HStem: -20 180<518.56 850.62> 1510 20G<327.778 380 1137.78 1190>
VStem: 180 200<292.395 1440> 990 200<296.453 1440>
LayerCount: 2
Fore
SplineSet
684.5 -20 m 128,-1,1
 474 -20 474 -20 327 121 c 128,-1,2
 180 262 180 262 180 474 c 2,3,-1
 180 1440 l 17,4,-1
 370 1530 l 1,5,-1
 380 1530 l 9,6,-1
 380 448 l 10,7,8
 380 321 380 321 469 240.5 c 128,-1,9
 558 160 558 160 684.5 160 c 128,-1,10
 811 160 811 160 900.5 240.5 c 128,-1,11
 990 321 990 321 990 448 c 18,12,-1
 990 1440 l 17,13,-1
 1180 1530 l 1,14,-1
 1190 1530 l 9,15,-1
 1190 474 l 2,16,17
 1190 262 1190 262 1042.5 121 c 128,-1,0
 895 -20 895 -20 684.5 -20 c 128,-1,1
EndSplineSet
Validated: 1
EndChar

StartChar: V
Encoding: 86 86 56
Width: 1230
GlyphClass: 2
Flags: W
HStem: -20 21G<518.902 578.133> 1510 20G<135.805 195.14 1050.59 1110.43>
DStem2: 188 1530 5 1448 0.334465 -0.942408<16.0704 1269.94> 615 334 694 55 0.354413 0.935089<0 1265.36>
LayerCount: 2
Fore
SplineSet
526 -20 m 1,0,-1
 5 1448 l 1,1,-1
 178 1530 l 1,2,-1
 188 1530 l 1,3,-1
 615 334 l 1,4,-1
 1058 1530 l 1,5,-1
 1068 1530 l 1,6,-1
 1225 1456 l 1,7,-1
 694 55 l 1,8,-1
 536 -20 l 1,9,-1
 526 -20 l 1,0,-1
EndSplineSet
Validated: 1
EndChar

StartChar: W
Encoding: 87 87 57
Width: 2180
GlyphClass: 2
Flags: W
HStem: -20 180<518.476 851.467 1328.56 1660.62> 1510 20G<327.778 380 1137.78 1190 1947.78 2000>
VStem: 180 200<292.395 1440> 990 200<292.395 1440> 1800 200<296.453 1440>
CounterMasks: 1 38
LayerCount: 2
Fore
SplineSet
684 -20 m 0,0,1
 474 -20 474 -20 327 121 c 128,-1,2
 180 262 180 262 180 474 c 2,3,-1
 180 1440 l 1,4,-1
 370 1530 l 1,5,-1
 380 1530 l 1,6,-1
 380 448 l 2,7,8
 380 321 380 321 469 240.5 c 128,-1,9
 558 160 558 160 684.5 160 c 128,-1,10
 811 160 811 160 900.5 240.5 c 128,-1,11
 990 321 990 321 990 448 c 2,12,-1
 990 1440 l 1,13,-1
 1180 1530 l 1,14,-1
 1190 1530 l 1,15,-1
 1190 448 l 2,16,17
 1190 321 1190 321 1279 240.5 c 128,-1,18
 1368 160 1368 160 1494.5 160 c 128,-1,19
 1621 160 1621 160 1710.5 240.5 c 128,-1,20
 1800 321 1800 321 1800 448 c 2,21,-1
 1800 1440 l 1,22,-1
 1990 1530 l 1,23,-1
 2000 1530 l 1,24,-1
 2000 474 l 2,25,26
 2000 262 2000 262 1852.5 121 c 128,-1,27
 1705 -20 1705 -20 1494.5 -20 c 128,-1,28
 1284 -20 1284 -20 1137 121 c 0,29,30
 1111 146 1111 146 1090 173 c 1,31,32
 1068 146 1068 146 1042 121 c 0,33,34
 899 -20 899 -20 684 -20 c 0,0,1
EndSplineSet
Validated: 1
EndChar

StartChar: X
Encoding: 88 88 58
Width: 1156
GlyphClass: 2
Flags: W
HStem: -20 21G<141.647 206.529 934.636 999.4> 1503 20G<157.895 222.331 948.504 1013.03>
DStem2: 210 1523 40 1447 0.525197 -0.850981<0 710.742 988.866 1700.13> 40 48 194 -20 0.529637 0.848224<23.8848 737.793 1025.55 1738.93>
LayerCount: 2
Fore
SplineSet
194 -20 m 1,0,-1
 184 -20 l 1,1,-1
 40 48 l 1,2,-1
 475 744 l 1,3,-1
 40 1447 l 1,4,-1
 200 1523 l 1,5,-1
 210 1523 l 1,6,-1
 583 918 l 1,7,-1
 961 1523 l 1,8,-1
 971 1523 l 1,9,-1
 1116 1454 l 1,10,-1
 681 759 l 1,11,-1
 1116 55 l 1,12,-1
 957 -20 l 1,13,-1
 947 -20 l 1,14,-1
 573 585 l 1,15,-1
 194 -20 l 1,0,-1
EndSplineSet
Validated: 1
EndChar

StartChar: Y
Encoding: 89 89 59
Width: 1230
GlyphClass: 2
Flags: W
HStem: -20 21G<515 567.222> 438 172<458.222 515 715 771.048> 1510 20G<267.778 320 1057.78 1110>
VStem: 120 200<742.395 1440> 515 200<70 447.575> 910 200<746.453 1440>
CounterMasks: 1 1c
LayerCount: 2
Fore
SplineSet
515 -20 m 1,0,-1
 515 438 l 1,1,2
 380 462 380 462 267 571 c 0,3,4
 120 712 120 712 120 924 c 2,5,-1
 120 1440 l 1,6,-1
 310 1530 l 1,7,-1
 320 1530 l 1,8,-1
 320 898 l 2,9,10
 320 771 320 771 409 690.5 c 128,-1,11
 498 610 498 610 614.5 610 c 128,-1,12
 731 610 731 610 820.5 690.5 c 128,-1,13
 910 771 910 771 910 898 c 2,14,-1
 910 1440 l 1,15,-1
 1100 1530 l 1,16,-1
 1110 1530 l 1,17,-1
 1110 924 l 2,18,19
 1110 712 1110 712 962 571 c 0,20,21
 850 463 850 463 715 439 c 1,22,-1
 715 70 l 1,23,-1
 525 -20 l 1,24,-1
 515 -20 l 1,0,-1
EndSplineSet
Validated: 1
EndChar

StartChar: Z
Encoding: 90 90 60
Width: 1040
GlyphClass: 2
Flags: W
HStem: 0 180<330 920> 1330 180<150 707>
DStem2: 40 10 330 180 0.45261 0.891709<282.847 1478.95>
LayerCount: 2
Fore
SplineSet
40 0 m 1,0,-1
 40 10 l 1,1,-1
 707 1330 l 1,2,-1
 70 1330 l 1,3,-1
 70 1340 l 1,4,-1
 150 1510 l 1,5,-1
 1000 1510 l 1,6,-1
 1000 1500 l 1,7,-1
 330 180 l 1,8,-1
 1000 180 l 1,9,-1
 1000 170 l 1,10,-1
 920 0 l 1,11,-1
 40 0 l 1,0,-1
EndSplineSet
Validated: 1
EndChar

StartChar: bracketleft
Encoding: 91 91 61
Width: 880
GlyphClass: 2
Flags: W
HStem: -240 180<400 750> 1570 180<400 750>
VStem: 200 200<-60 1570>
LayerCount: 2
Fore
SplineSet
200 -240 m 1,0,-1
 200 1660 l 1,1,-1
 390 1750 l 1,2,-1
 830 1750 l 1,3,-1
 830 1740 l 1,4,-1
 750 1570 l 1,5,-1
 400 1570 l 1,6,-1
 400 -60 l 1,7,-1
 830 -60 l 1,8,-1
 830 -70 l 1,9,-1
 750 -240 l 1,10,-1
 200 -240 l 1,0,-1
EndSplineSet
Validated: 1
EndChar

StartChar: backslash
Encoding: 92 92 62
Width: 1019
GlyphClass: 2
Flags: W
DStem2: 148 1710 10 1648 0.422724 -0.906258<0 2037.01>
LayerCount: 2
Fore
SplineSet
882 -200 m 1,0,-1
 872 -200 l 1,1,-1
 10 1648 l 1,2,-1
 138 1710 l 1,3,-1
 148 1710 l 1,4,-1
 1009 -138 l 1,5,-1
 882 -200 l 1,0,-1
EndSplineSet
Validated: 1
EndChar

StartChar: bracketright
Encoding: 93 93 63
Width: 880
GlyphClass: 2
Flags: W
HStem: -240 180<130 480> 1570 180<130 480>
VStem: 480 200<-60 1570>
LayerCount: 2
Fore
SplineSet
490 -240 m 1,0,-1
 50 -240 l 1,1,-1
 50 -230 l 1,2,-1
 130 -60 l 1,3,-1
 480 -60 l 1,4,-1
 480 1570 l 1,5,-1
 50 1570 l 1,6,-1
 50 1580 l 1,7,-1
 130 1750 l 1,8,-1
 680 1750 l 1,9,-1
 680 -150 l 1,10,-1
 490 -240 l 1,0,-1
EndSplineSet
Validated: 1
EndChar

StartChar: asciicircum
Encoding: 94 94 64
Width: 871
GlyphClass: 2
Flags: W
HStem: 1160 410
DStem2: 50 1231 208 1160 0.704339 0.709864<60.8853 362.041> 488 1570 430 1393 0.701818 -0.712356<85.3816 411.375>
LayerCount: 2
Fore
SplineSet
478 1570 m 1,0,-1
 488 1570 l 1,1,-1
 821 1232 l 1,2,-1
 668 1160 l 1,3,-1
 658 1160 l 1,4,-1
 430 1393 l 1,5,-1
 208 1160 l 1,6,-1
 198 1160 l 1,7,-1
 50 1231 l 1,8,-1
 305 1488 l 1,9,-1
 478 1570 l 1,0,-1
EndSplineSet
Validated: 1
EndChar

StartChar: underscore
Encoding: 95 95 65
Width: 1364
GlyphClass: 2
Flags: W
HStem: -410 120<202 1162>
LayerCount: 2
Fore
SplineSet
150 -410 m 1,0,-1
 150 -400 l 1,1,-1
 202 -290 l 1,2,-1
 1214 -290 l 1,3,-1
 1214 -300 l 1,4,-1
 1162 -410 l 1,5,-1
 150 -410 l 1,0,-1
EndSplineSet
Validated: 1
EndChar

StartChar: grave
Encoding: 96 96 66
Width: 377
GlyphClass: 2
Flags: W
HStem: 1160 367
VStem: 50 277
DStem2: 180 1527 50 1470 0.427336 -0.904093<0 339.921>
LayerCount: 2
Fore
SplineSet
170 1527 m 1,0,-1
 180 1527 l 1,1,-1
 327 1216 l 1,2,-1
 209 1160 l 1,3,-1
 199 1160 l 1,4,-1
 50 1470 l 1,5,-1
 170 1527 l 1,0,-1
EndSplineSet
Validated: 1
EndChar

StartChar: a
Encoding: 97 97 67
Width: 1064
GlyphClass: 2
Flags: W
HStem: -20 147<336.985 624.747> 589 151<336.664 625.938> 940 160<345 609.834>
VStem: 80 164<216.788 499.063> 704 180<61 66 202.182 513.818 652 847.189>
LayerCount: 2
Fore
SplineSet
481 127 m 128,-1,1
 579 127 579 127 648.5 190 c 128,-1,2
 718 253 718 253 718 358 c 128,-1,3
 718 463 718 463 648.5 526 c 128,-1,4
 579 589 579 589 481 589 c 128,-1,5
 383 589 383 589 313.5 526 c 128,-1,6
 244 463 244 463 244 358 c 128,-1,7
 244 253 244 253 313.5 190 c 128,-1,0
 383 127 383 127 481 127 c 128,-1,1
704 -20 m 1,8,-1
 704 66 l 1,9,10
 611 -20 611 -20 466 -20 c 0,11,12
 279 -20 279 -20 179.5 93 c 128,-1,13
 80 206 80 206 80 360 c 0,14,15
 80 520 80 520 193 632 c 0,16,17
 302 740 302 740 466 740 c 0,18,19
 616 740 616 740 704 652 c 1,20,-1
 704 714 l 2,21,22
 704 813 704 813 635.5 876.5 c 128,-1,23
 567 940 567 940 469 940 c 2,24,-1
 274 940 l 1,25,-1
 274 950 l 1,26,-1
 345 1100 l 1,27,-1
 469 1100 l 2,28,29
 641 1100 641 1100 762.5 983 c 128,-1,30
 884 866 884 866 884 692 c 2,31,-1
 884 61 l 17,32,-1
 714 -20 l 1,33,-1
 704 -20 l 1,8,-1
EndSplineSet
Validated: 1
EndChar

StartChar: b
Encoding: 98 98 68
Width: 1170
GlyphClass: 2
Flags: W
HStem: -20 160<453.542 736.458> 960 160<452.493 736.458> 1510 20G<308.025 360>
VStem: 180 180<232.811 869.238 1031 1449> 830 180<232.811 867.189>
LayerCount: 2
Fore
SplineSet
595 -20 m 128,-1,1
 423 -20 423 -20 301.5 97 c 128,-1,2
 180 214 180 214 180 388 c 2,3,-1
 180 1449 l 1,4,-1
 350 1530 l 1,5,-1
 360 1530 l 1,6,-1
 360 1031 l 1,7,8
 463 1120 463 1120 595 1120 c 0,9,10
 767 1120 767 1120 888.5 1003 c 128,-1,11
 1010 886 1010 886 1010 712 c 2,12,-1
 1010 388 l 2,13,14
 1010 214 1010 214 888.5 97 c 128,-1,0
 767 -20 767 -20 595 -20 c 128,-1,1
595 960 m 128,-1,16
 497 960 497 960 428.5 896.5 c 128,-1,17
 360 833 360 833 360 734 c 2,18,-1
 360 366 l 2,19,20
 360 267 360 267 428.5 203.5 c 128,-1,21
 497 140 497 140 595 140 c 128,-1,22
 693 140 693 140 761.5 203.5 c 128,-1,23
 830 267 830 267 830 366 c 2,24,-1
 830 734 l 2,25,26
 830 833 830 833 761.5 896.5 c 128,-1,15
 693 960 693 960 595 960 c 128,-1,16
EndSplineSet
Validated: 1
EndChar

StartChar: c
Encoding: 99 99 69
Width: 1070
GlyphClass: 2
Flags: W
HStem: -20 160<433.542 716.629> 960 160<433.542 715.918>
VStem: 160 180<232.811 867.189>
LayerCount: 2
Fore
SplineSet
575 -20 m 128,-1,1
 403 -20 403 -20 281.5 97 c 128,-1,2
 160 214 160 214 160 388 c 2,3,-1
 160 712 l 2,4,5
 160 886 160 886 281.5 1003 c 128,-1,6
 403 1120 403 1120 575 1120 c 0,7,8
 745 1120 745 1120 868 1003 c 0,9,10
 954 921 954 921 979 810 c 1,11,-1
 820 734 l 1,12,-1
 810 734 l 1,13,14
 810 833 810 833 741.5 896.5 c 128,-1,15
 673 960 673 960 575 960 c 128,-1,16
 477 960 477 960 408.5 896.5 c 128,-1,17
 340 833 340 833 340 734 c 2,18,-1
 340 366 l 2,19,20
 340 267 340 267 408.5 203.5 c 128,-1,21
 477 140 477 140 575 140 c 128,-1,22
 673 140 673 140 742 204 c 0,23,24
 786 245 786 245 802 303 c 1,25,-1
 980 388 l 1,26,-1
 990 388 l 1,27,28
 990 214 990 214 868.5 97 c 128,-1,0
 747 -20 747 -20 575 -20 c 128,-1,1
EndSplineSet
Validated: 1
EndChar

StartChar: d
Encoding: 100 100 70
Width: 1170
GlyphClass: 2
Flags: W
HStem: -20 160<433.542 716.458> 960 160<433.542 717.507> 1510 20G<938.025 990>
VStem: 160 180<232.811 867.189> 810 180<232.811 869.238 1031 1449>
LayerCount: 2
Fore
SplineSet
575 -20 m 128,-1,1
 403 -20 403 -20 281.5 97 c 128,-1,2
 160 214 160 214 160 388 c 2,3,-1
 160 712 l 2,4,5
 160 886 160 886 281.5 1003 c 128,-1,6
 403 1120 403 1120 575 1120 c 0,7,8
 707 1120 707 1120 810 1031 c 1,9,-1
 810 1449 l 1,10,-1
 980 1530 l 1,11,-1
 990 1530 l 1,12,-1
 990 388 l 2,13,14
 990 214 990 214 868.5 97 c 128,-1,0
 747 -20 747 -20 575 -20 c 128,-1,1
575 960 m 128,-1,16
 477 960 477 960 408.5 896.5 c 128,-1,17
 340 833 340 833 340 734 c 2,18,-1
 340 366 l 2,19,20
 340 267 340 267 408.5 203.5 c 128,-1,21
 477 140 477 140 575 140 c 128,-1,22
 673 140 673 140 741.5 203.5 c 128,-1,23
 810 267 810 267 810 366 c 2,24,-1
 810 734 l 2,25,26
 810 833 810 833 741.5 896.5 c 128,-1,15
 673 960 673 960 575 960 c 128,-1,16
EndSplineSet
Validated: 1
EndChar

StartChar: e
Encoding: 101 101 71
Width: 1150
GlyphClass: 2
Flags: W
HStem: -20 160<433.214 716.757> 960 160<433.542 716.458>
VStem: 160 180<508 867.189> 810 180<734 867.189>
DStem2: 340 508 342 334 0.902087 0.431554<0 537.303>
LayerCount: 2
Fore
SplineSet
810 734 m 1,0,1
 810 833 810 833 741.5 896.5 c 128,-1,2
 673 960 673 960 575 960 c 128,-1,3
 477 960 477 960 408.5 896.5 c 128,-1,4
 340 833 340 833 340 734 c 2,5,-1
 340 508 l 1,6,-1
 810 734 l 1,0,1
575 -20 m 128,-1,8
 403 -20 403 -20 281.5 97 c 128,-1,9
 160 214 160 214 160 388 c 2,10,-1
 160 712 l 2,11,12
 160 886 160 886 281.5 1003 c 128,-1,13
 403 1120 403 1120 575 1120 c 128,-1,14
 747 1120 747 1120 868.5 1003 c 128,-1,15
 990 886 990 886 990 712 c 2,16,-1
 990 644 l 1,17,-1
 342 334 l 1,18,19
 350 259 350 259 408 204 c 0,20,21
 476 140 476 140 574 140 c 0,22,23
 674 140 674 140 742 204 c 0,24,25
 786 245 786 245 802 303 c 1,26,-1
 980 388 l 1,27,-1
 990 388 l 1,28,29
 990 214 990 214 868.5 97 c 128,-1,7
 747 -20 747 -20 575 -20 c 128,-1,8
EndSplineSet
Validated: 1
EndChar

StartChar: f
Encoding: 102 102 72
Width: 780
GlyphClass: 2
Flags: W
HStem: -20 21G<180 231.975> 740 160<360 660> 1350 160<454.166 699>
VStem: 180 180<61 740 900 1257.19>
LayerCount: 2
Fore
SplineSet
180 -20 m 1,0,-1
 180 1102 l 2,1,2
 180 1276 180 1276 301.5 1393 c 128,-1,3
 423 1510 423 1510 595 1510 c 2,4,-1
 770 1510 l 1,5,-1
 770 1500 l 1,6,-1
 699 1350 l 1,7,-1
 595 1350 l 2,8,9
 497 1350 497 1350 428.5 1286.5 c 128,-1,10
 360 1223 360 1223 360 1124 c 2,11,-1
 360 900 l 1,12,-1
 731 900 l 1,13,-1
 731 890 l 1,14,-1
 660 740 l 1,15,-1
 360 740 l 1,16,-1
 360 61 l 1,17,-1
 190 -20 l 1,18,-1
 180 -20 l 1,0,-1
EndSplineSet
Validated: 1
EndChar

StartChar: g
Encoding: 103 103 73
Width: 1170
GlyphClass: 2
Flags: W
HStem: -410 160<371 715.834> -20 160<433.542 717.507> 960 160<433.542 716.458>
VStem: 160 180<232.811 867.189> 810 180<-157.189 69 230.762 867.189>
LayerCount: 2
Fore
SplineSet
300 -410 m 1,0,-1
 300 -400 l 1,1,-1
 371 -250 l 1,2,-1
 575 -250 l 2,3,4
 673 -250 673 -250 741.5 -186.5 c 128,-1,5
 810 -123 810 -123 810 -24 c 2,6,-1
 810 69 l 1,7,8
 707 -20 707 -20 575 -20 c 0,9,10
 403 -20 403 -20 281.5 97 c 128,-1,11
 160 214 160 214 160 388 c 2,12,-1
 160 712 l 2,13,14
 160 886 160 886 281.5 1003 c 128,-1,15
 403 1120 403 1120 575 1120 c 128,-1,16
 747 1120 747 1120 868.5 1003 c 128,-1,17
 990 886 990 886 990 712 c 2,18,-1
 990 -2 l 2,19,20
 990 -176 990 -176 868.5 -293 c 128,-1,21
 747 -410 747 -410 575 -410 c 2,22,-1
 300 -410 l 1,0,-1
810 734 m 2,23,24
 810 833 810 833 741.5 896.5 c 128,-1,25
 673 960 673 960 575 960 c 128,-1,26
 477 960 477 960 408.5 896.5 c 128,-1,27
 340 833 340 833 340 734 c 2,28,-1
 340 366 l 2,29,30
 340 267 340 267 408.5 203.5 c 128,-1,31
 477 140 477 140 575 140 c 128,-1,32
 673 140 673 140 741.5 203.5 c 128,-1,33
 810 267 810 267 810 366 c 2,34,-1
 810 734 l 2,23,24
EndSplineSet
Validated: 1
EndChar

StartChar: h
Encoding: 104 104 74
Width: 1210
GlyphClass: 2
Flags: W
HStem: -20 21G<200 251.975 850 901.975> 960 160<472.493 756.458> 1510 20G<328.025 380>
VStem: 200 180<61 869.238 1031 1449> 850 180<61 867.189>
LayerCount: 2
Fore
SplineSet
200 -20 m 1,0,-1
 200 1449 l 1,1,-1
 370 1530 l 1,2,-1
 380 1530 l 1,3,-1
 380 1031 l 1,4,5
 483 1120 483 1120 615 1120 c 0,6,7
 787 1120 787 1120 908.5 1003 c 128,-1,8
 1030 886 1030 886 1030 712 c 2,9,-1
 1030 61 l 1,10,-1
 860 -20 l 1,11,-1
 850 -20 l 1,12,-1
 850 734 l 2,13,14
 850 833 850 833 781.5 896.5 c 128,-1,15
 713 960 713 960 615 960 c 128,-1,16
 517 960 517 960 448.5 896.5 c 128,-1,17
 380 833 380 833 380 734 c 2,18,-1
 380 61 l 1,19,-1
 210 -20 l 1,20,-1
 200 -20 l 1,0,-1
EndSplineSet
Validated: 1
EndChar

StartChar: i
Encoding: 105 105 75
Width: 580
GlyphClass: 2
Flags: W
HStem: -20 21G<200 251.975> 1100 20G<328.025 380> 1220 245<206.097 373.903>
VStem: 170 240<1257.13 1427.87> 200 180<61 1039>
LayerCount: 2
Fore
SplineSet
200 -20 m 1,0,-1
 200 1039 l 1,1,-1
 370 1120 l 1,2,-1
 380 1120 l 1,3,-1
 380 61 l 1,4,-1
 210 -20 l 1,5,-1
 200 -20 l 1,0,-1
290 1465 m 128,-1,7
 340 1465 340 1465 375 1429 c 128,-1,8
 410 1393 410 1393 410 1342.5 c 128,-1,9
 410 1292 410 1292 375 1256 c 128,-1,10
 340 1220 340 1220 290 1220 c 128,-1,11
 240 1220 240 1220 205 1256 c 128,-1,12
 170 1292 170 1292 170 1342.5 c 128,-1,13
 170 1393 170 1393 205 1429 c 128,-1,6
 240 1465 240 1465 290 1465 c 128,-1,7
EndSplineSet
Validated: 1
EndChar

StartChar: j
Encoding: 106 106 76
Width: 580
GlyphClass: 2
Flags: W
HStem: -410 21G<-35 51> 1100 20G<328.025 380> 1220 245<206.097 373.903>
VStem: 170 240<1257.13 1427.87> 200 180<-157.189 1039>
LayerCount: 2
Fore
SplineSet
290 1465 m 128,-1,1
 340 1465 340 1465 375 1429 c 128,-1,2
 410 1393 410 1393 410 1342.5 c 128,-1,3
 410 1292 410 1292 375 1256 c 128,-1,4
 340 1220 340 1220 290 1220 c 128,-1,5
 240 1220 240 1220 205 1256 c 128,-1,6
 170 1292 170 1292 170 1342.5 c 128,-1,7
 170 1393 170 1393 205 1429 c 128,-1,0
 240 1465 240 1465 290 1465 c 128,-1,1
-35 -410 m 1,8,-1
 -35 -400 l 1,9,-1
 41 -239 l 1,10,11
 91 -224 91 -224 132 -186 c 0,12,13
 200 -123 200 -123 200 -24 c 2,14,-1
 200 1039 l 17,15,-1
 370 1120 l 1,16,-1
 380 1120 l 9,17,-1
 380 -2 l 2,18,19
 380 -176 380 -176 258.5 -293 c 128,-1,20
 137 -410 137 -410 -35 -410 c 1,8,-1
EndSplineSet
Validated: 1
EndChar

StartChar: k
Encoding: 107 107 77
Width: 1170
GlyphClass: 2
Flags: W
HStem: -20 21G<200 251.975 830 881.975> 1100 20G<796.582 868> 1510 20G<328.025 380>
VStem: 200 180<61 553.623 711 1449> 830 180<61 547.189>
DStem2: 380 711 672 783 0.730889 0.682497<262.559 599.27>
LayerCount: 2
Fore
SplineSet
200 -20 m 1,0,-1
 200 1449 l 1,1,-1
 370 1530 l 1,2,-1
 380 1530 l 1,3,-1
 380 711 l 1,4,-1
 818 1120 l 1,5,-1
 828 1120 l 1,6,-1
 968 1050 l 1,7,-1
 672 783 l 1,8,9
 804 765 804 765 888 683 c 0,10,11
 1010 566 1010 566 1010 392 c 2,12,-1
 1010 61 l 1,13,-1
 840 -20 l 1,14,-1
 830 -20 l 1,15,-1
 830 414 l 2,16,17
 830 513 830 513 761.5 576.5 c 128,-1,18
 693 640 693 640 600 640 c 128,-1,19
 507 640 507 640 443.5 576.5 c 128,-1,20
 380 513 380 513 380 414 c 2,21,-1
 380 61 l 1,22,-1
 210 -20 l 1,23,-1
 200 -20 l 1,0,-1
EndSplineSet
Validated: 1
EndChar

StartChar: l
Encoding: 108 108 78
Width: 580
GlyphClass: 2
Flags: W
HStem: -20 21G<200 251.975> 1510 20G<328.025 380>
VStem: 200 180<61 1449>
LayerCount: 2
Fore
SplineSet
200 -20 m 1,0,-1
 200 1449 l 1,1,-1
 370 1530 l 1,2,-1
 380 1530 l 1,3,-1
 380 61 l 1,4,-1
 210 -20 l 1,5,-1
 200 -20 l 1,0,-1
EndSplineSet
Validated: 1
EndChar

StartChar: m
Encoding: 109 109 79
Width: 1840
GlyphClass: 2
Flags: W
HStem: -20 21G<180 231.975 830 881.975 1480 1531.98> 960 160<453.542 737.999 1103.92 1386.54>
VStem: 180 180<61 867.189> 830 180<61 869.238> 1480 180<61 867.189>
CounterMasks: 1 38
LayerCount: 2
Fore
SplineSet
180 -20 m 1,0,-1
 180 712 l 2,1,2
 180 886 180 886 301.5 1003 c 128,-1,3
 423 1120 423 1120 595 1120 c 0,4,5
 764 1120 764 1120 888 1003 c 0,6,7
 905 987 905 987 920 969 c 1,8,9
 936 986 936 986 952 1003 c 0,10,11
 1074 1120 1074 1120 1245.5 1120 c 128,-1,12
 1417 1120 1417 1120 1538.5 1003 c 128,-1,13
 1660 886 1660 886 1660 712 c 2,14,-1
 1660 61 l 1,15,-1
 1490 -20 l 1,16,-1
 1480 -20 l 1,17,-1
 1480 734 l 2,18,19
 1480 833 1480 833 1411.5 896.5 c 128,-1,20
 1343 960 1343 960 1245 960 c 128,-1,21
 1147 960 1147 960 1078.5 896.5 c 128,-1,22
 1010 833 1010 833 1010 734 c 2,23,-1
 1010 61 l 1,24,-1
 840 -20 l 1,25,-1
 830 -20 l 1,26,-1
 830 734 l 2,27,28
 830 833 830 833 761.5 896.5 c 128,-1,29
 693 960 693 960 595 960 c 128,-1,30
 497 960 497 960 428.5 896.5 c 128,-1,31
 360 833 360 833 360 734 c 2,32,-1
 360 61 l 1,33,-1
 190 -20 l 1,34,-1
 180 -20 l 1,0,-1
EndSplineSet
Validated: 1
EndChar

StartChar: n
Encoding: 110 110 80
Width: 1190
GlyphClass: 2
Flags: W
HStem: -20 21G<180 231.975 830 881.975> 960 160<453.542 736.458>
VStem: 180 180<61 867.189> 830 180<61 867.189>
LayerCount: 2
Fore
SplineSet
180 -20 m 9,0,-1
 180 712 l 2,1,2
 180 886 180 886 301.5 1003 c 128,-1,3
 423 1120 423 1120 595 1120 c 128,-1,4
 767 1120 767 1120 888.5 1003 c 128,-1,5
 1010 886 1010 886 1010 712 c 2,6,-1
 1010 61 l 17,7,-1
 840 -20 l 1,8,-1
 830 -20 l 9,9,-1
 830 734 l 2,10,11
 830 833 830 833 761.5 896.5 c 128,-1,12
 693 960 693 960 595 960 c 128,-1,13
 497 960 497 960 428.5 896.5 c 128,-1,14
 360 833 360 833 360 734 c 2,15,-1
 360 61 l 17,16,-1
 190 -20 l 1,17,-1
 180 -20 l 9,0,-1
EndSplineSet
Validated: 1
EndChar

StartChar: o
Encoding: 111 111 81
Width: 1150
GlyphClass: 2
Flags: W
HStem: -20 160<433.542 716.458> 960 160<433.542 716.458>
VStem: 160 180<232.811 867.189> 810 180<232.811 867.189>
LayerCount: 2
Fore
SplineSet
575 140 m 128,-1,1
 673 140 673 140 741.5 203.5 c 128,-1,2
 810 267 810 267 810 366 c 2,3,-1
 810 734 l 2,4,5
 810 833 810 833 741.5 896.5 c 128,-1,6
 673 960 673 960 575 960 c 128,-1,7
 477 960 477 960 408.5 896.5 c 128,-1,8
 340 833 340 833 340 734 c 2,9,-1
 340 366 l 2,10,11
 340 267 340 267 408.5 203.5 c 128,-1,0
 477 140 477 140 575 140 c 128,-1,1
575 -20 m 128,-1,13
 403 -20 403 -20 281.5 97 c 128,-1,14
 160 214 160 214 160 388 c 2,15,-1
 160 712 l 2,16,17
 160 886 160 886 281.5 1003 c 128,-1,18
 403 1120 403 1120 575 1120 c 128,-1,19
 747 1120 747 1120 868.5 1003 c 128,-1,20
 990 886 990 886 990 712 c 2,21,-1
 990 388 l 2,22,23
 990 214 990 214 868.5 97 c 128,-1,12
 747 -20 747 -20 575 -20 c 128,-1,13
EndSplineSet
Validated: 1
EndChar

StartChar: p
Encoding: 112 112 82
Width: 1170
GlyphClass: 2
Flags: W
HStem: -430 21G<180 231.975> -20 160<452.493 736.458> 960 160<453.542 736.458>
VStem: 180 180<-349 69 230.762 867.189> 830 180<232.811 867.189>
LayerCount: 2
Fore
SplineSet
180 -430 m 1,0,-1
 180 712 l 2,1,2
 180 886 180 886 301.5 1003 c 128,-1,3
 423 1120 423 1120 595 1120 c 128,-1,4
 767 1120 767 1120 888.5 1003 c 128,-1,5
 1010 886 1010 886 1010 712 c 2,6,-1
 1010 388 l 2,7,8
 1010 214 1010 214 888.5 97 c 128,-1,9
 767 -20 767 -20 595 -20 c 0,10,11
 463 -20 463 -20 360 69 c 1,12,-1
 360 -349 l 1,13,-1
 190 -430 l 1,14,-1
 180 -430 l 1,0,-1
595 140 m 128,-1,16
 693 140 693 140 761.5 203.5 c 128,-1,17
 830 267 830 267 830 366 c 2,18,-1
 830 734 l 2,19,20
 830 833 830 833 761.5 896.5 c 128,-1,21
 693 960 693 960 595 960 c 128,-1,22
 497 960 497 960 428.5 896.5 c 128,-1,23
 360 833 360 833 360 734 c 2,24,-1
 360 366 l 2,25,26
 360 267 360 267 428.5 203.5 c 128,-1,15
 497 140 497 140 595 140 c 128,-1,16
EndSplineSet
Validated: 1
EndChar

StartChar: q
Encoding: 113 113 83
Width: 1170
GlyphClass: 2
Flags: W
HStem: -430 21G<810 861.975> -20 160<433.542 717.507> 960 160<433.542 716.458>
VStem: 160 180<232.811 867.189> 810 180<-349 69 230.762 867.189>
LayerCount: 2
Fore
SplineSet
810 -430 m 1,0,-1
 810 69 l 1,1,2
 707 -20 707 -20 575 -20 c 0,3,4
 403 -20 403 -20 281.5 97 c 128,-1,5
 160 214 160 214 160 388 c 2,6,-1
 160 712 l 2,7,8
 160 886 160 886 281.5 1003 c 128,-1,9
 403 1120 403 1120 575 1120 c 128,-1,10
 747 1120 747 1120 868.5 1003 c 128,-1,11
 990 886 990 886 990 712 c 2,12,-1
 990 -349 l 1,13,-1
 820 -430 l 1,14,-1
 810 -430 l 1,0,-1
575 140 m 128,-1,16
 673 140 673 140 741.5 203.5 c 128,-1,17
 810 267 810 267 810 366 c 2,18,-1
 810 734 l 2,19,20
 810 833 810 833 741.5 896.5 c 128,-1,21
 673 960 673 960 575 960 c 128,-1,22
 477 960 477 960 408.5 896.5 c 128,-1,23
 340 833 340 833 340 734 c 2,24,-1
 340 366 l 2,25,26
 340 267 340 267 408.5 203.5 c 128,-1,15
 477 140 477 140 575 140 c 128,-1,16
EndSplineSet
Validated: 1
EndChar

StartChar: r
Encoding: 114 114 84
Width: 780
GlyphClass: 2
Flags: W
HStem: -20 21G<180 231.975> 940 160<454.166 699>
VStem: 180 180<61 847.189>
LayerCount: 2
Fore
SplineSet
180 -20 m 9,0,-1
 180 692 l 2,1,2
 180 866 180 866 301.5 983 c 128,-1,3
 423 1100 423 1100 595 1100 c 2,4,-1
 770 1100 l 1,5,-1
 770 1090 l 1,6,-1
 699 940 l 1,7,-1
 595 940 l 2,8,9
 497 940 497 940 428.5 876.5 c 128,-1,10
 360 813 360 813 360 714 c 2,11,-1
 360 61 l 17,12,-1
 190 -20 l 1,13,-1
 180 -20 l 9,0,-1
EndSplineSet
Validated: 1
EndChar

StartChar: t
Encoding: 116 116 85
Width: 780
GlyphClass: 2
Flags: W
HStem: -20 21G<300 351.975> 940 160<81 300 480 699> 1510 20G<428.025 480>
VStem: 300 180<61 940 1100 1449>
LayerCount: 2
Fore
SplineSet
300 -20 m 1,0,-1
 300 940 l 1,1,-1
 10 940 l 1,2,-1
 10 950 l 1,3,-1
 81 1100 l 1,4,-1
 300 1100 l 1,5,-1
 300 1449 l 1,6,-1
 470 1530 l 1,7,-1
 480 1530 l 1,8,-1
 480 1100 l 1,9,-1
 770 1100 l 1,10,-1
 770 1090 l 1,11,-1
 699 940 l 1,12,-1
 480 940 l 1,13,-1
 480 61 l 1,14,-1
 310 -20 l 1,15,-1
 300 -20 l 1,0,-1
EndSplineSet
Validated: 1
EndChar

StartChar: u
Encoding: 117 117 86
Width: 1190
GlyphClass: 2
Flags: W
HStem: -20 160<453.542 736.458> 1100 20G<308.025 360 958.025 1010>
VStem: 180 180<232.811 1039> 830 180<232.811 1039>
LayerCount: 2
Fore
SplineSet
595 -20 m 128,-1,1
 423 -20 423 -20 301.5 97 c 128,-1,2
 180 214 180 214 180 388 c 2,3,-1
 180 1039 l 17,4,-1
 350 1120 l 1,5,-1
 360 1120 l 9,6,-1
 360 366 l 2,7,8
 360 267 360 267 428.5 203.5 c 128,-1,9
 497 140 497 140 595 140 c 128,-1,10
 693 140 693 140 761.5 203.5 c 128,-1,11
 830 267 830 267 830 366 c 2,12,-1
 830 1039 l 17,13,-1
 1000 1120 l 1,14,-1
 1010 1120 l 9,15,-1
 1010 388 l 2,16,17
 1010 214 1010 214 888.5 97 c 128,-1,0
 767 -20 767 -20 595 -20 c 128,-1,1
EndSplineSet
Validated: 1
EndChar

StartChar: v
Encoding: 118 118 87
Width: 950
GlyphClass: 2
Flags: W
HStem: -20 21G<383.765 443.133> 1100 20G<116.082 175.129 781.518 840.714>
DStem2: 168 1120 5 1047 0.340186 -0.940358<13.1959 902.381> 471 270 559 55 0.361677 0.932303<0 898.632>
LayerCount: 2
Fore
SplineSet
391 -20 m 1,0,-1
 5 1047 l 1,1,-1
 158 1120 l 1,2,-1
 168 1120 l 1,3,-1
 471 270 l 1,4,-1
 789 1120 l 1,5,-1
 799 1120 l 1,6,-1
 945 1050 l 1,7,-1
 559 55 l 1,8,-1
 401 -20 l 1,9,-1
 391 -20 l 1,0,-1
EndSplineSet
Validated: 1
EndChar

StartChar: w
Encoding: 119 119 88
Width: 1840
GlyphClass: 2
Flags: W
HStem: -20 160<453.463 736.085 1102 1386.46> 1100 20G<308.025 360 958.025 1010 1608.02 1660>
VStem: 180 180<232.811 1039> 830 180<230.762 1039> 1480 180<232.811 1039>
CounterMasks: 1 38
LayerCount: 2
Fore
SplineSet
594.5 -20 m 128,-1,1
 423 -20 423 -20 301.5 97 c 128,-1,2
 180 214 180 214 180 388 c 2,3,-1
 180 1039 l 1,4,-1
 350 1120 l 1,5,-1
 360 1120 l 1,6,-1
 360 366 l 2,7,8
 360 267 360 267 428.5 203.5 c 128,-1,9
 497 140 497 140 595 140 c 128,-1,10
 693 140 693 140 761.5 203.5 c 128,-1,11
 830 267 830 267 830 366 c 2,12,-1
 830 1039 l 1,13,-1
 1000 1120 l 1,14,-1
 1010 1120 l 1,15,-1
 1010 366 l 2,16,17
 1010 267 1010 267 1078.5 203.5 c 128,-1,18
 1147 140 1147 140 1245 140 c 128,-1,19
 1343 140 1343 140 1411.5 203.5 c 128,-1,20
 1480 267 1480 267 1480 366 c 2,21,-1
 1480 1039 l 1,22,-1
 1650 1120 l 1,23,-1
 1660 1120 l 1,24,-1
 1660 388 l 2,25,26
 1660 214 1660 214 1538.5 97 c 128,-1,27
 1417 -20 1417 -20 1245 -20 c 0,28,29
 1076 -20 1076 -20 952 97 c 0,30,31
 935 113 935 113 920 131 c 1,32,33
 904 114 904 114 888 97 c 0,34,0
 766 -20 766 -20 594.5 -20 c 128,-1,1
EndSplineSet
Validated: 1
EndChar

StartChar: x
Encoding: 120 120 89
Width: 886
GlyphClass: 2
Flags: W
HStem: -20 21G<126.033 190.44 682.703 747.09> 1094 20G<140.235 204.278 694.578 758.613>
DStem2: 192 1114 40 1046 0.522581 -0.85259<0 489.311 739.009 1229.69> 40 41 178 -20 0.527934 0.849285<21.0485 513.313 772.528 1263.42>
LayerCount: 2
Fore
SplineSet
178 -20 m 1,0,-1
 168 -20 l 1,1,-1
 40 41 l 1,2,-1
 351 541 l 1,3,-1
 40 1046 l 1,4,-1
 182 1114 l 1,5,-1
 192 1114 l 1,6,-1
 448 697 l 1,7,-1
 707 1114 l 1,8,-1
 717 1114 l 1,9,-1
 846 1052 l 1,10,-1
 535 554 l 1,11,-1
 846 47 l 1,12,-1
 705 -20 l 1,13,-1
 695 -20 l 1,14,-1
 438 398 l 1,15,-1
 178 -20 l 1,0,-1
EndSplineSet
Validated: 1
EndChar

StartChar: y
Encoding: 121 121 90
Width: 1210
GlyphClass: 2
Flags: W
HStem: -410 160<391 735.834> -20 160<453.542 737.507> 1100 20G<308.025 360 958.025 1010>
VStem: 180 180<232.811 1039> 830 180<-157.189 69 230.762 1039>
LayerCount: 2
Fore
SplineSet
320 -410 m 1,0,-1
 320 -400 l 1,1,-1
 391 -250 l 1,2,-1
 595 -250 l 2,3,4
 693 -250 693 -250 761.5 -186.5 c 128,-1,5
 830 -123 830 -123 830 -24 c 2,6,-1
 830 69 l 1,7,8
 727 -20 727 -20 595 -20 c 0,9,10
 423 -20 423 -20 301.5 97 c 128,-1,11
 180 214 180 214 180 388 c 2,12,-1
 180 1039 l 1,13,-1
 350 1120 l 1,14,-1
 360 1120 l 1,15,-1
 360 366 l 2,16,17
 360 267 360 267 428.5 203.5 c 128,-1,18
 497 140 497 140 595 140 c 128,-1,19
 693 140 693 140 761.5 203.5 c 128,-1,20
 830 267 830 267 830 366 c 2,21,-1
 830 1039 l 1,22,-1
 1000 1120 l 1,23,-1
 1010 1120 l 1,24,-1
 1010 -2 l 2,25,26
 1010 -176 1010 -176 888.5 -293 c 128,-1,27
 767 -410 767 -410 595 -410 c 2,28,-1
 320 -410 l 1,0,-1
EndSplineSet
Validated: 1
EndChar

StartChar: z
Encoding: 122 122 91
Width: 850
GlyphClass: 2
Flags: W
HStem: 0 160<309 739> 940 160<141 542>
DStem2: 40 10 309 160 0.475002 0.879985<259.773 1056.84>
LayerCount: 2
Fore
SplineSet
40 0 m 1,0,-1
 40 10 l 1,1,-1
 542 940 l 1,2,-1
 70 940 l 1,3,-1
 70 950 l 1,4,-1
 141 1100 l 1,5,-1
 810 1100 l 1,6,-1
 810 1090 l 1,7,-1
 309 160 l 1,8,-1
 810 160 l 1,9,-1
 810 150 l 1,10,-1
 739 0 l 1,11,-1
 40 0 l 1,0,-1
EndSplineSet
Validated: 1
EndChar

StartChar: braceleft
Encoding: 123 123 92
Width: 830
GlyphClass: 2
Flags: W
HStem: -240 180<614.353 780> 665 180<130 274> 1570 180<613.847 780>
VStem: 274 200<76.4529 665 845 1433.55>
CounterMasks: 1 e0
LayerCount: 2
Fore
SplineSet
780 -240 m 1,0,1
 570 -240 570 -240 422 -99 c 128,-1,2
 274 42 274 42 274 254 c 2,3,-1
 274 665 l 1,4,-1
 50 665 l 1,5,-1
 50 675 l 1,6,-1
 130 845 l 1,7,-1
 274 845 l 1,8,-1
 274 1256 l 2,9,10
 274 1468 274 1468 422 1609 c 128,-1,11
 570 1750 570 1750 780 1750 c 1,12,-1
 780 1570 l 1,13,14
 654 1570 654 1570 564 1490 c 128,-1,15
 474 1410 474 1410 474 1282 c 2,16,-1
 474 228 l 2,17,18
 474 101 474 101 564 20.5 c 128,-1,19
 654 -60 654 -60 780 -60 c 1,20,-1
 780 -240 l 1,0,1
EndSplineSet
Validated: 1
EndChar

StartChar: bar
Encoding: 124 124 93
Width: 650
GlyphClass: 2
Flags: W
VStem: 250 150<-134 1644>
LayerCount: 2
Fore
SplineSet
250 -200 m 1,0,-1
 250 1644 l 1,1,-1
 390 1710 l 1,2,-1
 400 1710 l 1,3,-1
 400 -134 l 1,4,-1
 260 -200 l 1,5,-1
 250 -200 l 1,0,-1
EndSplineSet
Validated: 1
EndChar

StartChar: braceright
Encoding: 125 125 94
Width: 830
GlyphClass: 2
Flags: W
HStem: -240 180<50 216.153> 665 180<556 700> 1570 180<50 215.647>
VStem: 356 200<76.4529 665 845 1433.55>
CounterMasks: 1 e0
LayerCount: 2
Fore
SplineSet
50 -240 m 1,0,-1
 50 -60 l 1,1,2
 176 -60 176 -60 266 20 c 128,-1,3
 356 100 356 100 356 228 c 2,4,-1
 356 1282 l 2,5,6
 356 1409 356 1409 266 1489.5 c 128,-1,7
 176 1570 176 1570 50 1570 c 1,8,-1
 50 1750 l 1,9,10
 260 1750 260 1750 408 1609 c 128,-1,11
 556 1468 556 1468 556 1256 c 2,12,-1
 556 845 l 1,13,-1
 780 845 l 1,14,-1
 780 835 l 1,15,-1
 700 665 l 1,16,-1
 556 665 l 1,17,-1
 556 254 l 2,18,19
 556 42 556 42 408 -99 c 128,-1,20
 260 -240 260 -240 50 -240 c 1,0,-1
EndSplineSet
Validated: 1
EndChar

StartChar: asciitilde
Encoding: 126 126 95
Width: 1138
GlyphClass: 2
Flags: W
HStem: 576 147<657.304 812.171> 790 147<325.829 480.696>
VStem: 150 157<647 774.039> 831 157<738.961 866>
LayerCount: 2
Fore
SplineSet
988 937 m 1,0,1
 988 576 988 576 732 576 c 0,2,3
 615 576 615 576 517 703 c 0,4,5
 450 790 450 790 400 790 c 0,6,7
 307 790 307 790 307 647 c 1,8,-1
 160 576 l 1,9,-1
 150 576 l 1,10,11
 150 937 150 937 406 937 c 0,12,13
 523 937 523 937 621 810 c 0,14,15
 688 723 688 723 738 723 c 0,16,17
 831 723 831 723 831 866 c 1,18,-1
 978 937 l 1,19,-1
 988 937 l 1,0,1
EndSplineSet
Validated: 1
EndChar

StartChar: exclamdown
Encoding: 161 161 97
Width: 600
GlyphClass: 2
Flags: W
HStem: -430 21G<200 252.222> 875 245<216.097 383.903>
VStem: 180 240<912.129 1082.87> 200 200<-340 610>
LayerCount: 2
Fore
SplineSet
300 1120 m 128,-1,1
 350 1120 350 1120 385 1084 c 128,-1,2
 420 1048 420 1048 420 997.5 c 128,-1,3
 420 947 420 947 385 911 c 128,-1,4
 350 875 350 875 300 875 c 128,-1,5
 250 875 250 875 215 911 c 128,-1,6
 180 947 180 947 180 997.5 c 128,-1,7
 180 1048 180 1048 215 1084 c 128,-1,0
 250 1120 250 1120 300 1120 c 128,-1,1
210 -430 m 1,8,-1
 200 -430 l 1,9,-1
 200 610 l 1,10,-1
 390 700 l 1,11,-1
 400 700 l 1,12,-1
 400 -340 l 1,13,-1
 210 -430 l 1,8,-1
EndSplineSet
Validated: 1
EndChar

StartChar: cent
Encoding: 162 162 98
Width: 1070
GlyphClass: 2
Flags: W
VStem: 160 180<232.811 867.189> 525 100<-78 -10.5254 145 956 1110.53 1178>
LayerCount: 2
Fore
SplineSet
535 -120 m 1,0,-1
 525 -120 l 1,1,-1
 525 -17 l 1,2,3
 386 -2 386 -2 282 97 c 0,4,5
 160 214 160 214 160 388 c 2,6,-1
 160 712 l 2,7,8
 160 886 160 886 282 1003 c 0,9,10
 385 1103 385 1103 525 1117 c 1,11,-1
 525 1178 l 1,12,-1
 615 1220 l 1,13,-1
 625 1220 l 1,14,-1
 625 1117 l 1,15,16
 763 1102 763 1102 868 1003 c 0,17,18
 954 921 954 921 979 810 c 1,19,-1
 820 734 l 1,20,-1
 810 734 l 1,21,22
 810 832 810 832 742 896 c 0,23,24
 692 943 692 943 625 956 c 1,25,-1
 625 145 l 1,26,27
 691 157 691 157 742 204 c 0,28,29
 786 245 786 245 802 303 c 1,30,-1
 980 388 l 1,31,-1
 990 388 l 1,32,33
 990 214 990 214 868 97 c 0,34,35
 765 -3 765 -3 625 -17 c 1,36,-1
 625 -78 l 1,37,-1
 535 -120 l 1,0,-1
525 956 m 1,38,39
 458 944 458 944 408 896 c 0,40,41
 340 832 340 832 340 734 c 2,42,-1
 340 366 l 2,43,44
 340 268 340 268 408 204 c 0,45,46
 458 157 458 157 525 144 c 1,47,-1
 525 956 l 1,38,39
EndSplineSet
Validated: 1
EndChar

StartChar: sterling
Encoding: 163 163 99
Width: 1335
GlyphClass: 2
Flags: W
HStem: 0 180<230 300 500 1105> 600 180<231 300 500 835> 1372 158<578.194 849.346>
VStem: 300 200<180 600 780 1290.81> 930 193<1217.18 1295.6>
LayerCount: 2
Fore
SplineSet
150 0 m 1,0,-1
 150 10 l 1,1,-1
 230 180 l 1,2,-1
 300 180 l 1,3,-1
 300 600 l 1,4,-1
 151 600 l 1,5,-1
 151 610 l 1,6,-1
 231 780 l 1,7,-1
 300 780 l 1,8,-1
 300 1137 l 2,9,10
 300 1334 300 1334 424 1434 c 0,11,12
 542 1530 542 1530 715 1530 c 0,13,14
 883 1530 883 1530 1006 1434 c 0,15,16
 1101 1360 1101 1360 1123 1224 c 1,17,-1
 940 1137 l 1,18,-1
 930 1137 l 1,19,20
 930 1262 930 1262 864.5 1317 c 128,-1,21
 799 1372 799 1372 715 1372 c 0,22,23
 620 1372 620 1372 560 1311 c 128,-1,24
 500 1250 500 1250 500 1137 c 2,25,-1
 500 780 l 1,26,-1
 915 780 l 1,27,-1
 915 770 l 1,28,-1
 835 600 l 1,29,-1
 500 600 l 1,30,-1
 500 180 l 1,31,-1
 1185 180 l 1,32,-1
 1185 170 l 1,33,-1
 1105 0 l 1,34,-1
 150 0 l 1,0,-1
EndSplineSet
Validated: 1
EndChar

StartChar: currency
Encoding: 164 164 100
Width: 1395
GlyphClass: 2
Flags: W
HStem: 241 163<542.036 850.04> 1106 163<543.21 849.165>
VStem: 192 192<573.183 936.268> 1008 192<572.732 935.857>
LayerCount: 2
Fore
SplineSet
696 1106 m 128,-1,1
 566 1106 566 1106 475 1002.5 c 128,-1,2
 384 899 384 899 384 755 c 128,-1,3
 384 611 384 611 475 507.5 c 128,-1,4
 566 404 566 404 696 404 c 128,-1,5
 826 404 826 404 917 507.5 c 128,-1,6
 1008 611 1008 611 1008 755 c 128,-1,7
 1008 899 1008 899 917 1002.5 c 128,-1,0
 826 1106 826 1106 696 1106 c 128,-1,1
696 1269 m 0,8,9
 858 1269 858 1269 982 1179 c 1,10,-1
 1059 1255 l 1,11,-1
 1238 1191 l 1,12,-1
 1245 1184 l 1,13,-1
 1110 1049 l 1,14,15
 1200 921 1200 921 1200 755 c 0,16,17
 1200 591 1200 591 1112 463 c 1,18,-1
 1245 330 l 1,19,-1
 1238 323 l 1,20,-1
 1059 259 l 1,21,-1
 985 332 l 1,22,23
 860 241 860 241 696 241 c 0,24,25
 527 241 527 241 399 338 c 1,26,-1
 336 275 l 1,27,-1
 157 339 l 1,28,-1
 150 346 l 1,29,-1
 275 471 l 1,30,31
 192 596 192 596 192 755 c 0,32,33
 192 922 192 922 283 1050 c 1,34,-1
 150 1184 l 1,35,-1
 157 1191 l 1,36,-1
 335 1255 l 1,37,-1
 411 1180 l 1,38,39
 535 1269 535 1269 696 1269 c 0,8,9
EndSplineSet
Validated: 1
EndChar

StartChar: yen
Encoding: 165 165 101
Width: 1310
GlyphClass: 2
Flags: W
HStem: -20 21G<555 607.222> 114 120<342 555 755 968> 314 120<342 555 755 968> 438 172<498.222 555 755 811.048> 1510 20G<307.778 360 1097.78 1150>
VStem: 160 200<742.395 1440> 555 200<70 114 234 314 434 447.575> 950 200<746.453 1440>
CounterMasks: 1 07
LayerCount: 2
Fore
SplineSet
565 -20 m 1,0,-1
 555 -20 l 1,1,-1
 555 114 l 1,2,-1
 290 114 l 1,3,-1
 290 124 l 1,4,-1
 342 234 l 1,5,-1
 555 234 l 1,6,-1
 555 314 l 1,7,-1
 290 314 l 1,8,-1
 290 324 l 1,9,-1
 342 434 l 1,10,-1
 555 434 l 1,11,-1
 555 438 l 1,12,13
 420 462 420 462 307 571 c 0,14,15
 160 712 160 712 160 924 c 2,16,-1
 160 1440 l 1,17,-1
 350 1530 l 1,18,-1
 360 1530 l 1,19,-1
 360 898 l 2,20,21
 360 771 360 771 449 690.5 c 128,-1,22
 538 610 538 610 654.5 610 c 128,-1,23
 771 610 771 610 860.5 690.5 c 128,-1,24
 950 771 950 771 950 898 c 2,25,-1
 950 1440 l 1,26,-1
 1140 1530 l 1,27,-1
 1150 1530 l 1,28,-1
 1150 924 l 2,29,30
 1150 712 1150 712 1002 571 c 0,31,32
 890 463 890 463 755 439 c 1,33,-1
 755 434 l 1,34,-1
 1020 434 l 1,35,-1
 1020 424 l 1,36,-1
 968 314 l 1,37,-1
 755 314 l 1,38,-1
 755 234 l 1,39,-1
 1020 234 l 1,40,-1
 1020 224 l 1,41,-1
 968 114 l 1,42,-1
 755 114 l 1,43,-1
 755 70 l 1,44,-1
 565 -20 l 1,0,-1
EndSplineSet
Validated: 1
EndChar

StartChar: brokenbar
Encoding: 166 166 102
Width: 650
GlyphClass: 2
Flags: W
VStem: 250 150<-134 587 915 1644>
LayerCount: 2
Fore
SplineSet
250 -200 m 1,0,-1
 250 587 l 1,1,-1
 390 653 l 1,2,-1
 400 653 l 1,3,-1
 400 -134 l 1,4,-1
 260 -200 l 1,5,-1
 250 -200 l 1,0,-1
390 1710 m 1,6,-1
 400 1710 l 1,7,-1
 400 915 l 1,8,-1
 260 849 l 1,9,-1
 250 849 l 1,10,-1
 250 1644 l 1,11,-1
 390 1710 l 1,6,-1
EndSplineSet
Validated: 1
EndChar

StartChar: section
Encoding: 167 167 103
Width: 1090
GlyphClass: 2
Flags: W
HStem: -20 150<434.44 655.742> 1380 150<434.258 655.56>
VStem: 150 180<643.442 888.187> 218 173<1145.81 1341.27> 699 173<168.733 364.194> 760 180<621.813 866.558>
LayerCount: 2
Fore
SplineSet
540 -20 m 0,0,1
 403 -20 403 -20 312 64 c 0,2,3
 246 125 246 125 224 209 c 1,4,-1
 384 285 l 1,5,-1
 394 285 l 1,6,7
 394 214 394 214 435 172 c 128,-1,8
 476 130 476 130 543 130 c 0,9,10
 615 130 615 130 654 168 c 0,11,12
 699 211 699 211 699 273 c 0,13,14
 699 392 699 392 511 413 c 0,15,16
 330 433 330 433 246 519 c 0,17,18
 150 616 150 616 150 751 c 0,19,20
 150 895 150 895 248 995 c 1,21,-1
 390 906 l 1,22,23
 330 846 330 846 330 758 c 0,24,25
 330 601 330 601 544 577 c 0,26,27
 692 560 692 560 776 490 c 0,28,29
 872 409 872 409 872 288 c 0,30,31
 872 147 872 147 772 62 c 0,32,33
 676 -20 676 -20 540 -20 c 0,0,1
550 1530 m 0,34,35
 687 1530 687 1530 778 1446 c 0,36,37
 844 1385 844 1385 866 1301 c 1,38,-1
 706 1225 l 1,39,-1
 696 1225 l 1,40,41
 696 1296 696 1296 655 1338 c 128,-1,42
 614 1380 614 1380 547 1380 c 0,43,44
 475 1380 475 1380 436 1342 c 0,45,46
 391 1299 391 1299 391 1237 c 0,47,48
 391 1118 391 1118 579 1097 c 0,49,50
 760 1077 760 1077 844 991 c 0,51,52
 940 894 940 894 940 759 c 0,53,54
 940 615 940 615 842 515 c 1,55,-1
 700 604 l 1,56,57
 760 664 760 664 760 752 c 0,58,59
 760 909 760 909 546 933 c 0,60,61
 398 950 398 950 314 1020 c 0,62,63
 218 1101 218 1101 218 1222 c 0,64,65
 218 1363 218 1363 318 1448 c 0,66,67
 414 1530 414 1530 550 1530 c 0,34,35
EndSplineSet
Validated: 1
EndChar

StartChar: dieresis
Encoding: 168 168 104
Width: 600
GlyphClass: 2
Flags: W
HStem: 1230 227<84.0344 239.966 361.004 516.996>
VStem: 50 224<1264.55 1422.45> 328 222<1265.07 1422.93>
LayerCount: 2
Fore
SplineSet
439 1458 m 128,-1,1
 486 1458 486 1458 518 1424 c 128,-1,2
 550 1390 550 1390 550 1344 c 128,-1,3
 550 1298 550 1298 518 1264 c 128,-1,4
 486 1230 486 1230 439 1230 c 128,-1,5
 392 1230 392 1230 360 1264 c 128,-1,6
 328 1298 328 1298 328 1344 c 128,-1,7
 328 1390 328 1390 360 1424 c 128,-1,0
 392 1458 392 1458 439 1458 c 128,-1,1
162 1457 m 128,-1,9
 208 1457 208 1457 241 1423.5 c 128,-1,10
 274 1390 274 1390 274 1343.5 c 128,-1,11
 274 1297 274 1297 241 1263.5 c 128,-1,12
 208 1230 208 1230 162 1230 c 128,-1,13
 116 1230 116 1230 83 1263.5 c 128,-1,14
 50 1297 50 1297 50 1343.5 c 128,-1,15
 50 1390 50 1390 83 1423.5 c 128,-1,8
 116 1457 116 1457 162 1457 c 128,-1,9
EndSplineSet
Validated: 1
EndChar

StartChar: copyright
Encoding: 169 169 105
Width: 1401
GlyphClass: 2
Flags: W
HStem: 386 48<545.181 850.676> 547 130<609.748 801.814> 1229 131<608.346 805.899> 1478 52<544.168 856.773>
VStem: 150 50<794.694 1125.05> 434 140<713.098 1193.93> 1200 51<785.868 1126.58>
LayerCount: 2
Fore
SplineSet
708 1360 m 0,0,1
 824 1360 824 1360 900 1285 c 0,2,3
 959 1227 959 1227 978 1138 c 1,4,-1
 850 1086 l 1,5,-1
 840 1086 l 1,6,-1
 840 1106 l 2,7,8
 840 1159 840 1159 802 1194 c 128,-1,9
 764 1229 764 1229 708 1229 c 0,10,11
 650 1229 650 1229 612 1195 c 128,-1,12
 574 1161 574 1161 574 1106 c 2,13,-1
 574 801 l 2,14,15
 574 747 574 747 613 712 c 128,-1,16
 652 677 652 677 707 677 c 0,17,18
 761 677 761 677 796 707 c 0,19,20
 824 731 824 731 840 781 c 1,21,-1
 970 833 l 1,22,-1
 980 833 l 1,23,-1
 980 813 l 2,24,25
 980 699 980 699 900 623 c 128,-1,26
 820 547 820 547 707 547 c 128,-1,27
 594 547 594 547 514 623 c 128,-1,28
 434 699 434 699 434 812 c 2,29,-1
 434 1095 l 2,30,31
 434 1211 434 1211 514 1285 c 0,32,33
 596 1360 596 1360 708 1360 c 0,0,1
701 1530 m 0,34,35
 943 1530 943 1530 1099 1357 c 0,36,37
 1251 1188 1251 1188 1251 953 c 0,38,39
 1251 701 1251 701 1090 549 c 0,40,41
 919 386 919 386 699 386 c 0,42,43
 476 386 476 386 311 549 c 0,44,45
 150 708 150 708 150 953 c 0,46,47
 150 1197 150 1197 308 1362 c 0,48,49
 469 1530 469 1530 701 1530 c 0,34,35
699 1478 m 0,50,51
 499 1478 499 1478 350 1330 c 0,52,53
 200 1181 200 1181 200 953 c 0,54,55
 200 750 200 750 347 587 c 0,56,57
 485 434 485 434 701 434 c 0,58,59
 902 434 902 434 1054 587 c 0,60,61
 1200 734 1200 734 1200 953 c 0,62,63
 1200 1185 1200 1185 1056 1327 c 0,64,65
 903 1478 903 1478 699 1478 c 0,50,51
EndSplineSet
Validated: 1
EndChar

StartChar: ordfeminine
Encoding: 170 170 106
Width: 554
GlyphClass: 2
Flags: W
HStem: 790 120<102 452> 959 115<193.033 346.631> 1262 118<192.102 347.344> 1449 121<189 330.607>
VStem: 50 122<1093.79 1242.67> 361 130<1100.82 1236.18 1356 1422.7>
LayerCount: 2
Fore
SplineSet
268.5 1262 m 128,-1,1
 227 1262 227 1262 199 1237 c 0,2,3
 172 1210 172 1210 172 1167 c 128,-1,4
 172 1124 172 1124 200 1099 c 128,-1,5
 228 1074 228 1074 269 1074 c 128,-1,6
 310 1074 310 1074 340 1100 c 0,7,8
 368 1126 368 1126 368 1168.5 c 128,-1,9
 368 1211 368 1211 340 1237 c 0,10,0
 310 1262 310 1262 268.5 1262 c 128,-1,1
371 949 m 1,11,-1
 361 949 l 1,12,-1
 361 983 l 1,13,14
 318 959 318 959 262 959 c 0,15,16
 157 959 157 959 103.5 1021.5 c 128,-1,17
 50 1084 50 1084 50 1171 c 128,-1,18
 50 1258 50 1258 111.5 1319 c 128,-1,19
 173 1380 173 1380 246 1380 c 128,-1,20
 319 1380 319 1380 361 1356 c 1,21,22
 360 1398 360 1398 331.5 1423.5 c 128,-1,23
 303 1449 303 1449 264 1449 c 2,24,-1
 146 1449 l 1,25,-1
 146 1459 l 1,26,-1
 189 1570 l 1,27,-1
 264 1570 l 2,28,29
 357 1570 357 1570 424 1505 c 128,-1,30
 491 1440 491 1440 491 1346 c 2,31,-1
 491 997 l 1,32,-1
 371 949 l 1,11,-1
50 790 m 1,33,-1
 50 800 l 1,34,-1
 102 910 l 1,35,-1
 504 910 l 1,36,-1
 504 900 l 1,37,-1
 452 790 l 1,38,-1
 50 790 l 1,33,-1
EndSplineSet
Validated: 1
EndChar

StartChar: guillemotleft
Encoding: 171 171 107
Width: 1100
GlyphClass: 2
Flags: W
VStem: 150 172<669 841> 502 172<669 841>
DStem2: 322 755 150 755 0.50702 -0.861934<0 425.593> 150 755 322 755 0.50702 0.861934<87.2075 512.8> 674 755 502 755 0.50702 -0.861934<0 425.593> 502 755 674 755 0.50702 0.861934<87.2075 512.8>
LayerCount: 2
Fore
SplineSet
502 755 m 1,0,-1
 762 1197 l 1,1,-1
 772 1197 l 1,2,-1
 900 1136 l 1,3,-1
 674 755 l 1,4,-1
 900 374 l 1,5,-1
 772 313 l 1,6,-1
 762 313 l 1,7,-1
 502 755 l 1,0,-1
150 755 m 1,8,-1
 410 1197 l 1,9,-1
 420 1197 l 1,10,-1
 548 1136 l 1,11,-1
 322 755 l 1,12,-1
 548 374 l 1,13,-1
 420 313 l 1,14,-1
 410 313 l 1,15,-1
 150 755 l 1,8,-1
EndSplineSet
Validated: 1
EndChar

StartChar: logicalnot
Encoding: 172 172 108
Width: 1200
GlyphClass: 2
Flags: W
HStem: 680 150<216 864>
DStem2: 738 418 858 418 0.430979 0.902362<51.7175 290.722>
LayerCount: 2
Fore
SplineSet
216 830 m 1,0,-1
 1050 830 l 1,1,-1
 1050 820 l 1,2,-1
 858 418 l 1,3,-1
 738 418 l 1,4,-1
 864 680 l 1,5,-1
 150 680 l 1,6,-1
 150 690 l 1,7,-1
 216 830 l 1,0,-1
EndSplineSet
Validated: 1
EndChar

StartChar: uni00AD
Encoding: 173 173 109
Width: 1200
GlyphClass: 2
Flags: W
HStem: 680 150<216 984>
LayerCount: 2
Fore
SplineSet
216 830 m 5,0,-1
 1050 830 l 5,1,-1
 1050 820 l 5,2,-1
 984 680 l 5,3,-1
 150 680 l 5,4,-1
 150 690 l 5,5,-1
 216 830 l 5,0,-1
EndSplineSet
Validated: 1
EndChar

StartChar: registered
Encoding: 174 174 110
Width: 1401
GlyphClass: 2
Flags: W
HStem: 386 48<545.181 850.676> 817 130<604 698> 1219 130<604 807.902> 1478 52<544.168 856.773>
VStem: 150 50<794.694 1125.05> 464 140<598 817 947 1219> 844 139<983.369 1182.01> 1200 51<785.868 1126.58>
DStem2: 847 849 698 817 0.575493 -0.817806<0 270.573>
LayerCount: 2
Fore
SplineSet
532 1349 m 1,0,-1
 716 1349 l 2,1,2
 831 1349 831 1349 907 1271 c 128,-1,3
 983 1193 983 1193 983 1082.5 c 128,-1,4
 983 972 983 972 907 895 c 0,5,6
 879 867 879 867 847 849 c 1,7,-1
 1022 600 l 1,8,-1
 898 547 l 1,9,-1
 888 547 l 1,10,-1
 698 817 l 1,11,-1
 604 817 l 1,12,-1
 604 598 l 1,13,-1
 474 547 l 1,14,-1
 464 547 l 1,15,-1
 464 1318 l 1,16,-1
 532 1349 l 1,0,-1
604 947 m 1,17,-1
 720 947 l 2,18,19
 774 947 774 947 809 988 c 128,-1,20
 844 1029 844 1029 844 1083 c 0,21,22
 844 1136 844 1136 809 1177.5 c 128,-1,23
 774 1219 774 1219 720 1219 c 2,24,-1
 604 1219 l 1,25,-1
 604 947 l 1,17,-1
701 1530 m 0,26,27
 943 1530 943 1530 1099 1357 c 0,28,29
 1251 1188 1251 1188 1251 953 c 0,30,31
 1251 701 1251 701 1090 549 c 0,32,33
 919 386 919 386 699 386 c 0,34,35
 476 386 476 386 311 549 c 0,36,37
 150 708 150 708 150 953 c 0,38,39
 150 1197 150 1197 308 1362 c 0,40,41
 469 1530 469 1530 701 1530 c 0,26,27
699 1478 m 0,42,43
 499 1478 499 1478 350 1330 c 0,44,45
 200 1181 200 1181 200 953 c 0,46,47
 200 750 200 750 347 587 c 0,48,49
 485 434 485 434 701 434 c 0,50,51
 902 434 902 434 1054 587 c 0,52,53
 1200 734 1200 734 1200 953 c 0,54,55
 1200 1185 1200 1185 1056 1327 c 0,56,57
 903 1478 903 1478 699 1478 c 0,42,43
EndSplineSet
Validated: 1
EndChar

StartChar: macron
Encoding: 175 175 111
Width: 600
GlyphClass: 2
Flags: W
HStem: 1299 130<107 493>
VStem: 50 500
LayerCount: 2
Fore
SplineSet
107 1429 m 1,0,-1
 550 1429 l 1,1,-1
 550 1419 l 1,2,-1
 493 1299 l 1,3,-1
 50 1299 l 1,4,-1
 50 1309 l 1,5,-1
 107 1429 l 1,0,-1
EndSplineSet
Validated: 1
EndChar

StartChar: degree
Encoding: 176 176 112
Width: 650
GlyphClass: 2
Flags: W
HStem: 1016 112<224.824 425.176> 1458 112<224.824 425.176>
VStem: 50 126<1177.52 1408.48> 474 126<1177.52 1408.48>
LayerCount: 2
Fore
SplineSet
325 1458 m 128,-1,1
 264 1458 264 1458 220 1409 c 128,-1,2
 176 1360 176 1360 176 1293 c 152,-1,3
 176 1226 176 1226 220 1177 c 128,-1,4
 264 1128 264 1128 325 1128 c 128,-1,5
 386 1128 386 1128 430 1177 c 128,-1,6
 474 1226 474 1226 474 1293 c 152,-1,7
 474 1360 474 1360 430 1409 c 128,-1,0
 386 1458 386 1458 325 1458 c 128,-1,1
325 1570 m 128,-1,9
 439 1570 439 1570 519.5 1488.5 c 128,-1,10
 600 1407 600 1407 600 1293 c 152,-1,11
 600 1179 600 1179 519.5 1097.5 c 128,-1,12
 439 1016 439 1016 325 1016 c 128,-1,13
 211 1016 211 1016 130.5 1097.5 c 128,-1,14
 50 1179 50 1179 50 1293 c 152,-1,15
 50 1407 50 1407 130.5 1488.5 c 128,-1,8
 211 1570 211 1570 325 1570 c 128,-1,9
EndSplineSet
Validated: 1
EndChar

StartChar: plusminus
Encoding: 177 177 113
Width: 1200
GlyphClass: 2
Flags: W
HStem: 275 150<216 984> 858 150<216 525 675 984>
VStem: 525 150<549 858 1008 1317>
LayerCount: 2
Fore
SplineSet
216 425 m 1,0,-1
 1050 425 l 1,1,-1
 1050 415 l 1,2,-1
 984 275 l 1,3,-1
 150 275 l 1,4,-1
 150 285 l 1,5,-1
 216 425 l 1,0,-1
525 1317 m 1,6,-1
 665 1383 l 1,7,-1
 675 1383 l 1,8,-1
 675 1008 l 1,9,-1
 1050 1008 l 1,10,-1
 1050 998 l 1,11,-1
 984 858 l 1,12,-1
 675 858 l 1,13,-1
 675 549 l 1,14,-1
 535 483 l 1,15,-1
 525 483 l 1,16,-1
 525 858 l 1,17,-1
 150 858 l 1,18,-1
 150 868 l 1,19,-1
 216 1008 l 1,20,-1
 525 1008 l 1,21,-1
 525 1317 l 1,6,-1
EndSplineSet
Validated: 1
EndChar

StartChar: uni00B2
Encoding: 178 178 114
Width: 651
VWidth: 1406
GlyphClass: 2
Flags: W
HStem: 764 131<286 554> 1444 126<229.529 423.83>
VStem: 55 142<1219.34 1407.17> 457 144<1187.21 1405.7>
DStem2: 94 887 286 895 0.745721 0.666259<148.508 519.336>
LayerCount: 2
Fore
SplineSet
328 1570 m 128,-1,1
 454 1570 454 1570 526.5 1494 c 128,-1,2
 599 1418 599 1418 599 1309 c 0,3,4
 599 1175 599 1175 455 1046 c 2,5,-1
 286 895 l 1,6,-1
 601 895 l 1,7,-1
 601 885 l 1,8,-1
 554 764 l 1,9,-1
 50 764 l 1,10,-1
 50 774 l 1,11,-1
 94 887 l 1,12,-1
 338 1105 l 2,13,14
 457 1211 457 1211 457 1304 c 0,15,16
 457 1361 457 1361 424 1400 c 0,17,18
 388 1444 388 1444 330 1444 c 0,19,20
 267 1444 267 1444 230 1403 c 0,21,22
 197 1366 197 1366 197 1320 c 128,-1,23
 197 1274 197 1274 222 1234 c 1,24,-1
 103 1181 l 1,25,-1
 93 1181 l 1,26,27
 55 1252 55 1252 55 1333 c 0,28,29
 55 1417 55 1417 129 1493 c 0,30,0
 202 1570 202 1570 328 1570 c 128,-1,1
EndSplineSet
Validated: 1
EndChar

StartChar: uni00B3
Encoding: 179 179 115
Width: 643
VWidth: 1396
GlyphClass: 2
Flags: W
HStem: 774 130<222.892 421.327> 1430 130<155 342>
VStem: 50 139<944.223 1014.45> 455 138<940.017 1127.72>
LayerCount: 2
Fore
SplineSet
155 1560 m 1,0,-1
 565 1560 l 1,1,-1
 396 1271 l 1,2,3
 472 1257 472 1257 528 1200 c 0,4,5
 593 1133 593 1133 593 1035 c 0,6,7
 593 927 593 927 519 850 c 0,8,9
 446 774 446 774 321.5 774 c 128,-1,10
 197 774 197 774 131 844 c 0,11,12
 64 915 64 915 50 1009 c 1,13,-1
 179 1058 l 1,14,-1
 189 1058 l 1,15,-1
 189 1039 l 2,16,17
 189 982 189 982 224 943 c 128,-1,18
 259 904 259 904 322 904 c 128,-1,19
 385 904 385 904 420 944 c 0,20,21
 455 985 455 985 455 1037 c 128,-1,22
 455 1089 455 1089 426 1121 c 0,23,24
 392 1159 392 1159 337 1159 c 0,25,26
 283 1159 283 1159 245 1143 c 1,27,-1
 208 1187 l 1,28,-1
 342 1430 l 1,29,-1
 108 1430 l 1,30,-1
 108 1440 l 1,31,-1
 155 1560 l 1,0,-1
EndSplineSet
Validated: 1
EndChar

StartChar: acute
Encoding: 180 180 116
Width: 377
GlyphClass: 2
Flags: W
HStem: 1160 367
VStem: 50 277
DStem2: 50 1216 178 1160 0.427336 0.904093<4.06987 343.991>
LayerCount: 2
Fore
SplineSet
207 1527 m 1,0,-1
 327 1470 l 1,1,-1
 178 1160 l 1,2,-1
 168 1160 l 1,3,-1
 50 1216 l 1,4,-1
 197 1527 l 1,5,-1
 207 1527 l 1,0,-1
EndSplineSet
Validated: 1
EndChar

StartChar: uni00B5
Encoding: 181 181 117
Width: 1190
GlyphClass: 2
Flags: W
HStem: -430 21G<180 231.975> -20 160<452.493 736.458> 1100 20G<308.025 360 958.025 1010>
VStem: 180 180<-349 49 230.762 1039> 830 180<232.811 1039>
LayerCount: 2
Fore
SplineSet
180 -430 m 1,0,-1
 180 1039 l 1,1,-1
 350 1120 l 1,2,-1
 360 1120 l 1,3,-1
 360 366 l 2,4,5
 360 267 360 267 428.5 203.5 c 128,-1,6
 497 140 497 140 595 140 c 128,-1,7
 693 140 693 140 761.5 203.5 c 128,-1,8
 830 267 830 267 830 366 c 2,9,-1
 830 1039 l 1,10,-1
 1000 1120 l 1,11,-1
 1010 1120 l 1,12,-1
 1010 388 l 2,13,14
 1010 214 1010 214 888.5 97 c 128,-1,15
 767 -20 767 -20 595 -20 c 0,16,17
 463 -20 463 -20 360 49 c 1,18,-1
 360 -349 l 1,19,-1
 190 -430 l 1,20,-1
 180 -430 l 1,0,-1
EndSplineSet
Validated: 1
EndChar

StartChar: paragraph
Encoding: 182 182 118
Width: 1180
GlyphClass: 2
Flags: W
HStem: -20 21G<780 832.857> 548 982<374.128 755.872>
VStem: 780 70<8 604> 914 66<70 1138.19>
LayerCount: 2
Fore
SplineSet
790 -20 m 1,0,-1
 780 -20 l 1,1,-1
 780 604 l 1,2,3
 687 548 687 548 565 548 c 0,4,5
 393 548 393 548 271.5 665 c 128,-1,6
 150 782 150 782 150 956 c 2,7,-1
 150 1122 l 2,8,9
 150 1296 150 1296 271.5 1413 c 128,-1,10
 393 1530 393 1530 565 1530 c 128,-1,11
 737 1530 737 1530 858.5 1413 c 128,-1,12
 980 1296 980 1296 980 1122 c 2,13,-1
 980 70 l 1,14,-1
 914 39 l 1,15,-1
 914 1140 l 1,16,-1
 850 1110 l 1,17,-1
 850 8 l 1,18,-1
 790 -20 l 1,0,-1
EndSplineSet
Validated: 1
EndChar

StartChar: periodcentered
Encoding: 183 183 119
Width: 340
GlyphClass: 2
Flags: W
HStem: 632 245<86.0974 253.903>
VStem: 50 240<669.129 839.871>
LayerCount: 2
Fore
SplineSet
170 877 m 128,-1,1
 220 877 220 877 255 841 c 128,-1,2
 290 805 290 805 290 754.5 c 128,-1,3
 290 704 290 704 255 668 c 128,-1,4
 220 632 220 632 170 632 c 128,-1,5
 120 632 120 632 85 668 c 128,-1,6
 50 704 50 704 50 754.5 c 128,-1,7
 50 805 50 805 85 841 c 128,-1,0
 120 877 120 877 170 877 c 128,-1,1
EndSplineSet
Validated: 1
EndChar

StartChar: cedilla
Encoding: 184 184 120
Width: 420
GlyphClass: 2
Flags: W
HStem: -410 130<107 197.422>
VStem: 156 103<-61.7314 0> 222 148<-257.261 -86.9303>
LayerCount: 2
Fore
SplineSet
50 -410 m 1,0,-1
 50 -400 l 1,1,-1
 107 -280 l 1,2,3
 222 -264 222 -264 222 -173 c 0,4,5
 222 -100 222 -100 156 -76 c 1,6,-1
 156 0 l 1,7,-1
 259 0 l 1,8,-1
 259 -40 l 1,9,10
 370 -83 370 -83 370 -187 c 0,11,12
 370 -410 370 -410 50 -410 c 1,0,-1
EndSplineSet
Validated: 1
EndChar

StartChar: uni00B9
Encoding: 185 185 121
Width: 412
VWidth: 1401
GlyphClass: 2
Flags: W
VStem: 172 140<787 1380>
LayerCount: 2
Fore
SplineSet
302 1570 m 1,0,-1
 312 1570 l 1,1,-1
 312 787 l 1,2,-1
 182 736 l 1,3,-1
 172 736 l 1,4,-1
 172 1380 l 1,5,-1
 50 1322 l 1,6,-1
 50 1460 l 1,7,-1
 302 1570 l 1,0,-1
EndSplineSet
Validated: 1
EndChar

StartChar: ordmasculine
Encoding: 186 186 122
Width: 554
GlyphClass: 2
Flags: W
HStem: 790 120<102 452> 960 120<201.882 352.118> 1449 121<200.81 352.252>
VStem: 50 130<1106.85 1422.15> 374 130<1106.85 1422.21>
LayerCount: 2
Fore
SplineSet
50 790 m 1,0,-1
 50 800 l 1,1,-1
 102 910 l 1,2,-1
 504 910 l 1,3,-1
 504 900 l 1,4,-1
 452 790 l 1,5,-1
 50 790 l 1,0,-1
277 1449 m 0,6,7
 235 1449 235 1449 208 1423 c 0,8,9
 180 1396 180 1396 180 1356 c 2,10,-1
 180 1173 l 2,11,12
 180 1133 180 1133 208 1106 c 0,13,14
 235 1080 235 1080 277 1080 c 128,-1,15
 319 1080 319 1080 346 1106 c 0,16,17
 374 1133 374 1133 374 1173 c 2,18,-1
 374 1356 l 2,19,20
 374 1398 374 1398 346 1423 c 0,21,22
 315 1449 315 1449 277 1449 c 0,6,7
278 1570 m 0,23,24
 371 1570 371 1570 438 1505 c 0,25,26
 504 1441 504 1441 504 1346 c 2,27,-1
 504 1183 l 2,28,29
 504 1088 504 1088 437.5 1024 c 128,-1,30
 371 960 371 960 277 960 c 128,-1,31
 183 960 183 960 116.5 1024.5 c 128,-1,32
 50 1089 50 1089 50 1183 c 2,33,-1
 50 1346 l 2,34,35
 50 1440 50 1440 117 1506 c 0,36,37
 183 1570 183 1570 278 1570 c 0,23,24
EndSplineSet
Validated: 1
EndChar

StartChar: guillemotright
Encoding: 187 187 123
Width: 1100
GlyphClass: 2
Flags: W
VStem: 426 172<669 841> 778 172<669 841>
DStem2: 338 1197 200 1136 0.50702 -0.861934<0 425.593> 200 374 338 313 0.50702 0.861934<17.3908 442.983> 690 1197 552 1136 0.50702 -0.861934<0 425.593> 552 374 690 313 0.50702 0.861934<17.3908 442.983>
LayerCount: 2
Fore
SplineSet
598 755 m 1,0,-1
 338 313 l 1,1,-1
 328 313 l 1,2,-1
 200 374 l 1,3,-1
 426 755 l 1,4,-1
 200 1136 l 1,5,-1
 328 1197 l 1,6,-1
 338 1197 l 1,7,-1
 598 755 l 1,0,-1
950 755 m 1,8,-1
 690 313 l 1,9,-1
 680 313 l 1,10,-1
 552 374 l 1,11,-1
 778 755 l 1,12,-1
 552 1136 l 1,13,-1
 680 1197 l 1,14,-1
 690 1197 l 1,15,-1
 950 755 l 1,8,-1
EndSplineSet
Validated: 1
EndChar

StartChar: onequarter
Encoding: 188 188 124
Width: 1572
VWidth: 1401
GlyphClass: 2
Flags: W
HStem: -20 21G<413.032 473.341 1206 1266.98> 180 131<1043 1206 1346 1375> 1510 20G<356.182 412 1011.67 1072.29>
VStem: 272 140<747 1340> 1206 140<31 180 311 550>
DStem2: 327 42 464 -20 0.423185 0.906043<1.80173 1641.88> 820 190 1043 311 0.562937 0.8265<225.541 514.834>
LayerCount: 2
Fore
SplineSet
454 -20 m 1,0,-1
 327 42 l 1,1,-1
 1021 1530 l 1,2,-1
 1031 1530 l 1,3,-1
 1159 1468 l 1,4,-1
 464 -20 l 1,5,-1
 454 -20 l 1,0,-1
402 1530 m 1,6,-1
 412 1530 l 1,7,-1
 412 747 l 1,8,-1
 282 696 l 1,9,-1
 272 696 l 1,10,-1
 272 1340 l 1,11,-1
 150 1282 l 1,12,-1
 150 1420 l 1,13,-1
 402 1530 l 1,6,-1
1043 311 m 1,14,-1
 1206 311 l 1,15,-1
 1206 550 l 1,16,-1
 1043 311 l 1,14,-1
1216 -20 m 1,17,-1
 1206 -20 l 1,18,-1
 1206 180 l 1,19,-1
 820 180 l 1,20,-1
 820 190 l 1,21,-1
 1213 767 l 1,22,-1
 1336 815 l 1,23,-1
 1346 815 l 1,24,-1
 1346 311 l 1,25,-1
 1422 311 l 1,26,-1
 1422 301 l 1,27,-1
 1375 180 l 1,28,-1
 1346 180 l 1,29,-1
 1346 31 l 1,30,-1
 1216 -20 l 1,17,-1
EndSplineSet
Validated: 1
EndChar

StartChar: onehalf
Encoding: 189 189 125
Width: 1718
VWidth: 1401
GlyphClass: 2
Flags: W
HStem: -20 21G<413.032 473.341> 0 131<1253 1521> 680 126<1196.53 1390.83> 1510 20G<356.182 412 1011.67 1072.29>
VStem: 272 140<747 1340> 1022 142<455.342 643.17> 1424 144<423.209 641.705>
DStem2: 327 42 464 -20 0.423185 0.906043<1.80173 1641.88> 1061 123 1253 131 0.745721 0.666259<148.508 519.336>
LayerCount: 2
Fore
SplineSet
1295 806 m 128,-1,1
 1421 806 1421 806 1493.5 730 c 128,-1,2
 1566 654 1566 654 1566 545 c 0,3,4
 1566 411 1566 411 1422 282 c 2,5,-1
 1253 131 l 1,6,-1
 1568 131 l 1,7,-1
 1568 121 l 1,8,-1
 1521 0 l 1,9,-1
 1017 0 l 1,10,-1
 1017 10 l 1,11,-1
 1061 123 l 1,12,-1
 1305 341 l 2,13,14
 1424 447 1424 447 1424 540 c 0,15,16
 1424 597 1424 597 1391 636 c 0,17,18
 1355 680 1355 680 1297 680 c 0,19,20
 1234 680 1234 680 1197 639 c 0,21,22
 1164 602 1164 602 1164 556 c 128,-1,23
 1164 510 1164 510 1189 470 c 1,24,-1
 1070 417 l 1,25,-1
 1060 417 l 1,26,27
 1022 488 1022 488 1022 569 c 0,28,29
 1022 653 1022 653 1096 729 c 0,30,0
 1169 806 1169 806 1295 806 c 128,-1,1
454 -20 m 1,31,-1
 327 42 l 1,32,-1
 1021 1530 l 1,33,-1
 1031 1530 l 1,34,-1
 1159 1468 l 1,35,-1
 464 -20 l 1,36,-1
 454 -20 l 1,31,-1
402 1530 m 1,37,-1
 412 1530 l 1,38,-1
 412 747 l 1,39,-1
 282 696 l 1,40,-1
 272 696 l 1,41,-1
 272 1340 l 1,42,-1
 150 1282 l 1,43,-1
 150 1420 l 1,44,-1
 402 1530 l 1,37,-1
EndSplineSet
Validated: 1
EndChar

StartChar: threequarters
Encoding: 190 190 126
Width: 1796
VWidth: 1401
GlyphClass: 2
Flags: W
HStem: -20 21G<637.032 697.341 1430 1490.98> 180 131<1267 1430 1570 1599> 744 130<322.892 521.327> 1113 21G<328.182 364> 1400 130<255 442>
VStem: 150 139<914.223 984.445> 555 138<910.017 1097.72> 1430 140<31 180 311 550>
DStem2: 551 42 688 -20 0.423185 0.906043<1.80173 1641.88> 1044 190 1267 311 0.562937 0.8265<225.541 514.834>
LayerCount: 2
Fore
SplineSet
255 1530 m 1,0,-1
 665 1530 l 1,1,-1
 496 1241 l 1,2,3
 572 1227 572 1227 628 1170 c 0,4,5
 693 1103 693 1103 693 1005 c 0,6,7
 693 897 693 897 619 820 c 0,8,9
 546 744 546 744 421.5 744 c 128,-1,10
 297 744 297 744 231 814 c 0,11,12
 164 885 164 885 150 979 c 1,13,-1
 279 1028 l 1,14,-1
 289 1028 l 1,15,-1
 289 1009 l 2,16,17
 289 952 289 952 324 913 c 128,-1,18
 359 874 359 874 422 874 c 128,-1,19
 485 874 485 874 520 914 c 0,20,21
 555 955 555 955 555 1007 c 128,-1,22
 555 1059 555 1059 526 1091 c 0,23,24
 492 1129 492 1129 437 1129 c 0,25,26
 383 1129 383 1129 345 1113 c 1,27,-1
 308 1157 l 1,28,-1
 442 1400 l 1,29,-1
 208 1400 l 1,30,-1
 208 1410 l 1,31,-1
 255 1530 l 1,0,-1
678 -20 m 1,32,-1
 551 42 l 1,33,-1
 1245 1530 l 1,34,-1
 1255 1530 l 1,35,-1
 1383 1468 l 1,36,-1
 688 -20 l 1,37,-1
 678 -20 l 1,32,-1
1267 311 m 1,38,-1
 1430 311 l 1,39,-1
 1430 550 l 1,40,-1
 1267 311 l 1,38,-1
1440 -20 m 1,41,-1
 1430 -20 l 1,42,-1
 1430 180 l 1,43,-1
 1044 180 l 1,44,-1
 1044 190 l 1,45,-1
 1437 767 l 1,46,-1
 1560 815 l 1,47,-1
 1570 815 l 1,48,-1
 1570 311 l 1,49,-1
 1646 311 l 1,50,-1
 1646 301 l 1,51,-1
 1599 180 l 1,52,-1
 1570 180 l 1,53,-1
 1570 31 l 1,54,-1
 1440 -20 l 1,41,-1
EndSplineSet
Validated: 1
EndChar

StartChar: questiondown
Encoding: 191 191 127
Width: 1300
GlyphClass: 2
Flags: W
HStem: -430 180<480.113 808.507> 875 245<591.097 758.903>
VStem: 150 201<-124.77 204.688> 555 240<912.129 1082.87> 569 203<542.324 646> 950 200<-109.097 204.849>
LayerCount: 2
Fore
SplineSet
675 1120 m 128,-1,1
 725 1120 725 1120 760 1084 c 128,-1,2
 795 1048 795 1048 795 997.5 c 128,-1,3
 795 947 795 947 760 911 c 128,-1,4
 725 875 725 875 675 875 c 128,-1,5
 625 875 625 875 590 911 c 128,-1,6
 555 947 555 947 555 997.5 c 128,-1,7
 555 1048 555 1048 590 1084 c 128,-1,0
 625 1120 625 1120 675 1120 c 128,-1,1
645 -430 m 0,8,9
 409 -430 409 -430 275 -285 c 0,10,11
 150 -150 150 -150 150 30 c 0,12,13
 150 344 150 344 479 509 c 0,14,15
 569 554 569 554 569 646 c 1,16,-1
 762 739 l 1,17,-1
 772 739 l 1,18,19
 772 462 772 462 562 357 c 0,20,21
 351 251 351 251 351 28 c 0,22,23
 351 -73 351 -73 412 -147 c 0,24,25
 497 -250 497 -250 645 -250 c 0,26,27
 790 -250 790 -250 878 -147 c 0,28,29
 950 -63 950 -63 950 53 c 0,30,31
 950 120 950 120 911 186 c 1,32,-1
 1079 267 l 1,33,-1
 1089 267 l 1,34,35
 1150 159 1150 159 1150 30 c 0,36,37
 1150 -141 1150 -141 1015 -285 c 0,38,39
 878 -430 878 -430 645 -430 c 0,8,9
EndSplineSet
Validated: 1
EndChar

StartChar: endash
Encoding: 8211 8211 128
Width: 1200
GlyphClass: 2
Flags: W
HStem: 680 150<216 984>
LayerCount: 2
Fore
SplineSet
216 830 m 5,0,-1
 1050 830 l 5,1,-1
 1050 820 l 5,2,-1
 984 680 l 5,3,-1
 150 680 l 5,4,-1
 150 690 l 5,5,-1
 216 830 l 5,0,-1
EndSplineSet
Validated: 1
EndChar

StartChar: emdash
Encoding: 8212 8212 129
Width: 1500
GlyphClass: 2
Flags: W
HStem: 680 150<216 1284>
LayerCount: 2
Fore
SplineSet
216 830 m 1,0,-1
 1350 830 l 1,1,-1
 1350 820 l 1,2,-1
 1284 680 l 1,3,-1
 150 680 l 1,4,-1
 150 690 l 1,5,-1
 216 830 l 1,0,-1
EndSplineSet
Validated: 1
EndChar

StartChar: afii00208
Encoding: 8213 8213 130
Width: 1500
GlyphClass: 2
Flags: W
HStem: 680 150<216 1284>
LayerCount: 2
Fore
SplineSet
216 830 m 1,0,-1
 1350 830 l 1,1,-1
 1350 820 l 1,2,-1
 1284 680 l 1,3,-1
 150 680 l 1,4,-1
 150 690 l 1,5,-1
 216 830 l 1,0,-1
EndSplineSet
Validated: 1
EndChar

StartChar: quoteleft
Encoding: 8216 8216 131
Width: 389
GlyphClass: 2
Flags: W
HStem: 1046 554
VStem: 50 155<1202.44 1446.68>
LayerCount: 2
Fore
SplineSet
275 1600 m 1,0,-1
 282 1593 l 1,1,2
 205 1463 205 1463 205 1334 c 128,-1,3
 205 1205 205 1205 339 1126 c 1,4,-1
 169 1046 l 1,5,-1
 159 1046 l 1,6,7
 50 1153 50 1153 50 1290 c 0,8,9
 50 1487 50 1487 275 1600 c 1,0,-1
EndSplineSet
Validated: 1
EndChar

StartChar: quoteright
Encoding: 8217 8217 132
Width: 389
GlyphClass: 2
Flags: W
HStem: 1046 554
VStem: 184 155<1199.32 1443.56>
LayerCount: 2
Fore
SplineSet
220 1600 m 1,0,-1
 230 1600 l 1,1,2
 339 1493 339 1493 339 1356 c 0,3,4
 339 1159 339 1159 114 1046 c 1,5,-1
 107 1053 l 1,6,7
 184 1183 184 1183 184 1312 c 128,-1,8
 184 1441 184 1441 50 1520 c 1,9,-1
 220 1600 l 1,0,-1
EndSplineSet
Validated: 1
EndChar

StartChar: quotesinglbase
Encoding: 8218 8218 133
Width: 389
GlyphClass: 2
Flags: W
HStem: -276 554
VStem: 184 155<-122.682 121.561>
LayerCount: 2
Fore
SplineSet
220 278 m 1,0,-1
 230 278 l 1,1,2
 339 171 339 171 339 34 c 0,3,4
 339 -163 339 -163 114 -276 c 1,5,-1
 107 -269 l 1,6,7
 184 -139 184 -139 184 -10 c 128,-1,8
 184 119 184 119 50 198 c 1,9,-1
 220 278 l 1,0,-1
EndSplineSet
Validated: 1
EndChar

StartChar: quotereversed
Encoding: 8219 8219 134
Width: 389
GlyphClass: 2
Flags: W
HStem: 1046 554
VStem: 50 155<1199.32 1443.56>
LayerCount: 2
Fore
SplineSet
169 1600 m 1,0,-1
 339 1520 l 1,1,2
 205 1441 205 1441 205 1312 c 128,-1,3
 205 1183 205 1183 282 1053 c 1,4,-1
 275 1046 l 1,5,6
 50 1159 50 1159 50 1356 c 0,7,8
 50 1493 50 1493 159 1600 c 1,9,-1
 169 1600 l 1,0,-1
EndSplineSet
Validated: 1
EndChar

StartChar: quotedblleft
Encoding: 8220 8220 135
Width: 688
GlyphClass: 2
Flags: W
HStem: 1046 554
VStem: 50 155<1202.44 1446.68> 349 155<1202.44 1446.68>
LayerCount: 2
Fore
SplineSet
275 1600 m 1,0,-1
 282 1593 l 1,1,2
 205 1463 205 1463 205 1334 c 128,-1,3
 205 1205 205 1205 339 1126 c 1,4,-1
 169 1046 l 1,5,-1
 159 1046 l 1,6,7
 50 1153 50 1153 50 1290 c 0,8,9
 50 1487 50 1487 275 1600 c 1,0,-1
574 1600 m 1,10,-1
 581 1593 l 1,11,12
 504 1463 504 1463 504 1334 c 128,-1,13
 504 1205 504 1205 638 1126 c 1,14,-1
 468 1046 l 1,15,-1
 458 1046 l 1,16,17
 349 1153 349 1153 349 1290 c 0,18,19
 349 1487 349 1487 574 1600 c 1,10,-1
EndSplineSet
Validated: 1
EndChar

StartChar: quotedblright
Encoding: 8221 8221 136
Width: 688
GlyphClass: 2
Flags: W
HStem: 1046 554
VStem: 184 155<1199.32 1443.56> 483 155<1199.32 1443.56>
LayerCount: 2
Fore
SplineSet
519 1600 m 1,0,-1
 529 1600 l 1,1,2
 638 1493 638 1493 638 1356 c 0,3,4
 638 1159 638 1159 413 1046 c 1,5,-1
 406 1053 l 1,6,7
 483 1183 483 1183 483 1312 c 128,-1,8
 483 1441 483 1441 349 1520 c 1,9,-1
 519 1600 l 1,0,-1
220 1600 m 1,10,-1
 230 1600 l 1,11,12
 339 1493 339 1493 339 1356 c 0,13,14
 339 1159 339 1159 114 1046 c 1,15,-1
 107 1053 l 1,16,17
 184 1183 184 1183 184 1312 c 128,-1,18
 184 1441 184 1441 50 1520 c 1,19,-1
 220 1600 l 1,10,-1
EndSplineSet
Validated: 1
EndChar

StartChar: quotedblbase
Encoding: 8222 8222 137
Width: 688
GlyphClass: 2
Flags: W
HStem: -276 554
VStem: 184 155<-122.682 121.561> 483 155<-122.682 121.561>
LayerCount: 2
Fore
SplineSet
519 278 m 1,0,-1
 529 278 l 1,1,2
 638 171 638 171 638 34 c 0,3,4
 638 -163 638 -163 413 -276 c 1,5,-1
 406 -269 l 1,6,7
 483 -139 483 -139 483 -10 c 128,-1,8
 483 119 483 119 349 198 c 1,9,-1
 519 278 l 1,0,-1
220 278 m 1,10,-1
 230 278 l 1,11,12
 339 171 339 171 339 34 c 0,13,14
 339 -163 339 -163 114 -276 c 1,15,-1
 107 -269 l 1,16,17
 184 -139 184 -139 184 -10 c 128,-1,18
 184 119 184 119 50 198 c 1,19,-1
 220 278 l 1,10,-1
EndSplineSet
Validated: 1
EndChar

StartChar: dagger
Encoding: 8224 8224 138
Width: 1214
GlyphClass: 2
Flags: W
HStem: -20 21G<507 559.222> 998 180<230 507 707 984> 1510 20G<654.778 707>
VStem: 507 200<70 998 1178 1440>
LayerCount: 2
Fore
SplineSet
517 -20 m 1,0,-1
 507 -20 l 1,1,-1
 507 998 l 1,2,-1
 150 998 l 1,3,-1
 150 1008 l 1,4,-1
 230 1178 l 1,5,-1
 507 1178 l 1,6,-1
 507 1440 l 1,7,-1
 697 1530 l 1,8,-1
 707 1530 l 1,9,-1
 707 1178 l 1,10,-1
 1064 1178 l 1,11,-1
 1064 1168 l 1,12,-1
 984 998 l 1,13,-1
 707 998 l 1,14,-1
 707 70 l 1,15,-1
 517 -20 l 1,0,-1
EndSplineSet
Validated: 1
EndChar

StartChar: daggerdbl
Encoding: 8225 8225 139
Width: 1214
GlyphClass: 2
Flags: W
HStem: -20 21G<507 559.222> 332 180<230 507 707 984> 998 180<230 507 707 984> 1510 20G<654.778 707>
VStem: 507 200<70 332 512 998 1178 1440>
LayerCount: 2
Fore
SplineSet
517 -20 m 1,0,-1
 507 -20 l 1,1,-1
 507 332 l 1,2,-1
 150 332 l 1,3,-1
 150 342 l 1,4,-1
 230 512 l 1,5,-1
 507 512 l 1,6,-1
 507 998 l 1,7,-1
 150 998 l 1,8,-1
 150 1008 l 1,9,-1
 230 1178 l 1,10,-1
 507 1178 l 1,11,-1
 507 1440 l 1,12,-1
 697 1530 l 1,13,-1
 707 1530 l 1,14,-1
 707 1178 l 1,15,-1
 1064 1178 l 1,16,-1
 1064 1168 l 1,17,-1
 984 998 l 1,18,-1
 707 998 l 1,19,-1
 707 512 l 1,20,-1
 1064 512 l 1,21,-1
 1064 502 l 1,22,-1
 984 332 l 1,23,-1
 707 332 l 1,24,-1
 707 70 l 1,25,-1
 517 -20 l 1,0,-1
EndSplineSet
Validated: 1
EndChar

StartChar: bullet
Encoding: 8226 8226 140
Width: 910
GlyphClass: 2
Flags: W
HStem: 447 616<295.193 614.807>
VStem: 150 610<594.451 915.549>
LayerCount: 2
Fore
SplineSet
455 1063 m 128,-1,1
 582 1063 582 1063 671 972.5 c 128,-1,2
 760 882 760 882 760 755 c 152,-1,3
 760 628 760 628 671 537.5 c 128,-1,4
 582 447 582 447 455 447 c 128,-1,5
 328 447 328 447 239 537.5 c 128,-1,6
 150 628 150 628 150 755 c 152,-1,7
 150 882 150 882 239 972.5 c 128,-1,0
 328 1063 328 1063 455 1063 c 128,-1,1
EndSplineSet
Validated: 1
EndChar

StartChar: ellipsis
Encoding: 8230 8230 141
Width: 1012
GlyphClass: 2
Flags: W
HStem: -20 245<86.0974 253.903 422.097 589.903 758.097 925.903>
VStem: 50 240<17.1285 187.871> 386 240<17.1285 187.871> 722 240<17.1285 187.871>
CounterMasks: 1 70
LayerCount: 2
Fore
SplineSet
842 -20 m 128,-1,1
 792 -20 792 -20 757 16 c 128,-1,2
 722 52 722 52 722 102.5 c 128,-1,3
 722 153 722 153 757 189 c 128,-1,4
 792 225 792 225 842 225 c 128,-1,5
 892 225 892 225 927 189 c 128,-1,6
 962 153 962 153 962 102.5 c 128,-1,7
 962 52 962 52 927 16 c 128,-1,0
 892 -20 892 -20 842 -20 c 128,-1,1
506 -20 m 128,-1,9
 456 -20 456 -20 421 16 c 128,-1,10
 386 52 386 52 386 102.5 c 128,-1,11
 386 153 386 153 421 189 c 128,-1,12
 456 225 456 225 506 225 c 128,-1,13
 556 225 556 225 591 189 c 128,-1,14
 626 153 626 153 626 102.5 c 128,-1,15
 626 52 626 52 591 16 c 128,-1,8
 556 -20 556 -20 506 -20 c 128,-1,9
170 -20 m 128,-1,17
 120 -20 120 -20 85 16 c 128,-1,18
 50 52 50 52 50 102.5 c 128,-1,19
 50 153 50 153 85 189 c 128,-1,20
 120 225 120 225 170 225 c 128,-1,21
 220 225 220 225 255 189 c 128,-1,22
 290 153 290 153 290 102.5 c 128,-1,23
 290 52 290 52 255 16 c 128,-1,16
 220 -20 220 -20 170 -20 c 128,-1,17
EndSplineSet
Validated: 1
EndChar

StartChar: perthousand
Encoding: 8240 8240 142
Width: 2220
GlyphClass: 2
Flags: W
HStem: -20 125<984.737 1199.26 1657.74 1872.26> 471 125<984.737 1199.26 1657.74 1872.26> 914 125<347.737 562.263> 1405 125<347.737 562.263>
VStem: 150 140<1097.74 1346.26> 620 140<1097.74 1346.26> 787 140<163.736 412.264> 1257 140<163.736 412.264> 1460 140<163.736 412.264> 1930 140<163.736 412.264>
DStem2: 358 42 495 -20 0.423185 0.906043<1.80173 1641.88>
LayerCount: 2
Fore
SplineSet
1765 105 m 128,-1,1
 1833 105 1833 105 1881.5 159 c 128,-1,2
 1930 213 1930 213 1930 288 c 152,-1,3
 1930 363 1930 363 1881.5 417 c 128,-1,4
 1833 471 1833 471 1765 471 c 128,-1,5
 1697 471 1697 471 1648.5 417 c 128,-1,6
 1600 363 1600 363 1600 288 c 152,-1,7
 1600 213 1600 213 1648.5 159 c 128,-1,0
 1697 105 1697 105 1765 105 c 128,-1,1
1765 -20 m 128,-1,9
 1638 -20 1638 -20 1549 70.5 c 128,-1,10
 1460 161 1460 161 1460 288 c 152,-1,11
 1460 415 1460 415 1549 505.5 c 128,-1,12
 1638 596 1638 596 1765 596 c 128,-1,13
 1892 596 1892 596 1981 505.5 c 128,-1,14
 2070 415 2070 415 2070 288 c 152,-1,15
 2070 161 2070 161 1981 70.5 c 128,-1,8
 1892 -20 1892 -20 1765 -20 c 128,-1,9
1092 105 m 128,-1,17
 1160 105 1160 105 1208.5 159 c 128,-1,18
 1257 213 1257 213 1257 288 c 152,-1,19
 1257 363 1257 363 1208.5 417 c 128,-1,20
 1160 471 1160 471 1092 471 c 128,-1,21
 1024 471 1024 471 975.5 417 c 128,-1,22
 927 363 927 363 927 288 c 152,-1,23
 927 213 927 213 975.5 159 c 128,-1,16
 1024 105 1024 105 1092 105 c 128,-1,17
1092 -20 m 128,-1,25
 965 -20 965 -20 876 70.5 c 128,-1,26
 787 161 787 161 787 288 c 152,-1,27
 787 415 787 415 876 505.5 c 128,-1,28
 965 596 965 596 1092 596 c 128,-1,29
 1219 596 1219 596 1308 505.5 c 128,-1,30
 1397 415 1397 415 1397 288 c 152,-1,31
 1397 161 1397 161 1308 70.5 c 128,-1,24
 1219 -20 1219 -20 1092 -20 c 128,-1,25
485 -20 m 1,32,-1
 358 42 l 1,33,-1
 1052 1530 l 1,34,-1
 1062 1530 l 1,35,-1
 1190 1468 l 1,36,-1
 495 -20 l 1,37,-1
 485 -20 l 1,32,-1
455 1405 m 128,-1,39
 387 1405 387 1405 338.5 1351 c 128,-1,40
 290 1297 290 1297 290 1222 c 152,-1,41
 290 1147 290 1147 338.5 1093 c 128,-1,42
 387 1039 387 1039 455 1039 c 128,-1,43
 523 1039 523 1039 571.5 1093 c 128,-1,44
 620 1147 620 1147 620 1222 c 152,-1,45
 620 1297 620 1297 571.5 1351 c 128,-1,38
 523 1405 523 1405 455 1405 c 128,-1,39
455 1530 m 128,-1,47
 582 1530 582 1530 671 1439.5 c 128,-1,48
 760 1349 760 1349 760 1222 c 152,-1,49
 760 1095 760 1095 671 1004.5 c 128,-1,50
 582 914 582 914 455 914 c 128,-1,51
 328 914 328 914 239 1004.5 c 128,-1,52
 150 1095 150 1095 150 1222 c 152,-1,53
 150 1349 150 1349 239 1439.5 c 128,-1,46
 328 1530 328 1530 455 1530 c 128,-1,47
EndSplineSet
Validated: 1
EndChar

StartChar: minute
Encoding: 8242 8242 143
Width: 414
GlyphClass: 2
Flags: W
HStem: 1201 399
VStem: 50 314
LayerCount: 2
Fore
SplineSet
201 1600 m 1,0,-1
 211 1600 l 1,1,-1
 364 1527 l 1,2,-1
 154 1201 l 1,3,-1
 144 1201 l 1,4,-1
 50 1245 l 1,5,-1
 201 1600 l 1,0,-1
EndSplineSet
Validated: 1
EndChar

StartChar: second
Encoding: 8243 8243 144
Width: 667
GlyphClass: 2
Flags: W
HStem: 1201 399
VStem: 50 567
LayerCount: 2
Fore
SplineSet
454 1600 m 1,0,-1
 464 1600 l 1,1,-1
 617 1527 l 1,2,-1
 407 1201 l 1,3,-1
 397 1201 l 1,4,-1
 303 1245 l 1,5,-1
 454 1600 l 1,0,-1
201 1600 m 1,6,-1
 211 1600 l 1,7,-1
 364 1527 l 1,8,-1
 154 1201 l 1,9,-1
 144 1201 l 1,10,-1
 50 1245 l 1,11,-1
 201 1600 l 1,6,-1
EndSplineSet
Validated: 1
EndChar

StartChar: guilsinglleft
Encoding: 8249 8249 145
Width: 748
GlyphClass: 2
Flags: W
VStem: 150 172<669 841>
DStem2: 322 755 150 755 0.50702 -0.861934<0 425.593> 150 755 322 755 0.50702 0.861934<87.2075 512.8>
LayerCount: 2
Fore
SplineSet
150 755 m 1,0,-1
 410 1197 l 1,1,-1
 420 1197 l 1,2,-1
 548 1136 l 1,3,-1
 322 755 l 1,4,-1
 548 374 l 1,5,-1
 420 313 l 1,6,-1
 410 313 l 1,7,-1
 150 755 l 1,0,-1
EndSplineSet
Validated: 1
EndChar

StartChar: guilsinglright
Encoding: 8250 8250 146
Width: 798
GlyphClass: 2
Flags: W
VStem: 426 172<669 841>
DStem2: 338 1197 200 1136 0.50702 -0.861934<0 425.593> 200 374 338 313 0.50702 0.861934<17.3908 442.983>
LayerCount: 2
Fore
SplineSet
598 755 m 1,0,-1
 338 313 l 1,1,-1
 328 313 l 1,2,-1
 200 374 l 1,3,-1
 426 755 l 1,4,-1
 200 1136 l 1,5,-1
 328 1197 l 1,6,-1
 338 1197 l 1,7,-1
 598 755 l 1,0,-1
EndSplineSet
Validated: 1
EndChar

StartChar: fraction
Encoding: 8260 8260 147
Width: 852
GlyphClass: 2
Flags: W
HStem: -20 21G<96.0323 156.341> 1510 20G<694.672 755.29>
DStem2: 10 42 147 -20 0.423185 0.906043<1.80173 1641.88>
LayerCount: 2
Fore
SplineSet
137 -20 m 1,0,-1
 10 42 l 1,1,-1
 704 1530 l 1,2,-1
 714 1530 l 1,3,-1
 842 1468 l 1,4,-1
 147 -20 l 1,5,-1
 137 -20 l 1,0,-1
EndSplineSet
Validated: 1
EndChar

StartChar: Euro
Encoding: 8364 8364 148
Width: 1400
GlyphClass: 2
Flags: W
HStem: -20 180<579.38 912.982> 595 120<132 240 440 918> 795 120<132 240 440 918> 1350 180<579.38 911.44>
VStem: 240 200<296.453 595 715 795 915 1213.55> 1050 189<1140.19 1217.6>
LayerCount: 2
Fore
SplineSet
745.5 -20 m 128,-1,1
 535 -20 535 -20 387.5 121 c 128,-1,2
 240 262 240 262 240 474 c 2,3,-1
 240 595 l 1,4,-1
 80 595 l 1,5,-1
 80 605 l 1,6,-1
 132 715 l 1,7,-1
 240 715 l 1,8,-1
 240 795 l 1,9,-1
 80 795 l 1,10,-1
 80 805 l 1,11,-1
 132 915 l 1,12,-1
 240 915 l 1,13,-1
 240 1036 l 2,14,15
 240 1248 240 1248 387.5 1389 c 128,-1,16
 535 1530 535 1530 745.5 1530 c 128,-1,17
 956 1530 956 1530 1103 1389 c 0,18,19
 1209 1287 1209 1287 1239 1147 c 1,20,-1
 1060 1062 l 1,21,-1
 1050 1062 l 1,22,23
 1050 1189 1050 1189 961 1269.5 c 128,-1,24
 872 1350 872 1350 745.5 1350 c 128,-1,25
 619 1350 619 1350 529.5 1269.5 c 128,-1,26
 440 1189 440 1189 440 1062 c 2,27,-1
 440 915 l 1,28,-1
 970 915 l 1,29,-1
 970 905 l 1,30,-1
 918 795 l 1,31,-1
 440 795 l 1,32,-1
 440 715 l 1,33,-1
 970 715 l 1,34,-1
 970 705 l 1,35,-1
 918 595 l 1,36,-1
 440 595 l 1,37,-1
 440 448 l 2,38,39
 440 321 440 321 529.5 240.5 c 128,-1,40
 619 160 619 160 745.5 160 c 128,-1,41
 872 160 872 160 961 240 c 0,42,43
 1024 297 1024 297 1043 380 c 1,44,-1
 1240 474 l 1,45,-1
 1250 474 l 1,46,47
 1250 262 1250 262 1103 121 c 128,-1,0
 956 -20 956 -20 745.5 -20 c 128,-1,1
EndSplineSet
Validated: 1
EndChar

StartChar: afii61248
Encoding: 8453 8453 149
Width: 1625
GlyphClass: 2
Flags: W
HStem: -20 130<1104.68 1300.87> 662 131<1103.05 1301.08> 717 130<325.682 517.454> 1399 131<324.331 521.641>
VStem: 150 140<882.583 1363.9> 556 137<1302.13 1363.42> 929 140<145.583 626.902> 1335 140<146.098 626.932>
DStem2: 397 42 534 -20 0.423185 0.906043<1.80173 1641.88>
LayerCount: 2
Fore
SplineSet
1202 110 m 128,-1,1
 1257 110 1257 110 1297 145 c 0,2,3
 1335 180 1335 180 1335 234 c 2,4,-1
 1335 539 l 2,5,6
 1335 594 1335 594 1296.5 628 c 128,-1,7
 1258 662 1258 662 1202 662 c 128,-1,8
 1146 662 1146 662 1107 628 c 0,9,10
 1069 593 1069 593 1069 539 c 2,11,-1
 1069 234 l 2,12,13
 1069 179 1069 179 1108 144.5 c 128,-1,0
 1147 110 1147 110 1202 110 c 128,-1,1
1201.5 -20 m 128,-1,15
 1089 -20 1089 -20 1009 56 c 128,-1,16
 929 132 929 132 929 245 c 2,17,-1
 929 528 l 2,18,19
 929 642 929 642 1009 718 c 0,20,21
 1090 793 1090 793 1202.5 793 c 128,-1,22
 1315 793 1315 793 1395 717 c 128,-1,23
 1475 641 1475 641 1475 528 c 2,24,-1
 1475 245 l 2,25,26
 1475 130 1475 130 1394.5 55 c 128,-1,14
 1314 -20 1314 -20 1201.5 -20 c 128,-1,15
524 -20 m 1,27,-1
 397 42 l 1,28,-1
 1091 1530 l 1,29,-1
 1101 1530 l 1,30,-1
 1229 1468 l 1,31,-1
 534 -20 l 1,32,-1
 524 -20 l 1,27,-1
424 1530 m 0,33,34
 540 1530 540 1530 616 1455 c 0,35,36
 675 1397 675 1397 693 1308 c 1,37,-1
 566 1256 l 1,38,-1
 556 1256 l 1,39,-1
 556 1276 l 2,40,41
 556 1330 556 1330 517.5 1364.5 c 128,-1,42
 479 1399 479 1399 423 1399 c 0,43,44
 365 1399 365 1399 328 1365 c 0,45,46
 290 1330 290 1330 290 1276 c 2,47,-1
 290 971 l 2,48,49
 290 916 290 916 329 881.5 c 128,-1,50
 368 847 368 847 423 847 c 128,-1,51
 478 847 478 847 512 877 c 0,52,53
 540 902 540 902 555 951 c 1,54,-1
 686 1003 l 1,55,-1
 696 1003 l 1,56,-1
 696 983 l 2,57,58
 696 869 696 869 615.5 793 c 128,-1,59
 535 717 535 717 422.5 717 c 128,-1,60
 310 717 310 717 230 793 c 128,-1,61
 150 869 150 869 150 982 c 2,62,-1
 150 1265 l 2,63,64
 150 1381 150 1381 230 1455 c 0,65,66
 312 1530 312 1530 424 1530 c 0,33,34
EndSplineSet
Validated: 1
EndChar

StartChar: afii61289
Encoding: 8467 8467 150
Width: 958
GlyphClass: 2
Flags: W
HStem: -20 136<458.002 574.715> 0 21G<50 263> 1510 20G<632 703>
VStem: 232 155<466 819.618> 655 153<1042.58 1357.48>
LayerCount: 2
Fore
SplineSet
387 466 m 1,0,1
 498 708 498 708 554 860 c 0,2,3
 655 1134 655 1134 655 1359 c 1,4,5
 563 1238 563 1238 503 1067 c 0,6,7
 387 740 387 740 387 466 c 1,0,1
50 0 m 1,8,9
 171 158 171 158 244 282 c 1,10,11
 232 366 232 366 232 443 c 0,12,13
 232 629 232 629 279 848 c 0,14,15
 367 1251 367 1251 517 1434 c 0,16,17
 595 1530 595 1530 669 1530 c 0,18,19
 737 1530 737 1530 772 1479 c 0,20,21
 808 1429 808 1429 808 1318 c 0,22,23
 808 1226 808 1226 778 1072 c 0,24,25
 708 722 708 722 422 271 c 1,26,27
 454 116 454 116 511 116 c 0,28,29
 535 116 535 116 562.5 145 c 128,-1,30
 590 174 590 174 616 228 c 1,31,-1
 792 228 l 1,32,33
 715 100 715 100 650.5 40 c 128,-1,34
 586 -20 586 -20 502 -20 c 0,35,36
 382 -20 382 -20 305 90 c 1,37,-1
 251 0 l 1,38,-1
 50 0 l 1,8,9
EndSplineSet
Validated: 1
EndChar

StartChar: trademark
Encoding: 8482 8482 151
Width: 1778
GlyphClass: 2
Flags: W
HStem: 1400 130<147 313 453 619 847.6 1053.23 1253.4 1457.21>
VStem: 313 140<767 1400> 678 140<769 1375.93> 1083 140<769 1375.9> 1488 140<769 1376.45>
LayerCount: 2
Fore
SplineSet
688 716 m 1,0,-1
 678 716 l 1,1,-1
 678 1274 l 2,2,3
 678 1390 678 1390 758 1465 c 0,4,5
 839 1541 839 1541 952 1541 c 0,6,7
 1068 1541 1068 1541 1143 1466 c 0,8,9
 1148 1461 1148 1461 1153 1455 c 1,10,11
 1158 1460 1158 1460 1163 1465 c 0,12,13
 1242 1541 1242 1541 1355.5 1541 c 128,-1,14
 1469 1541 1469 1541 1549 1464 c 0,15,16
 1628 1388 1628 1388 1628 1274 c 2,17,-1
 1628 769 l 1,18,-1
 1498 716 l 1,19,-1
 1488 716 l 1,20,-1
 1488 1288 l 2,21,22
 1488 1344 1488 1344 1449 1377.5 c 128,-1,23
 1410 1411 1410 1411 1355 1411 c 0,24,25
 1298 1411 1298 1411 1261 1377 c 0,26,27
 1223 1342 1223 1342 1223 1288 c 2,28,-1
 1223 769 l 1,29,-1
 1093 716 l 1,30,-1
 1083 716 l 1,31,-1
 1083 1288 l 2,32,33
 1083 1343 1083 1343 1044 1377 c 0,34,35
 1005 1412 1005 1412 950 1412 c 128,-1,36
 895 1412 895 1412 856 1377 c 0,37,38
 818 1343 818 1343 818 1288 c 2,39,-1
 818 769 l 1,40,-1
 688 716 l 1,0,-1
147 1530 m 1,41,-1
 666 1530 l 1,42,-1
 666 1520 l 1,43,-1
 619 1400 l 1,44,-1
 453 1400 l 1,45,-1
 453 767 l 1,46,-1
 323 716 l 1,47,-1
 313 716 l 1,48,-1
 313 1400 l 1,49,-1
 100 1400 l 1,50,-1
 100 1410 l 1,51,-1
 147 1530 l 1,41,-1
EndSplineSet
Validated: 1
EndChar

StartChar: uni2126
Encoding: 8486 8486 152
Width: 1410
GlyphClass: 2
Flags: W
HStem: 0 180<280 446 964 1130> 1350 180<537.117 872.025>
VStem: 200 200<485.847 1213.55> 446 162<180 271.652> 802 162<180 271.828> 1010 200<484.896 1214.54>
LayerCount: 2
Fore
SplineSet
608 0 m 1,0,-1
 200 0 l 1,1,-1
 200 10 l 1,2,-1
 280 180 l 1,3,-1
 446 180 l 1,4,-1
 446 248 l 1,5,6
 393 270 393 270 347 315 c 24,7,8
 200 458 200 458 200 668 c 2,9,-1
 200 1036 l 2,10,11
 200 1248 200 1248 347 1389 c 128,-1,12
 494 1530 494 1530 705 1530 c 0,13,14
 914 1530 914 1530 1062 1389 c 0,15,16
 1210 1250 1210 1250 1210 1036 c 2,17,-1
 1210 668 l 2,18,19
 1210 456 1210 456 1062 315 c 0,20,21
 1016 271 1016 271 964 247 c 1,22,-1
 964 180 l 1,23,-1
 1210 180 l 1,24,-1
 1210 170 l 1,25,-1
 1130 0 l 1,26,-1
 802 0 l 1,27,-1
 802 361 l 1,28,29
 872 392 872 392 920 434 c 0,30,31
 1010 512 1010 512 1010 642 c 2,32,-1
 1010 1062 l 2,33,34
 1010 1188 1010 1188 920 1270 c 0,35,36
 832 1350 832 1350 705 1350 c 128,-1,37
 578 1350 578 1350 489 1270 c 0,38,39
 400 1188 400 1188 400 1062 c 2,40,-1
 400 642 l 2,41,42
 400 514 400 514 489 434 c 0,43,44
 538 390 538 390 608 361 c 1,45,-1
 608 0 l 1,0,-1
EndSplineSet
Validated: 1
EndChar

StartChar: estimated
Encoding: 8494 8494 153
Width: 1330
GlyphClass: 2
Flags: W
HStem: -20 92<451.758 852.453> 525 80<348 983> 1036 84<468.183 852.399>
VStem: 100 248<309.991 525 605 788.181> 983 247<605 774.087>
LayerCount: 2
Fore
SplineSet
1104 204 m 1,0,1
 1032 113 1032 113 948 61 c 0,2,3
 817 -20 817 -20 665 -20 c 0,4,5
 409 -20 409 -20 256 139 c 0,6,7
 100 301 100 301 100 550 c 0,8,9
 100 788 100 788 249 952 c 24,10,11
 402 1120 402 1120 666 1120 c 0,12,13
 915 1120 915 1120 1064 964 c 280,14,15
 1230 790 1230 790 1230 525 c 1,16,-1
 348 525 l 1,17,-1
 348 192 l 1,18,19
 459 72 459 72 666 72 c 256,20,21
 789 72 789 72 880 132 c 0,22,23
 962 186 962 186 1011 266 c 1,24,25
 1104 204 l 1,0,1
348 605 m 1,26,-1
 983 605 l 1,27,-1
 983 903 l 1,28,29
 852 1036 852 1036 666 1036 c 0,30,31
 475 1036 475 1036 348 914 c 1,32,-1
 348 605 l 1,26,-1
EndSplineSet
Validated: 1
EndChar

StartChar: partialdiff
Encoding: 8706 8706 154
Width: 1285
GlyphClass: 2
Flags: W
HStem: -20 153<399.379 663.581> 870 170<546.66 823.335> 1378 152<492 830.299>
VStem: 150 188<198.966 600.959> 952 183<930 1235.35>
LayerCount: 2
Fore
SplineSet
512 -20 m 0,0,1
 150 -20 150 -20 150 375 c 0,2,3
 150 631 150 631 286 815 c 0,4,5
 454 1040 454 1040 672 1040 c 0,6,7
 859 1040 859 1040 952 930 c 1,8,9
 952 1136 952 1136 907 1239 c 0,10,11
 846 1378 846 1378 678 1378 c 0,12,13
 547 1378 547 1378 420 1294 c 1,14,-1
 420 1468 l 1,15,16
 554 1530 554 1530 703 1530 c 0,17,18
 1135 1530 1135 1530 1135 934 c 0,19,20
 1135 545 1135 545 966.5 262.5 c 128,-1,21
 798 -20 798 -20 512 -20 c 0,0,1
525 133 m 0,22,23
 663 133 663 133 772.5 286 c 128,-1,24
 882 439 882 439 920 680 c 1,25,26
 898 765 898 765 834.5 817.5 c 128,-1,27
 771 870 771 870 695 870 c 0,28,29
 535 870 535 870 436.5 710 c 128,-1,30
 338 550 338 550 338 369 c 0,31,32
 338 133 338 133 525 133 c 0,22,23
EndSplineSet
Validated: 1
EndChar

StartChar: uni2206
Encoding: 8710 8710 155
Width: 1331
GlyphClass: 2
Flags: W
HStem: 0 180<266 1057>
DStem2: 5 0 266 180 0.355307 0.93475<260.99 1387.14> 746 1550 660 1235 0.350461 -0.936577<264.882 1392.1>
LayerCount: 2
Fore
SplineSet
5 0 m 1,0,-1
 563 1468 l 1,1,-1
 736 1550 l 1,2,-1
 746 1550 l 1,3,-1
 1326 0 l 1,4,-1
 5 0 l 1,0,-1
266 180 m 1,5,-1
 1057 180 l 1,6,-1
 660 1235 l 1,7,-1
 266 180 l 1,5,-1
EndSplineSet
Validated: 1
EndChar

StartChar: product
Encoding: 8719 8719 156
Width: 1400
GlyphClass: 2
Flags: W
HStem: -430 21G<200 252.222 1000 1052.22> 1330 180<400 1000>
VStem: 200 200<-340 1330> 1000 200<-340 1330>
LayerCount: 2
Fore
SplineSet
210 -430 m 1,0,-1
 200 -430 l 1,1,-1
 200 1460 l 1,2,-1
 306 1510 l 1,3,-1
 1200 1510 l 1,4,-1
 1200 -340 l 1,5,-1
 1010 -430 l 1,6,-1
 1000 -430 l 1,7,-1
 1000 1330 l 1,8,-1
 400 1330 l 1,9,-1
 400 -340 l 1,10,-1
 210 -430 l 1,0,-1
EndSplineSet
Validated: 1
EndChar

StartChar: summation
Encoding: 8721 8721 157
Width: 1203
GlyphClass: 2
Flags: W
HStem: -410 180<405 973> 1330 180<401 953>
DStem2: 100 -410 405 -230 0.431264 0.902226<293.936 1108.37> 401 1330 101 1460 0.480758 -0.876854<0 733.966>
LayerCount: 2
Fore
SplineSet
100 -410 m 1,0,-1
 578 590 l 1,1,-1
 101 1460 l 1,2,-1
 207 1510 l 1,3,-1
 1033 1510 l 1,4,-1
 1033 1500 l 1,5,-1
 953 1330 l 1,6,-1
 401 1330 l 1,7,-1
 808 596 l 1,8,-1
 405 -230 l 1,9,-1
 1053 -230 l 1,10,-1
 1053 -240 l 1,11,-1
 973 -410 l 1,12,-1
 100 -410 l 1,0,-1
EndSplineSet
Validated: 1
EndChar

StartChar: minus
Encoding: 8722 8722 158
Width: 1200
GlyphClass: 2
Flags: W
HStem: 680 150<216 984>
LayerCount: 2
Fore
SplineSet
216 830 m 5,0,-1
 1050 830 l 5,1,-1
 1050 820 l 5,2,-1
 984 680 l 5,3,-1
 150 680 l 5,4,-1
 150 690 l 5,5,-1
 216 830 l 5,0,-1
EndSplineSet
Validated: 1
EndChar

StartChar: uni2215
Encoding: 8725 8725 159
Width: 852
GlyphClass: 2
Flags: W
HStem: -20 21G<96.0323 156.341> 1510 20G<694.672 755.29>
DStem2: 10 42 147 -20 0.423185 0.906043<1.80173 1641.88>
LayerCount: 2
Fore
SplineSet
137 -20 m 1,0,-1
 10 42 l 1,1,-1
 704 1530 l 1,2,-1
 714 1530 l 1,3,-1
 842 1468 l 1,4,-1
 147 -20 l 1,5,-1
 137 -20 l 1,0,-1
EndSplineSet
Validated: 1
EndChar

StartChar: uni2219
Encoding: 8729 8729 160
Width: 340
GlyphClass: 2
Flags: W
HStem: 632 245<86.0974 253.903>
VStem: 50 240<669.129 839.871>
LayerCount: 2
Fore
SplineSet
170 877 m 128,-1,1
 220 877 220 877 255 841 c 128,-1,2
 290 805 290 805 290 754.5 c 128,-1,3
 290 704 290 704 255 668 c 128,-1,4
 220 632 220 632 170 632 c 128,-1,5
 120 632 120 632 85 668 c 128,-1,6
 50 704 50 704 50 754.5 c 128,-1,7
 50 805 50 805 85 841 c 128,-1,0
 120 877 120 877 170 877 c 128,-1,1
EndSplineSet
Validated: 1
EndChar

StartChar: radical
Encoding: 8730 8730 161
Width: 1066
GlyphClass: 2
Flags: W
HStem: -20 21G<312.829 372.133> 1510 20G<852.698 911.714>
DStem2: 213 806 50 733 0.337524 -0.941317<13.6997 567.663> 400 270 488 55 0.35178 0.936083<0 1330.63>
LayerCount: 2
Fore
SplineSet
320 -20 m 1,0,-1
 50 733 l 1,1,-1
 203 806 l 1,2,-1
 213 806 l 1,3,-1
 400 270 l 1,4,-1
 860 1530 l 1,5,-1
 870 1530 l 1,6,-1
 1016 1460 l 1,7,-1
 488 55 l 1,8,-1
 330 -20 l 1,9,-1
 320 -20 l 1,0,-1
EndSplineSet
Validated: 1
EndChar

StartChar: infinity
Encoding: 8734 8734 162
Width: 1476
GlyphClass: 2
Flags: W
HStem: 430 134<361.151 599.956 875.151 1113.96> 945 135<362.292 600.009 876.292 1114.01>
VStem: 150 148<627.058 880.808> 664 148<626.738 882.383> 1178 148<627.117 880.867>
CounterMasks: 1 38
LayerCount: 2
Fore
SplineSet
481 564 m 4,0,1
 559 564 559 564 613 620 c 4,2,3
 664 673 664 673 664 755 c 4,4,5
 664 838 664 838 613 889 c 4,6,7
 557 945 557 945 481 945 c 4,8,9
 403 945 403 945 349 889 c 4,10,11
 298 837 298 837 298 755 c 4,12,13
 298 672 298 672 349 620 c 4,14,15
 404 564 404 564 481 564 c 4,0,1
481 1080 m 4,16,17
 624 1080 624 1080 713 994 c 4,18,19
 726 981 726 981 738 967 c 5,20,21
 750 981 750 981 763 994 c 4,22,23
 854 1080 854 1080 995 1080 c 4,24,25
 1138 1080 1138 1080 1227 994 c 4,26,27
 1326 899 1326 899 1326 755 c 4,28,29
 1326 612 1326 612 1227 516 c 4,30,31
 1137 430 1137 430 995 430 c 4,32,33
 849 430 849 430 763 516 c 4,34,35
 750 529 750 529 738 543 c 5,36,37
 726 529 726 529 713 516 c 4,38,39
 623 430 623 430 481 430 c 4,40,41
 335 430 335 430 249 516 c 4,42,43
 150 612 150 612 150 755 c 4,44,45
 150 899 150 899 249 994 c 4,46,47
 340 1080 340 1080 481 1080 c 4,16,17
995 564 m 4,48,49
 1073 564 1073 564 1127 620 c 4,50,51
 1178 673 1178 673 1178 755 c 4,52,53
 1178 838 1178 838 1127 889 c 4,54,55
 1071 945 1071 945 995 945 c 4,56,57
 917 945 917 945 863 889 c 4,58,59
 812 837 812 837 812 755 c 4,60,61
 812 672 812 672 863 620 c 4,62,63
 918 564 918 564 995 564 c 4,48,49
EndSplineSet
Validated: 1
EndChar

StartChar: approxequal
Encoding: 8776 8776 163
Width: 1138
GlyphClass: 2
Flags: W
HStem: 376 147<657.304 812.171> 590 147<325.829 480.696> 776 147<657.304 812.171> 990 147<325.829 480.696>
VStem: 150 157<447 574.039 847 974.039> 831 157<538.961 666 938.961 1066>
LayerCount: 2
Fore
SplineSet
988 737 m 1,0,1
 988 376 988 376 732 376 c 0,2,3
 615 376 615 376 517 503 c 0,4,5
 450 590 450 590 400 590 c 0,6,7
 307 590 307 590 307 447 c 1,8,-1
 160 376 l 1,9,-1
 150 376 l 1,10,11
 150 737 150 737 406 737 c 0,12,13
 523 737 523 737 621 610 c 0,14,15
 688 523 688 523 738 523 c 0,16,17
 831 523 831 523 831 666 c 1,18,-1
 978 737 l 1,19,-1
 988 737 l 1,0,1
988 1137 m 1,20,21
 988 776 988 776 732 776 c 0,22,23
 615 776 615 776 517 903 c 0,24,25
 450 990 450 990 400 990 c 0,26,27
 307 990 307 990 307 847 c 1,28,-1
 160 776 l 1,29,-1
 150 776 l 1,30,31
 150 1137 150 1137 406 1137 c 0,32,33
 523 1137 523 1137 621 1010 c 0,34,35
 688 923 688 923 738 923 c 0,36,37
 831 923 831 923 831 1066 c 1,38,-1
 978 1137 l 1,39,-1
 988 1137 l 1,20,21
EndSplineSet
Validated: 1
EndChar

StartChar: notequal
Encoding: 8800 8800 164
Width: 1200
GlyphClass: 2
Flags: W
HStem: 480 150<216 417 596 984> 880 150<216 603 783 984>
DStem2: 272 170 380 166 0.422674 0.906282<42.0237 342.235 553.836 783.365 995.389 1296.51>
LayerCount: 2
Fore
SplineSet
216 1030 m 1,0,-1
 673 1030 l 1,1,-1
 820 1345 l 1,2,-1
 919 1345 l 1,3,-1
 928 1341 l 1,4,-1
 783 1030 l 1,5,-1
 1050 1030 l 1,6,-1
 1050 1020 l 1,7,-1
 984 880 l 1,8,-1
 713 880 l 1,9,-1
 596 630 l 1,10,-1
 1050 630 l 1,11,-1
 1050 620 l 1,12,-1
 984 480 l 1,13,-1
 526 480 l 1,14,-1
 380 166 l 1,15,-1
 281 166 l 1,16,-1
 272 170 l 1,17,-1
 417 480 l 1,18,-1
 150 480 l 1,19,-1
 150 490 l 1,20,-1
 216 630 l 1,21,-1
 487 630 l 1,22,-1
 603 880 l 1,23,-1
 150 880 l 1,24,-1
 150 890 l 1,25,-1
 216 1030 l 1,0,-1
EndSplineSet
Validated: 1
EndChar

StartChar: lessequal
Encoding: 8804 8804 165
Width: 1315
GlyphClass: 2
Flags: W
HStem: 275 150<216 1049>
DStem2: 392 888 150 818 0.942662 -0.33375<0 751.043> 216 968 392 888 0.937519 0.347934<137.169 893.848>
LayerCount: 2
Fore
SplineSet
1054 1279 m 1,0,-1
 1115 1152 l 1,1,-1
 1115 1142 l 1,2,-1
 392 888 l 1,3,-1
 1115 643 l 1,4,-1
 1115 633 l 1,5,-1
 1051 499 l 1,6,-1
 150 818 l 1,7,-1
 150 828 l 1,8,-1
 216 968 l 1,9,-1
 1054 1279 l 1,0,-1
216 425 m 1,10,-1
 1115 425 l 1,11,-1
 1115 415 l 1,12,-1
 1049 275 l 1,13,-1
 150 275 l 1,14,-1
 150 285 l 1,15,-1
 216 425 l 1,10,-1
EndSplineSet
Validated: 1
EndChar

StartChar: greaterequal
Encoding: 8805 8805 166
Width: 1315
GlyphClass: 2
Flags: W
HStem: 275 150<266 1099>
DStem2: 264 1279 200 1135 0.942662 -0.33375<0 751.043> 200 636 261 499 0.937519 0.347934<9.52175 766.201>
LayerCount: 2
Fore
SplineSet
264 1279 m 1,0,-1
 1165 960 l 1,1,-1
 1165 950 l 1,2,-1
 1099 810 l 1,3,-1
 261 499 l 1,4,-1
 200 626 l 1,5,-1
 200 636 l 1,6,-1
 923 890 l 1,7,-1
 200 1135 l 1,8,-1
 200 1145 l 1,9,-1
 264 1279 l 1,0,-1
266 425 m 1,10,-1
 1165 425 l 1,11,-1
 1165 415 l 1,12,-1
 1099 275 l 1,13,-1
 200 275 l 1,14,-1
 200 285 l 1,15,-1
 266 425 l 1,10,-1
EndSplineSet
Validated: 1
EndChar

StartChar: lozenge
Encoding: 9674 9674 167
Width: 1134
GlyphClass: 2
Flags: W
HStem: -20 21G<554.678 579.273> 1510 20G<555.207 578.838>
DStem2: 100 738 288 775 0.507923 0.861403<127.361 627.638> 288 775 100 738 0.524536 -0.851388<0 582.074> 567 1530 542 1206 0.509354 -0.860557<266.087 853.984> 591 278 567 -20 0.523035 0.852311<0 492.332>
LayerCount: 2
Fore
SplineSet
591 278 m 5,0,-1
 843 701 l 1,1,-1
 542 1206 l 1,2,-1
 288 775 l 1,3,-1
 591 278 l 5,0,-1
567 -20 m 1,4,-1
 100 738 l 1,5,-1
 567 1530 l 1,6,-1
 1034 741 l 1,7,-1
 567 -20 l 1,4,-1
EndSplineSet
Validated: 1
EndChar

StartChar: Oslash
Encoding: 216 216 168
Width: 1330
Flags: W
HStem: -20 180<499.016 831.542> 1350 180<500.1 831.826>
VStem: 160 200<302.974 1213.55> 970 200<292.395 1207>
DStem2: 241 -36 349 -40 0.422823 0.906212<42.04 145.828 371.777 1420.4 1646.35 1750.14>
LayerCount: 2
Fore
SplineSet
349 -40 m 1,0,-1
 250 -40 l 1,1,-1
 241 -36 l 1,2,-1
 312 117 l 17,3,4
 160 262 160 262 160 474 c 2,5,-1
 160 1036 l 2,6,7
 160 1248 160 1248 308 1389 c 128,-1,8
 456 1530 456 1530 666 1530 c 0,9,10
 818 1530 818 1530 937 1456 c 1,11,-1
 981 1550 l 1,12,-1
 1080 1550 l 1,13,-1
 1089 1546 l 1,14,-1
 1018 1394 l 17,15,16
 1170 1248 1170 1248 1170 1036 c 2,17,-1
 1170 474 l 2,18,19
 1170 262 1170 262 1023 121 c 128,-1,20
 876 -20 876 -20 666 -20 c 0,21,22
 513 -20 513 -20 393 54 c 1,23,-1
 349 -40 l 1,0,-1
666 160 m 0,24,25
 792 160 792 160 881 240.5 c 128,-1,26
 970 321 970 321 970 448 c 2,27,-1
 970 1062 l 2,28,29
 970 1145 970 1145 932 1209 c 1,30,-1
 471 222 l 1,31,32
 555 160 555 160 666 160 c 0,24,25
398 301 m 1,33,-1
 859 1288 l 1,34,35
 778 1350 778 1350 666 1350 c 0,36,37
 540 1350 540 1350 450 1269.5 c 128,-1,38
 360 1189 360 1189 360 1062 c 2,39,-1
 360 448 l 2,40,41
 360 364 360 364 398 301 c 1,33,-1
EndSplineSet
Validated: 1
EndChar

StartChar: oslash
Encoding: 248 248 169
Width: 1150
Flags: W
HStem: -20 160<454.389 716.458> 960 160<433.542 695.611>
VStem: 160 180<242.661 867.189> 810 180<232.811 857.339>
DStem2: 247 -36 355 -40 0.422379 0.906419<41.9913 112.684 305.565 1033.84 1226.72 1297.41>
LayerCount: 2
Fore
SplineSet
355 -40 m 1,0,-1
 256 -40 l 1,1,-1
 247 -36 l 1,2,-1
 301 79 l 1,3,4
 292 87 292 87 282 97 c 0,5,6
 160 214 160 214 160 388 c 2,7,-1
 160 712 l 2,8,9
 160 886 160 886 281.5 1003 c 128,-1,10
 403 1120 403 1120 575 1120 c 0,11,12
 680 1120 680 1120 766 1077 c 1,13,-1
 795 1140 l 1,14,-1
 894 1140 l 1,15,-1
 903 1136 l 1,16,-1
 849 1021 l 1,17,18
 858 1013 858 1013 868 1003 c 0,19,20
 990 886 990 886 990 712 c 2,21,-1
 990 388 l 2,22,23
 990 214 990 214 868.5 97 c 128,-1,24
 747 -20 747 -20 575 -20 c 0,25,26
 470 -20 470 -20 384 23 c 1,27,-1
 355 -40 l 1,0,-1
575 140 m 0,28,29
 673 140 673 140 741.5 203.5 c 128,-1,30
 810 267 810 267 810 366 c 2,31,-1
 810 734 l 2,32,33
 810 806 810 806 774 859 c 1,34,-1
 453 171 l 1,35,36
 507 140 507 140 575 140 c 0,28,29
376 241 m 1,37,-1
 697 929 l 1,38,39
 643 960 643 960 575 960 c 0,40,41
 477 960 477 960 408.5 896.5 c 128,-1,42
 340 833 340 833 340 734 c 2,43,-1
 340 366 l 2,44,45
 340 294 340 294 376 241 c 1,37,-1
EndSplineSet
Validated: 1
EndChar

StartChar: multiply
Encoding: 215 215 170
Width: 1142
Flags: W
HStem: 649 212<465 677>
VStem: 465 212<649 861>
DStem2: 353 1080 200 1020 0.706507 -0.707706<0 309.006 459.04 768.046> 200 490 353 430 0.706507 0.707706<65.6332 374.639 524.673 833.679>
LayerCount: 2
Fore
SplineSet
789 1080 m 1,0,-1
 935 1027 l 1,1,-1
 942 1020 l 1,2,-1
 677 755 l 1,3,-1
 942 490 l 1,4,-1
 935 483 l 1,5,-1
 789 430 l 1,6,-1
 571 649 l 1,7,-1
 353 430 l 1,8,-1
 207 483 l 1,9,-1
 200 490 l 1,10,-1
 465 755 l 1,11,-1
 200 1020 l 1,12,-1
 207 1027 l 1,13,-1
 353 1080 l 1,14,-1
 571 861 l 1,15,-1
 789 1080 l 1,0,-1
EndSplineSet
Validated: 1
EndChar

StartChar: divide
Encoding: 247 247 171
Width: 1200
Flags: W
HStem: 306 245<516.097 683.903> 680 150<216 984> 959 245<516.097 683.903>
VStem: 480 240<343.129 513.871 996.129 1166.87>
CounterMasks: 1 e0
LayerCount: 2
Fore
SplineSet
216 830 m 1,0,-1
 1050 830 l 1,1,-1
 1050 820 l 1,2,-1
 984 680 l 1,3,-1
 150 680 l 1,4,-1
 150 690 l 1,5,-1
 216 830 l 1,0,-1
600 1204 m 128,-1,7
 650 1204 650 1204 685 1168 c 128,-1,8
 720 1132 720 1132 720 1081.5 c 128,-1,9
 720 1031 720 1031 685 995 c 128,-1,10
 650 959 650 959 600 959 c 128,-1,11
 550 959 550 959 515 995 c 128,-1,12
 480 1031 480 1031 480 1081.5 c 128,-1,13
 480 1132 480 1132 515 1168 c 128,-1,6
 550 1204 550 1204 600 1204 c 128,-1,7
600 306 m 128,-1,15
 550 306 550 306 515 342 c 128,-1,16
 480 378 480 378 480 428.5 c 128,-1,17
 480 479 480 479 515 515 c 128,-1,18
 550 551 550 551 600 551 c 128,-1,19
 650 551 650 551 685 515 c 128,-1,20
 720 479 720 479 720 428.5 c 128,-1,21
 720 378 720 378 685 342 c 128,-1,14
 650 306 650 306 600 306 c 128,-1,15
EndSplineSet
Validated: 1
EndChar

StartChar: uni1E02
Encoding: 7682 7682 172
Width: 1250
Flags: W
HStem: 0 180<400 843.001> 746 180<400 804.5> 1330 180<400 807.427> 1630 245<521.097 688.903>
VStem: 200 200<180 746 926 1330> 485 240<1667.13 1837.87> 880 199<999.629 1257.36> 970 200<301.995 621.641>
LayerCount: 2
Fore
SplineSet
400 926 m 1,0,-1
 665 926 l 2,1,2
 757 926 757 926 815 977 c 0,3,4
 880 1034 880 1034 880 1127 c 0,5,6
 880 1222 880 1222 815 1279 c 0,7,8
 757 1330 757 1330 665 1330 c 2,9,-1
 400 1330 l 1,10,-1
 400 926 l 1,0,-1
400 180 m 1,11,-1
 665 180 l 2,12,13
 821 180 821 180 905 275 c 0,14,15
 970 348 970 348 970 463 c 0,16,17
 970 575 970 575 905 651 c 0,18,19
 824 746 824 746 665 746 c 2,20,-1
 400 746 l 1,21,-1
 400 180 l 1,11,-1
200 0 m 1,22,-1
 200 1440 l 1,23,-1
 348 1510 l 1,24,-1
 665 1510 l 2,25,26
 827 1510 827 1510 946 1418 c 0,27,28
 1079 1314 1079 1314 1079 1141 c 0,29,30
 1079 969 1079 969 927 855 c 1,31,32
 985 831 985 831 1026 794 c 0,33,34
 1170 663 1170 663 1170 463 c 0,35,36
 1170 264 1170 264 1042 137 c 0,37,38
 905 0 905 0 665 0 c 2,39,-1
 200 0 l 1,22,-1
605 1875 m 128,-1,41
 655 1875 655 1875 690 1839 c 128,-1,42
 725 1803 725 1803 725 1752.5 c 128,-1,43
 725 1702 725 1702 690 1666 c 128,-1,44
 655 1630 655 1630 605 1630 c 128,-1,45
 555 1630 555 1630 520 1666 c 128,-1,46
 485 1702 485 1702 485 1752.5 c 128,-1,47
 485 1803 485 1803 520 1839 c 128,-1,40
 555 1875 555 1875 605 1875 c 128,-1,41
EndSplineSet
Validated: 1
EndChar

StartChar: uni1E03
Encoding: 7683 7683 173
Width: 1170
Flags: W
HStem: -20 160<453.542 736.458> 960 160<452.493 736.458> 1220 245<512.097 679.903> 1510 20G<308.025 360>
VStem: 180 180<232.811 869.238 1031 1449> 476 240<1257.13 1427.87> 830 180<232.811 867.189>
LayerCount: 2
Fore
SplineSet
595 -20 m 128,-1,1
 423 -20 423 -20 301.5 97 c 128,-1,2
 180 214 180 214 180 388 c 2,3,-1
 180 1449 l 1,4,-1
 350 1530 l 1,5,-1
 360 1530 l 1,6,-1
 360 1031 l 1,7,8
 463 1120 463 1120 595 1120 c 0,9,10
 767 1120 767 1120 888.5 1003 c 128,-1,11
 1010 886 1010 886 1010 712 c 2,12,-1
 1010 388 l 2,13,14
 1010 214 1010 214 888.5 97 c 128,-1,0
 767 -20 767 -20 595 -20 c 128,-1,1
595 960 m 128,-1,16
 497 960 497 960 428.5 896.5 c 128,-1,17
 360 833 360 833 360 734 c 2,18,-1
 360 366 l 2,19,20
 360 267 360 267 428.5 203.5 c 128,-1,21
 497 140 497 140 595 140 c 128,-1,22
 693 140 693 140 761.5 203.5 c 128,-1,23
 830 267 830 267 830 366 c 2,24,-1
 830 734 l 2,25,26
 830 833 830 833 761.5 896.5 c 128,-1,15
 693 960 693 960 595 960 c 128,-1,16
596 1465 m 128,-1,28
 646 1465 646 1465 681 1429 c 128,-1,29
 716 1393 716 1393 716 1342.5 c 128,-1,30
 716 1292 716 1292 681 1256 c 128,-1,31
 646 1220 646 1220 596 1220 c 128,-1,32
 546 1220 546 1220 511 1256 c 128,-1,33
 476 1292 476 1292 476 1342.5 c 128,-1,34
 476 1393 476 1393 511 1429 c 128,-1,27
 546 1465 546 1465 596 1465 c 128,-1,28
EndSplineSet
Validated: 1
EndChar

StartChar: uni1E0A
Encoding: 7690 7690 174
Width: 1350
Flags: W
HStem: 0 180<400 851.463> 1330 180<400 850.378> 1630 245<551.097 718.903>
VStem: 200 200<180 1330> 515 240<1667.13 1837.87> 990 200<311.847 1193.55>
LayerCount: 2
Fore
SplineSet
400 180 m 1,0,-1
 685 180 l 2,1,2
 810 180 810 180 900 260 c 128,-1,3
 990 340 990 340 990 468 c 18,4,-1
 990 1042 l 10,5,6
 990 1169 990 1169 900.5 1249.5 c 128,-1,7
 811 1330 811 1330 685 1330 c 2,8,-1
 400 1330 l 1,9,-1
 400 180 l 1,0,-1
200 0 m 1,10,-1
 200 1440 l 1,11,-1
 348 1510 l 1,12,-1
 685 1510 l 2,13,14
 896 1510 896 1510 1043 1369 c 128,-1,15
 1190 1228 1190 1228 1190 1016 c 2,16,-1
 1190 494 l 2,17,18
 1190 284 1190 284 1042 141 c 0,19,20
 896 0 896 0 685 0 c 2,21,-1
 200 0 l 1,10,-1
635 1875 m 128,-1,23
 685 1875 685 1875 720 1839 c 128,-1,24
 755 1803 755 1803 755 1752.5 c 128,-1,25
 755 1702 755 1702 720 1666 c 128,-1,26
 685 1630 685 1630 635 1630 c 128,-1,27
 585 1630 585 1630 550 1666 c 128,-1,28
 515 1702 515 1702 515 1752.5 c 128,-1,29
 515 1803 515 1803 550 1839 c 128,-1,22
 585 1875 585 1875 635 1875 c 128,-1,23
EndSplineSet
Validated: 1
EndChar

StartChar: uni1E0B
Encoding: 7691 7691 175
Width: 1170
Flags: W
HStem: -20 160<433.542 716.458> 960 160<433.542 717.507> 1220 245<490.097 657.903> 1510 20G<938.025 990>
VStem: 160 180<232.811 867.189> 454 240<1257.13 1427.87> 810 180<232.811 869.238 1031 1449>
LayerCount: 2
Fore
SplineSet
575 -20 m 128,-1,1
 403 -20 403 -20 281.5 97 c 128,-1,2
 160 214 160 214 160 388 c 2,3,-1
 160 712 l 2,4,5
 160 886 160 886 281.5 1003 c 128,-1,6
 403 1120 403 1120 575 1120 c 0,7,8
 707 1120 707 1120 810 1031 c 1,9,-1
 810 1449 l 1,10,-1
 980 1530 l 1,11,-1
 990 1530 l 1,12,-1
 990 388 l 2,13,14
 990 214 990 214 868.5 97 c 128,-1,0
 747 -20 747 -20 575 -20 c 128,-1,1
575 960 m 128,-1,16
 477 960 477 960 408.5 896.5 c 128,-1,17
 340 833 340 833 340 734 c 2,18,-1
 340 366 l 2,19,20
 340 267 340 267 408.5 203.5 c 128,-1,21
 477 140 477 140 575 140 c 128,-1,22
 673 140 673 140 741.5 203.5 c 128,-1,23
 810 267 810 267 810 366 c 2,24,-1
 810 734 l 2,25,26
 810 833 810 833 741.5 896.5 c 128,-1,15
 673 960 673 960 575 960 c 128,-1,16
574 1465 m 128,-1,28
 624 1465 624 1465 659 1429 c 128,-1,29
 694 1393 694 1393 694 1342.5 c 128,-1,30
 694 1292 694 1292 659 1256 c 128,-1,31
 624 1220 624 1220 574 1220 c 128,-1,32
 524 1220 524 1220 489 1256 c 128,-1,33
 454 1292 454 1292 454 1342.5 c 128,-1,34
 454 1393 454 1393 489 1429 c 128,-1,27
 524 1465 524 1465 574 1465 c 128,-1,28
EndSplineSet
Validated: 1
EndChar

StartChar: uni1E1E
Encoding: 7710 7710 176
Width: 1010
Flags: W
HStem: -20 21G<200 252.222> 665 180<400 880> 1330 180<400 880> 1630 245<510.097 677.903>
VStem: 200 200<70 665 845 1330> 474 240<1667.13 1837.87>
LayerCount: 2
Fore
SplineSet
200 -20 m 1,0,-1
 200 1440 l 1,1,-1
 348 1510 l 1,2,-1
 960 1510 l 1,3,-1
 960 1500 l 1,4,-1
 880 1330 l 1,5,-1
 400 1330 l 1,6,-1
 400 845 l 1,7,-1
 960 845 l 1,8,-1
 960 835 l 1,9,-1
 880 665 l 1,10,-1
 400 665 l 1,11,-1
 400 70 l 1,12,-1
 210 -20 l 1,13,-1
 200 -20 l 1,0,-1
594 1875 m 128,-1,15
 644 1875 644 1875 679 1839 c 128,-1,16
 714 1803 714 1803 714 1752.5 c 128,-1,17
 714 1702 714 1702 679 1666 c 128,-1,18
 644 1630 644 1630 594 1630 c 128,-1,19
 544 1630 544 1630 509 1666 c 128,-1,20
 474 1702 474 1702 474 1752.5 c 128,-1,21
 474 1803 474 1803 509 1839 c 128,-1,14
 544 1875 544 1875 594 1875 c 128,-1,15
EndSplineSet
Validated: 1
EndChar

StartChar: uni1E1F
Encoding: 7711 7711 177
Width: 780
Flags: W
HStem: -20 21G<180 231.975> 740 160<360 660> 1350 160<454.166 699> 1630 245<356.097 523.903>
VStem: 180 180<61 740 900 1257.19> 320 240<1667.13 1837.87>
LayerCount: 2
Fore
SplineSet
180 -20 m 1,0,-1
 180 1102 l 2,1,2
 180 1276 180 1276 301.5 1393 c 128,-1,3
 423 1510 423 1510 595 1510 c 2,4,-1
 770 1510 l 1,5,-1
 770 1500 l 1,6,-1
 699 1350 l 1,7,-1
 595 1350 l 2,8,9
 497 1350 497 1350 428.5 1286.5 c 128,-1,10
 360 1223 360 1223 360 1124 c 2,11,-1
 360 900 l 1,12,-1
 731 900 l 1,13,-1
 731 890 l 1,14,-1
 660 740 l 1,15,-1
 360 740 l 1,16,-1
 360 61 l 1,17,-1
 190 -20 l 1,18,-1
 180 -20 l 1,0,-1
440 1875 m 128,-1,20
 490 1875 490 1875 525 1839 c 128,-1,21
 560 1803 560 1803 560 1752.5 c 128,-1,22
 560 1702 560 1702 525 1666 c 128,-1,23
 490 1630 490 1630 440 1630 c 128,-1,24
 390 1630 390 1630 355 1666 c 128,-1,25
 320 1702 320 1702 320 1752.5 c 128,-1,26
 320 1803 320 1803 355 1839 c 128,-1,19
 390 1875 390 1875 440 1875 c 128,-1,20
EndSplineSet
Validated: 1
EndChar

StartChar: uni1E40
Encoding: 7744 7744 178
Width: 2180
Flags: W
HStem: -20 21G<180 232.222 990 1042.22 1800 1852.22> 1350 180<519.38 851.44 1328.53 1661.52> 1630 245<1003.1 1170.9>
VStem: 180 200<70 1213.55> 967 240<1667.13 1837.87> 990 200<70 1217.6> 1800 200<70 1217.6>
LayerCount: 2
Fore
SplineSet
180 -20 m 1,0,-1
 180 1036 l 2,1,2
 180 1248 180 1248 327.5 1389 c 128,-1,3
 475 1530 475 1530 685.5 1530 c 128,-1,4
 896 1530 896 1530 1043 1389 c 0,5,6
 1069 1364 1069 1364 1090 1337 c 1,7,8
 1109 1361 1109 1361 1138 1389 c 0,9,10
 1281 1530 1281 1530 1496 1530 c 0,11,12
 1706 1530 1706 1530 1853 1389 c 128,-1,13
 2000 1248 2000 1248 2000 1036 c 2,14,-1
 2000 70 l 1,15,-1
 1810 -20 l 1,16,-1
 1800 -20 l 1,17,-1
 1800 1062 l 2,18,19
 1800 1189 1800 1189 1711 1269.5 c 128,-1,20
 1622 1350 1622 1350 1495.5 1350 c 128,-1,21
 1369 1350 1369 1350 1279.5 1269.5 c 128,-1,22
 1190 1189 1190 1189 1190 1062 c 2,23,-1
 1190 70 l 1,24,-1
 1000 -20 l 1,25,-1
 990 -20 l 1,26,-1
 990 1062 l 2,27,28
 990 1189 990 1189 901 1269.5 c 128,-1,29
 812 1350 812 1350 685.5 1350 c 128,-1,30
 559 1350 559 1350 469.5 1269.5 c 128,-1,31
 380 1189 380 1189 380 1062 c 2,32,-1
 380 70 l 1,33,-1
 190 -20 l 1,34,-1
 180 -20 l 1,0,-1
1087 1875 m 128,-1,36
 1137 1875 1137 1875 1172 1839 c 128,-1,37
 1207 1803 1207 1803 1207 1752.5 c 128,-1,38
 1207 1702 1207 1702 1172 1666 c 128,-1,39
 1137 1630 1137 1630 1087 1630 c 128,-1,40
 1037 1630 1037 1630 1002 1666 c 128,-1,41
 967 1702 967 1702 967 1752.5 c 128,-1,42
 967 1803 967 1803 1002 1839 c 128,-1,35
 1037 1875 1037 1875 1087 1875 c 128,-1,36
EndSplineSet
Validated: 1
EndChar

StartChar: uni1E41
Encoding: 7745 7745 179
Width: 1840
Flags: W
HStem: -20 21G<180 231.975 830 881.975 1480 1531.98> 960 160<453.542 737.999 1103.92 1386.54> 1220 245<832.097 999.903>
VStem: 180 180<61 867.189> 796 240<1257.13 1427.87> 830 180<61 869.238> 1480 180<61 867.189>
LayerCount: 2
Fore
SplineSet
180 -20 m 1,0,-1
 180 712 l 2,1,2
 180 886 180 886 301.5 1003 c 128,-1,3
 423 1120 423 1120 595 1120 c 0,4,5
 764 1120 764 1120 888 1003 c 0,6,7
 905 987 905 987 920 969 c 1,8,9
 936 986 936 986 952 1003 c 0,10,11
 1074 1120 1074 1120 1245.5 1120 c 128,-1,12
 1417 1120 1417 1120 1538.5 1003 c 128,-1,13
 1660 886 1660 886 1660 712 c 2,14,-1
 1660 61 l 1,15,-1
 1490 -20 l 1,16,-1
 1480 -20 l 1,17,-1
 1480 734 l 2,18,19
 1480 833 1480 833 1411.5 896.5 c 128,-1,20
 1343 960 1343 960 1245 960 c 128,-1,21
 1147 960 1147 960 1078.5 896.5 c 128,-1,22
 1010 833 1010 833 1010 734 c 2,23,-1
 1010 61 l 1,24,-1
 840 -20 l 1,25,-1
 830 -20 l 1,26,-1
 830 734 l 2,27,28
 830 833 830 833 761.5 896.5 c 128,-1,29
 693 960 693 960 595 960 c 128,-1,30
 497 960 497 960 428.5 896.5 c 128,-1,31
 360 833 360 833 360 734 c 2,32,-1
 360 61 l 1,33,-1
 190 -20 l 1,34,-1
 180 -20 l 1,0,-1
916 1465 m 128,-1,36
 966 1465 966 1465 1001 1429 c 128,-1,37
 1036 1393 1036 1393 1036 1342.5 c 128,-1,38
 1036 1292 1036 1292 1001 1256 c 128,-1,39
 966 1220 966 1220 916 1220 c 128,-1,40
 866 1220 866 1220 831 1256 c 128,-1,41
 796 1292 796 1292 796 1342.5 c 128,-1,42
 796 1393 796 1393 831 1429 c 128,-1,35
 866 1465 866 1465 916 1465 c 128,-1,36
EndSplineSet
Validated: 1
EndChar

StartChar: uni1E56
Encoding: 7766 7766 180
Width: 1210
Flags: W
HStem: -20 21G<200 252.222> 500 180<400 820.791> 1330 180<400 820.791> 1630 245<504.097 671.903>
VStem: 200 200<70 500 680 1330> 468 240<1667.13 1837.87> 960 200<833 1176.18>
LayerCount: 2
Fore
SplineSet
400 680 m 1,0,-1
 672 680 l 10,1,2
 799 680 799 680 879.5 779 c 128,-1,3
 960 878 960 878 960 1004.5 c 128,-1,4
 960 1131 960 1131 879.5 1230.5 c 128,-1,5
 799 1330 799 1330 672 1330 c 18,6,-1
 400 1330 l 1,7,-1
 400 680 l 1,0,-1
200 -20 m 1,8,-1
 200 1440 l 1,9,-1
 348 1510 l 1,10,-1
 666 1510 l 2,11,12
 878 1510 878 1510 1019 1362.5 c 128,-1,13
 1160 1215 1160 1215 1160 1004.5 c 128,-1,14
 1160 794 1160 794 1019 647 c 128,-1,15
 878 500 878 500 666 500 c 2,16,-1
 400 500 l 1,17,-1
 400 70 l 1,18,-1
 210 -20 l 1,19,-1
 200 -20 l 1,8,-1
588 1875 m 128,-1,21
 638 1875 638 1875 673 1839 c 128,-1,22
 708 1803 708 1803 708 1752.5 c 128,-1,23
 708 1702 708 1702 673 1666 c 128,-1,24
 638 1630 638 1630 588 1630 c 128,-1,25
 538 1630 538 1630 503 1666 c 128,-1,26
 468 1702 468 1702 468 1752.5 c 128,-1,27
 468 1803 468 1803 503 1839 c 128,-1,20
 538 1875 538 1875 588 1875 c 128,-1,21
EndSplineSet
Validated: 1
EndChar

StartChar: uni1E57
Encoding: 7767 7767 181
Width: 1170
Flags: W
HStem: -430 21G<180 231.975> -20 160<452.493 736.458> 960 160<453.542 736.458> 1220 245<514.097 681.903>
VStem: 180 180<-349 69 230.762 867.189> 478 240<1257.13 1427.87> 830 180<232.811 867.189>
LayerCount: 2
Fore
SplineSet
180 -430 m 1,0,-1
 180 712 l 2,1,2
 180 886 180 886 301.5 1003 c 128,-1,3
 423 1120 423 1120 595 1120 c 128,-1,4
 767 1120 767 1120 888.5 1003 c 128,-1,5
 1010 886 1010 886 1010 712 c 2,6,-1
 1010 388 l 2,7,8
 1010 214 1010 214 888.5 97 c 128,-1,9
 767 -20 767 -20 595 -20 c 0,10,11
 463 -20 463 -20 360 69 c 1,12,-1
 360 -349 l 1,13,-1
 190 -430 l 1,14,-1
 180 -430 l 1,0,-1
595 140 m 128,-1,16
 693 140 693 140 761.5 203.5 c 128,-1,17
 830 267 830 267 830 366 c 2,18,-1
 830 734 l 2,19,20
 830 833 830 833 761.5 896.5 c 128,-1,21
 693 960 693 960 595 960 c 128,-1,22
 497 960 497 960 428.5 896.5 c 128,-1,23
 360 833 360 833 360 734 c 2,24,-1
 360 366 l 2,25,26
 360 267 360 267 428.5 203.5 c 128,-1,15
 497 140 497 140 595 140 c 128,-1,16
598 1465 m 128,-1,28
 648 1465 648 1465 683 1429 c 128,-1,29
 718 1393 718 1393 718 1342.5 c 128,-1,30
 718 1292 718 1292 683 1256 c 128,-1,31
 648 1220 648 1220 598 1220 c 128,-1,32
 548 1220 548 1220 513 1256 c 128,-1,33
 478 1292 478 1292 478 1342.5 c 128,-1,34
 478 1393 478 1393 513 1429 c 128,-1,27
 548 1465 548 1465 598 1465 c 128,-1,28
EndSplineSet
Validated: 1
EndChar

StartChar: uni1E6A
Encoding: 7786 7786 182
Width: 1070
Flags: W
HStem: -20 21G<435 487.222> 1330 180<90 435 635 980> 1630 245<445.097 612.903>
VStem: 409 240<1667.13 1837.87> 435 200<70 1330>
LayerCount: 2
Fore
SplineSet
435 -20 m 1,0,-1
 435 1330 l 1,1,-1
 10 1330 l 1,2,-1
 10 1340 l 1,3,-1
 90 1510 l 1,4,-1
 1060 1510 l 1,5,-1
 1060 1500 l 1,6,-1
 980 1330 l 1,7,-1
 635 1330 l 1,8,-1
 635 70 l 1,9,-1
 445 -20 l 1,10,-1
 435 -20 l 1,0,-1
529 1875 m 128,-1,12
 579 1875 579 1875 614 1839 c 128,-1,13
 649 1803 649 1803 649 1752.5 c 128,-1,14
 649 1702 649 1702 614 1666 c 128,-1,15
 579 1630 579 1630 529 1630 c 128,-1,16
 479 1630 479 1630 444 1666 c 128,-1,17
 409 1702 409 1702 409 1752.5 c 128,-1,18
 409 1803 409 1803 444 1839 c 128,-1,11
 479 1875 479 1875 529 1875 c 128,-1,12
EndSplineSet
Validated: 1
EndChar

StartChar: uni1E6B
Encoding: 7787 7787 183
Width: 780
Flags: W
HStem: -20 21G<300 351.975> 940 160<81 300 480 699> 1510 20G<428.025 480> 1630 245<306.097 473.903>
VStem: 270 240<1667.13 1837.87> 300 180<61 940 1100 1449>
LayerCount: 2
Fore
SplineSet
300 -20 m 1,0,-1
 300 940 l 1,1,-1
 10 940 l 1,2,-1
 10 950 l 1,3,-1
 81 1100 l 1,4,-1
 300 1100 l 1,5,-1
 300 1449 l 1,6,-1
 470 1530 l 1,7,-1
 480 1530 l 1,8,-1
 480 1100 l 1,9,-1
 770 1100 l 1,10,-1
 770 1090 l 1,11,-1
 699 940 l 1,12,-1
 480 940 l 1,13,-1
 480 61 l 1,14,-1
 310 -20 l 1,15,-1
 300 -20 l 1,0,-1
390 1875 m 128,-1,17
 440 1875 440 1875 475 1839 c 128,-1,18
 510 1803 510 1803 510 1752.5 c 128,-1,19
 510 1702 510 1702 475 1666 c 128,-1,20
 440 1630 440 1630 390 1630 c 128,-1,21
 340 1630 340 1630 305 1666 c 128,-1,22
 270 1702 270 1702 270 1752.5 c 128,-1,23
 270 1803 270 1803 305 1839 c 128,-1,16
 340 1875 340 1875 390 1875 c 128,-1,17
EndSplineSet
Validated: 1
EndChar

StartChar: uni1E60
Encoding: 7776 7776 184
Width: 1140
Flags: W
HStem: -20 180<385.742 715.291> 1350 180<421.434 699.546> 1630 245<483.097 650.903>
VStem: 60 189<291.313 369.808> 153 195<1025.19 1277.13> 447 240<1667.13 1837.87> 855 205<304.238 622.472>
LayerCount: 2
Fore
SplineSet
567 1875 m 128,-1,1
 617 1875 617 1875 652 1839 c 128,-1,2
 687 1803 687 1803 687 1752.5 c 128,-1,3
 687 1702 687 1702 652 1666 c 128,-1,4
 617 1630 617 1630 567 1630 c 128,-1,5
 517 1630 517 1630 482 1666 c 128,-1,6
 447 1702 447 1702 447 1752.5 c 128,-1,7
 447 1803 447 1803 482 1839 c 128,-1,0
 517 1875 517 1875 567 1875 c 128,-1,1
554 -20 m 128,-1,9
 343 -20 343 -20 196 121 c 0,10,11
 91 221 91 221 60 363 c 1,12,-1
 239 448 l 1,13,-1
 249 448 l 9,14,15
 249 319 249 319 337 240 c 0,16,17
 427 160 427 160 551 160 c 0,18,19
 685 160 685 160 771 251 c 0,20,21
 855 340 855 340 855 462 c 128,-1,22
 855 584 855 584 788 650 c 0,23,24
 711 726 711 726 562 743 c 0,25,26
 378 764 378 764 268 861 c 0,27,28
 153 961 153 961 153 1120 c 0,29,30
 153 1312 153 1312 278 1424 c 0,31,32
 396 1530 396 1530 563 1530 c 128,-1,33
 730 1530 730 1530 849 1417 c 0,34,35
 934 1337 934 1337 957 1237 c 1,36,-1
 781 1153 l 1,37,-1
 773 1153 l 9,38,39
 772 1240 772 1240 712.5 1295 c 128,-1,40
 653 1350 653 1350 566 1350 c 0,41,42
 469 1350 469 1350 412 1298 c 0,43,44
 348 1239 348 1239 348 1145 c 0,45,46
 348 971 348 971 598 942 c 0,47,48
 817 917 817 917 936 791 c 0,49,50
 1060 659 1060 659 1060 477 c 0,51,52
 1059 265 1059 265 912 122.5 c 128,-1,8
 765 -20 765 -20 554 -20 c 128,-1,9
EndSplineSet
Validated: 1
EndChar

StartChar: uni1E61
Encoding: 7777 7777 185
Width: 930
Flags: W
HStem: -20 155<312.53 593.127> 970 150<344.258 565.072> 1220 245<369.097 536.903>
VStem: 128 173<735.806 931.267> 333 240<1257.13 1427.87> 670 180<212.333 456.558>
LayerCount: 2
Fore
SplineSet
453 1465 m 128,-1,1
 503 1465 503 1465 538 1429 c 128,-1,2
 573 1393 573 1393 573 1342.5 c 128,-1,3
 573 1292 573 1292 538 1256 c 128,-1,4
 503 1220 503 1220 453 1220 c 128,-1,5
 403 1220 403 1220 368 1256 c 128,-1,6
 333 1292 333 1292 333 1342.5 c 128,-1,7
 333 1393 333 1393 368 1429 c 128,-1,0
 403 1465 403 1465 453 1465 c 128,-1,1
449 -20 m 0,8,9
 281 -20 281 -20 168 85 c 0,10,11
 89 158 89 158 60 272 c 1,12,-1
 223 349 l 1,13,-1
 233 349 l 1,14,15
 233 247 233 247 309 182 c 0,16,17
 365 135 365 135 455 135 c 0,18,19
 551 135 551 135 610 194 c 0,20,21
 670 254 670 254 670 342 c 0,22,23
 670 499 670 499 456 523 c 0,24,25
 308 540 308 540 224 610 c 0,26,27
 128 691 128 691 128 812 c 0,28,29
 128 953 128 953 228 1038 c 0,30,31
 324 1120 324 1120 460 1120 c 0,32,33
 595 1120 595 1120 688 1036 c 0,34,35
 754 975 754 975 776 891 c 1,36,-1
 616 815 l 1,37,-1
 606 815 l 1,38,39
 606 886 606 886 565 928 c 128,-1,40
 524 970 524 970 457 970 c 0,41,42
 385 970 385 970 346 932 c 0,43,44
 301 889 301 889 301 827 c 0,45,46
 301 708 301 708 489 687 c 0,47,48
 670 667 670 667 754 581 c 0,49,50
 850 484 850 484 850 349 c 0,51,52
 850 192 850 192 733 87 c 0,53,54
 614 -20 614 -20 449 -20 c 0,8,9
EndSplineSet
Validated: 1
EndChar

StartChar: Wgrave
Encoding: 7808 7808 186
Width: 2180
Flags: W
HStem: -20 180<518.476 851.467 1328.56 1660.62> 1510 20G<327.778 380 1137.78 1190 1947.78 2000>
VStem: 180 200<292.395 1440> 990 200<292.395 1440> 1800 200<296.453 1440>
DStem2: 1030 1937 900 1880 0.427336 -0.904093<0 339.921>
CounterMasks: 1 38
LayerCount: 2
Fore
SplineSet
684 -20 m 0,0,1
 474 -20 474 -20 327 121 c 128,-1,2
 180 262 180 262 180 474 c 2,3,-1
 180 1440 l 1,4,-1
 370 1530 l 1,5,-1
 380 1530 l 1,6,-1
 380 448 l 2,7,8
 380 321 380 321 469 240.5 c 128,-1,9
 558 160 558 160 684.5 160 c 128,-1,10
 811 160 811 160 900.5 240.5 c 128,-1,11
 990 321 990 321 990 448 c 2,12,-1
 990 1440 l 1,13,-1
 1180 1530 l 1,14,-1
 1190 1530 l 1,15,-1
 1190 448 l 2,16,17
 1190 321 1190 321 1279 240.5 c 128,-1,18
 1368 160 1368 160 1494.5 160 c 128,-1,19
 1621 160 1621 160 1710.5 240.5 c 128,-1,20
 1800 321 1800 321 1800 448 c 2,21,-1
 1800 1440 l 1,22,-1
 1990 1530 l 1,23,-1
 2000 1530 l 1,24,-1
 2000 474 l 2,25,26
 2000 262 2000 262 1852.5 121 c 128,-1,27
 1705 -20 1705 -20 1494.5 -20 c 128,-1,28
 1284 -20 1284 -20 1137 121 c 0,29,30
 1111 146 1111 146 1090 173 c 1,31,32
 1068 146 1068 146 1042 121 c 0,33,34
 899 -20 899 -20 684 -20 c 0,0,1
1020 1937 m 1,35,-1
 1030 1937 l 1,36,-1
 1177 1626 l 1,37,-1
 1059 1570 l 1,38,-1
 1049 1570 l 1,39,-1
 900 1880 l 1,40,-1
 1020 1937 l 1,35,-1
EndSplineSet
Validated: 1
EndChar

StartChar: wgrave
Encoding: 7809 7809 187
Width: 1840
Flags: W
HStem: -20 160<453.463 736.085 1102 1386.46> 1100 20G<308.025 360 958.025 1010 1608.02 1660> 1507 20G<809.895 871.453>
VStem: 180 180<232.811 1039> 830 180<230.762 1039> 1480 180<232.811 1039>
DStem2: 862 1527 732 1470 0.427336 -0.904093<0 339.921>
CounterMasks: 1 1c
LayerCount: 2
Fore
SplineSet
594.5 -20 m 128,-1,1
 423 -20 423 -20 301.5 97 c 128,-1,2
 180 214 180 214 180 388 c 2,3,-1
 180 1039 l 1,4,-1
 350 1120 l 1,5,-1
 360 1120 l 1,6,-1
 360 366 l 2,7,8
 360 267 360 267 428.5 203.5 c 128,-1,9
 497 140 497 140 595 140 c 128,-1,10
 693 140 693 140 761.5 203.5 c 128,-1,11
 830 267 830 267 830 366 c 2,12,-1
 830 1039 l 1,13,-1
 1000 1120 l 1,14,-1
 1010 1120 l 1,15,-1
 1010 366 l 2,16,17
 1010 267 1010 267 1078.5 203.5 c 128,-1,18
 1147 140 1147 140 1245 140 c 128,-1,19
 1343 140 1343 140 1411.5 203.5 c 128,-1,20
 1480 267 1480 267 1480 366 c 2,21,-1
 1480 1039 l 1,22,-1
 1650 1120 l 1,23,-1
 1660 1120 l 1,24,-1
 1660 388 l 2,25,26
 1660 214 1660 214 1538.5 97 c 128,-1,27
 1417 -20 1417 -20 1245 -20 c 0,28,29
 1076 -20 1076 -20 952 97 c 0,30,31
 935 113 935 113 920 131 c 1,32,33
 904 114 904 114 888 97 c 0,34,0
 766 -20 766 -20 594.5 -20 c 128,-1,1
852 1527 m 1,35,-1
 862 1527 l 1,36,-1
 1009 1216 l 1,37,-1
 891 1160 l 1,38,-1
 881 1160 l 1,39,-1
 732 1470 l 1,40,-1
 852 1527 l 1,35,-1
EndSplineSet
Validated: 1
EndChar

StartChar: Wacute
Encoding: 7810 7810 188
Width: 2180
Flags: W
HStem: -20 180<518.476 851.467 1328.56 1660.62> 1510 20G<327.778 380 1137.78 1190 1947.78 2000>
VStem: 180 200<292.395 1440> 990 200<292.395 1440> 1800 200<296.453 1440>
DStem2: 980 1626 1108 1570 0.427336 0.904093<4.06987 343.991>
CounterMasks: 1 38
LayerCount: 2
Fore
SplineSet
684 -20 m 0,0,1
 474 -20 474 -20 327 121 c 128,-1,2
 180 262 180 262 180 474 c 2,3,-1
 180 1440 l 1,4,-1
 370 1530 l 1,5,-1
 380 1530 l 1,6,-1
 380 448 l 2,7,8
 380 321 380 321 469 240.5 c 128,-1,9
 558 160 558 160 684.5 160 c 128,-1,10
 811 160 811 160 900.5 240.5 c 128,-1,11
 990 321 990 321 990 448 c 2,12,-1
 990 1440 l 1,13,-1
 1180 1530 l 1,14,-1
 1190 1530 l 1,15,-1
 1190 448 l 2,16,17
 1190 321 1190 321 1279 240.5 c 128,-1,18
 1368 160 1368 160 1494.5 160 c 128,-1,19
 1621 160 1621 160 1710.5 240.5 c 128,-1,20
 1800 321 1800 321 1800 448 c 2,21,-1
 1800 1440 l 1,22,-1
 1990 1530 l 1,23,-1
 2000 1530 l 1,24,-1
 2000 474 l 2,25,26
 2000 262 2000 262 1852.5 121 c 128,-1,27
 1705 -20 1705 -20 1494.5 -20 c 128,-1,28
 1284 -20 1284 -20 1137 121 c 0,29,30
 1111 146 1111 146 1090 173 c 1,31,32
 1068 146 1068 146 1042 121 c 0,33,34
 899 -20 899 -20 684 -20 c 0,0,1
1137 1937 m 1,35,-1
 1257 1880 l 1,36,-1
 1108 1570 l 1,37,-1
 1098 1570 l 1,38,-1
 980 1626 l 1,39,-1
 1127 1937 l 1,40,-1
 1137 1937 l 1,35,-1
EndSplineSet
Validated: 1
EndChar

StartChar: wacute
Encoding: 7811 7811 189
Width: 1840
Flags: W
HStem: -20 160<453.463 736.085 1102 1386.46> 1100 20G<308.025 360 958.025 1010 1608.02 1660> 1507 20G<939.547 1001.11>
VStem: 180 180<232.811 1039> 830 180<230.762 1039> 1480 180<232.811 1039>
DStem2: 802 1216 930 1160 0.427336 0.904093<4.06987 343.991>
CounterMasks: 1 1c
LayerCount: 2
Fore
SplineSet
594.5 -20 m 128,-1,1
 423 -20 423 -20 301.5 97 c 128,-1,2
 180 214 180 214 180 388 c 2,3,-1
 180 1039 l 1,4,-1
 350 1120 l 1,5,-1
 360 1120 l 1,6,-1
 360 366 l 2,7,8
 360 267 360 267 428.5 203.5 c 128,-1,9
 497 140 497 140 595 140 c 128,-1,10
 693 140 693 140 761.5 203.5 c 128,-1,11
 830 267 830 267 830 366 c 2,12,-1
 830 1039 l 1,13,-1
 1000 1120 l 1,14,-1
 1010 1120 l 1,15,-1
 1010 366 l 2,16,17
 1010 267 1010 267 1078.5 203.5 c 128,-1,18
 1147 140 1147 140 1245 140 c 128,-1,19
 1343 140 1343 140 1411.5 203.5 c 128,-1,20
 1480 267 1480 267 1480 366 c 2,21,-1
 1480 1039 l 1,22,-1
 1650 1120 l 1,23,-1
 1660 1120 l 1,24,-1
 1660 388 l 2,25,26
 1660 214 1660 214 1538.5 97 c 128,-1,27
 1417 -20 1417 -20 1245 -20 c 0,28,29
 1076 -20 1076 -20 952 97 c 0,30,31
 935 113 935 113 920 131 c 1,32,33
 904 114 904 114 888 97 c 0,34,0
 766 -20 766 -20 594.5 -20 c 128,-1,1
959 1527 m 1,35,-1
 1079 1470 l 1,36,-1
 930 1160 l 1,37,-1
 920 1160 l 1,38,-1
 802 1216 l 1,39,-1
 949 1527 l 1,40,-1
 959 1527 l 1,35,-1
EndSplineSet
Validated: 1
EndChar

StartChar: Wdieresis
Encoding: 7812 7812 190
Width: 2180
Flags: W
HStem: -20 180<518.476 851.467 1328.56 1660.62> 1510 20G<327.778 380 1137.78 1190 1947.78 2000> 1640 227<866.034 1021.97 1143 1299>
VStem: 180 200<292.395 1440> 832 224<1674.55 1832.45> 990 200<292.395 1440> 1110 222<1675.07 1832.93> 1800 200<296.453 1440>
LayerCount: 2
Fore
SplineSet
684 -20 m 0,0,1
 474 -20 474 -20 327 121 c 128,-1,2
 180 262 180 262 180 474 c 2,3,-1
 180 1440 l 1,4,-1
 370 1530 l 1,5,-1
 380 1530 l 1,6,-1
 380 448 l 2,7,8
 380 321 380 321 469 240.5 c 128,-1,9
 558 160 558 160 684.5 160 c 128,-1,10
 811 160 811 160 900.5 240.5 c 128,-1,11
 990 321 990 321 990 448 c 2,12,-1
 990 1440 l 1,13,-1
 1180 1530 l 1,14,-1
 1190 1530 l 1,15,-1
 1190 448 l 2,16,17
 1190 321 1190 321 1279 240.5 c 128,-1,18
 1368 160 1368 160 1494.5 160 c 128,-1,19
 1621 160 1621 160 1710.5 240.5 c 128,-1,20
 1800 321 1800 321 1800 448 c 2,21,-1
 1800 1440 l 1,22,-1
 1990 1530 l 1,23,-1
 2000 1530 l 1,24,-1
 2000 474 l 2,25,26
 2000 262 2000 262 1852.5 121 c 128,-1,27
 1705 -20 1705 -20 1494.5 -20 c 128,-1,28
 1284 -20 1284 -20 1137 121 c 0,29,30
 1111 146 1111 146 1090 173 c 1,31,32
 1068 146 1068 146 1042 121 c 0,33,34
 899 -20 899 -20 684 -20 c 0,0,1
1221 1868 m 128,-1,36
 1268 1868 1268 1868 1300 1834 c 128,-1,37
 1332 1800 1332 1800 1332 1754 c 128,-1,38
 1332 1708 1332 1708 1300 1674 c 128,-1,39
 1268 1640 1268 1640 1221 1640 c 128,-1,40
 1174 1640 1174 1640 1142 1674 c 128,-1,41
 1110 1708 1110 1708 1110 1754 c 128,-1,42
 1110 1800 1110 1800 1142 1834 c 128,-1,35
 1174 1868 1174 1868 1221 1868 c 128,-1,36
944 1867 m 128,-1,44
 990 1867 990 1867 1023 1833.5 c 128,-1,45
 1056 1800 1056 1800 1056 1753.5 c 128,-1,46
 1056 1707 1056 1707 1023 1673.5 c 128,-1,47
 990 1640 990 1640 944 1640 c 128,-1,48
 898 1640 898 1640 865 1673.5 c 128,-1,49
 832 1707 832 1707 832 1753.5 c 128,-1,50
 832 1800 832 1800 865 1833.5 c 128,-1,43
 898 1867 898 1867 944 1867 c 128,-1,44
EndSplineSet
Validated: 1
EndChar

StartChar: wdieresis
Encoding: 7813 7813 191
Width: 1840
Flags: W
HStem: -20 160<453.463 736.085 1102 1386.46> 1100 20G<308.025 360 958.025 1010 1608.02 1660> 1230 227<703.034 858.966 980.004 1136>
VStem: 180 180<232.811 1039> 669 224<1264.55 1422.45> 830 180<230.762 1039> 947 222<1265.07 1422.93> 1480 180<232.811 1039>
LayerCount: 2
Fore
SplineSet
594.5 -20 m 128,-1,1
 423 -20 423 -20 301.5 97 c 128,-1,2
 180 214 180 214 180 388 c 2,3,-1
 180 1039 l 1,4,-1
 350 1120 l 1,5,-1
 360 1120 l 1,6,-1
 360 366 l 2,7,8
 360 267 360 267 428.5 203.5 c 128,-1,9
 497 140 497 140 595 140 c 128,-1,10
 693 140 693 140 761.5 203.5 c 128,-1,11
 830 267 830 267 830 366 c 2,12,-1
 830 1039 l 1,13,-1
 1000 1120 l 1,14,-1
 1010 1120 l 1,15,-1
 1010 366 l 2,16,17
 1010 267 1010 267 1078.5 203.5 c 128,-1,18
 1147 140 1147 140 1245 140 c 128,-1,19
 1343 140 1343 140 1411.5 203.5 c 128,-1,20
 1480 267 1480 267 1480 366 c 2,21,-1
 1480 1039 l 1,22,-1
 1650 1120 l 1,23,-1
 1660 1120 l 1,24,-1
 1660 388 l 2,25,26
 1660 214 1660 214 1538.5 97 c 128,-1,27
 1417 -20 1417 -20 1245 -20 c 0,28,29
 1076 -20 1076 -20 952 97 c 0,30,31
 935 113 935 113 920 131 c 1,32,33
 904 114 904 114 888 97 c 0,34,0
 766 -20 766 -20 594.5 -20 c 128,-1,1
1058 1458 m 128,-1,36
 1105 1458 1105 1458 1137 1424 c 128,-1,37
 1169 1390 1169 1390 1169 1344 c 128,-1,38
 1169 1298 1169 1298 1137 1264 c 128,-1,39
 1105 1230 1105 1230 1058 1230 c 128,-1,40
 1011 1230 1011 1230 979 1264 c 128,-1,41
 947 1298 947 1298 947 1344 c 128,-1,42
 947 1390 947 1390 979 1424 c 128,-1,35
 1011 1458 1011 1458 1058 1458 c 128,-1,36
781 1457 m 128,-1,44
 827 1457 827 1457 860 1423.5 c 128,-1,45
 893 1390 893 1390 893 1343.5 c 128,-1,46
 893 1297 893 1297 860 1263.5 c 128,-1,47
 827 1230 827 1230 781 1230 c 128,-1,48
 735 1230 735 1230 702 1263.5 c 128,-1,49
 669 1297 669 1297 669 1343.5 c 128,-1,50
 669 1390 669 1390 702 1423.5 c 128,-1,43
 735 1457 735 1457 781 1457 c 128,-1,44
EndSplineSet
Validated: 1
EndChar

StartChar: Ygrave
Encoding: 7922 7922 192
Width: 1230
Flags: W
HStem: -20 21G<515 567.222> 438 172<458.222 515 715 771.048> 1510 20G<267.778 320 1057.78 1110>
VStem: 120 200<742.395 1440> 515 200<70 447.575> 910 200<746.453 1440>
DStem2: 602 1937 472 1880 0.427336 -0.904093<0 339.921>
CounterMasks: 1 1c
LayerCount: 2
Fore
SplineSet
515 -20 m 1,0,-1
 515 438 l 1,1,2
 380 462 380 462 267 571 c 0,3,4
 120 712 120 712 120 924 c 2,5,-1
 120 1440 l 1,6,-1
 310 1530 l 1,7,-1
 320 1530 l 1,8,-1
 320 898 l 2,9,10
 320 771 320 771 409 690.5 c 128,-1,11
 498 610 498 610 614.5 610 c 128,-1,12
 731 610 731 610 820.5 690.5 c 128,-1,13
 910 771 910 771 910 898 c 2,14,-1
 910 1440 l 1,15,-1
 1100 1530 l 1,16,-1
 1110 1530 l 1,17,-1
 1110 924 l 2,18,19
 1110 712 1110 712 962 571 c 0,20,21
 850 463 850 463 715 439 c 1,22,-1
 715 70 l 1,23,-1
 525 -20 l 1,24,-1
 515 -20 l 1,0,-1
592 1937 m 1,25,-1
 602 1937 l 1,26,-1
 749 1626 l 1,27,-1
 631 1570 l 1,28,-1
 621 1570 l 1,29,-1
 472 1880 l 1,30,-1
 592 1937 l 1,25,-1
EndSplineSet
Validated: 1
EndChar

StartChar: ygrave
Encoding: 7923 7923 193
Width: 1210
Flags: W
HStem: -410 160<391 735.834> -20 160<453.542 737.507> 1100 20G<308.025 360 958.025 1010> 1507 20G<492.895 554.453>
VStem: 180 180<232.811 1039> 830 180<-157.189 69 230.762 1039>
DStem2: 545 1527 415 1470 0.427336 -0.904093<0 339.921>
LayerCount: 2
Fore
SplineSet
320 -410 m 1,0,-1
 320 -400 l 1,1,-1
 391 -250 l 1,2,-1
 595 -250 l 2,3,4
 693 -250 693 -250 761.5 -186.5 c 128,-1,5
 830 -123 830 -123 830 -24 c 2,6,-1
 830 69 l 1,7,8
 727 -20 727 -20 595 -20 c 0,9,10
 423 -20 423 -20 301.5 97 c 128,-1,11
 180 214 180 214 180 388 c 2,12,-1
 180 1039 l 1,13,-1
 350 1120 l 1,14,-1
 360 1120 l 1,15,-1
 360 366 l 2,16,17
 360 267 360 267 428.5 203.5 c 128,-1,18
 497 140 497 140 595 140 c 128,-1,19
 693 140 693 140 761.5 203.5 c 128,-1,20
 830 267 830 267 830 366 c 2,21,-1
 830 1039 l 1,22,-1
 1000 1120 l 1,23,-1
 1010 1120 l 1,24,-1
 1010 -2 l 2,25,26
 1010 -176 1010 -176 888.5 -293 c 128,-1,27
 767 -410 767 -410 595 -410 c 2,28,-1
 320 -410 l 1,0,-1
535 1527 m 1,29,-1
 545 1527 l 1,30,-1
 692 1216 l 1,31,-1
 574 1160 l 1,32,-1
 564 1160 l 1,33,-1
 415 1470 l 1,34,-1
 535 1527 l 1,29,-1
EndSplineSet
Validated: 1
EndChar

StartChar: AE
Encoding: 198 198 194
Width: 1688
Flags: W
HStem: -20 21G<180 232.222> 0 180<1028 1558> 665 180<380 828 1028 1508> 1330 180<1028 1508> 1350 180<520.1 826.106>
VStem: 180 200<70 665 845 1213.55> 828 200<180 665 845 1329.54>
LayerCount: 2
Fore
SplineSet
1558 0 m 1,0,-1
 828 0 l 1,1,-1
 828 665 l 1,2,-1
 380 665 l 1,3,-1
 380 70 l 1,4,-1
 190 -20 l 1,5,-1
 180 -20 l 1,6,-1
 180 1036 l 2,7,8
 180 1248 180 1248 328 1389 c 128,-1,9
 476 1530 476 1530 686 1530 c 0,10,11
 765 1530 765 1530 835 1510 c 1,12,-1
 1588 1510 l 1,13,-1
 1588 1500 l 1,14,-1
 1508 1330 l 1,15,-1
 1028 1330 l 1,16,-1
 1028 845 l 1,17,-1
 1588 845 l 1,18,-1
 1588 835 l 1,19,-1
 1508 665 l 1,20,-1
 1028 665 l 1,21,-1
 1028 180 l 1,22,-1
 1638 180 l 1,23,-1
 1638 170 l 1,24,-1
 1558 0 l 1,0,-1
828 1319 m 1,25,26
 764 1350 764 1350 686 1350 c 0,27,28
 560 1350 560 1350 470 1269.5 c 128,-1,29
 380 1189 380 1189 380 1062 c 2,30,-1
 380 845 l 1,31,-1
 828 845 l 1,32,-1
 828 1319 l 1,25,26
EndSplineSet
Validated: 1
EndChar

StartChar: Eth
Encoding: 208 208 195
Width: 1350
Flags: W
HStem: 0 180<400 851.463> 695 120<92 200 400 678> 1330 180<400 850.378>
VStem: 200 200<180 695 815 1330> 990 200<311.847 1193.55>
CounterMasks: 1 e0
LayerCount: 2
Fore
SplineSet
400 180 m 1,0,-1
 685 180 l 2,1,2
 810 180 810 180 900 260 c 128,-1,3
 990 340 990 340 990 468 c 2,4,-1
 990 1042 l 2,5,6
 990 1169 990 1169 900.5 1249.5 c 128,-1,7
 811 1330 811 1330 685 1330 c 2,8,-1
 400 1330 l 1,9,-1
 400 815 l 1,10,-1
 730 815 l 1,11,-1
 730 805 l 1,12,-1
 678 695 l 1,13,-1
 400 695 l 1,14,-1
 400 180 l 1,0,-1
200 0 m 1,15,-1
 200 695 l 1,16,-1
 40 695 l 1,17,-1
 40 705 l 1,18,-1
 92 815 l 1,19,-1
 200 815 l 1,20,-1
 200 1440 l 1,21,-1
 348 1510 l 1,22,-1
 685 1510 l 2,23,24
 896 1510 896 1510 1043 1369 c 128,-1,25
 1190 1228 1190 1228 1190 1016 c 2,26,-1
 1190 494 l 2,27,28
 1190 284 1190 284 1042 141 c 0,29,30
 896 0 896 0 685 0 c 2,31,-1
 200 0 l 1,15,-1
EndSplineSet
Validated: 1
EndChar

StartChar: Dcroat
Encoding: 272 272 196
Width: 1350
Flags: W
HStem: 0 180<400 851.463> 695 120<92 200 400 678> 1330 180<400 850.378>
VStem: 200 200<180 695 815 1330> 990 200<311.847 1193.55>
CounterMasks: 1 e0
LayerCount: 2
Fore
SplineSet
400 180 m 5,0,-1
 685 180 l 6,1,2
 810 180 810 180 900 260 c 132,-1,3
 990 340 990 340 990 468 c 6,4,-1
 990 1042 l 6,5,6
 990 1169 990 1169 900.5 1249.5 c 132,-1,7
 811 1330 811 1330 685 1330 c 6,8,-1
 400 1330 l 5,9,-1
 400 815 l 5,10,-1
 730 815 l 5,11,-1
 730 805 l 5,12,-1
 678 695 l 5,13,-1
 400 695 l 5,14,-1
 400 180 l 5,0,-1
200 0 m 5,15,-1
 200 695 l 5,16,-1
 40 695 l 5,17,-1
 40 705 l 5,18,-1
 92 815 l 5,19,-1
 200 815 l 5,20,-1
 200 1440 l 5,21,-1
 348 1510 l 5,22,-1
 685 1510 l 6,23,24
 896 1510 896 1510 1043 1369 c 132,-1,25
 1190 1228 1190 1228 1190 1016 c 6,26,-1
 1190 494 l 6,27,28
 1190 284 1190 284 1042 141 c 4,29,30
 896 0 896 0 685 0 c 6,31,-1
 200 0 l 5,15,-1
EndSplineSet
Validated: 1
EndChar

StartChar: Hbar
Encoding: 294 294 197
Width: 1400
Flags: W
HStem: -20 21G<200 252.222 1000 1052.22> 665 180<400 1000> 1250 120<92 200 400 1000 1200 1308> 1510 20G<347.778 400 1147.78 1200>
VStem: 200 200<70 665 845 1250 1370 1440> 1000 200<70 665 845 1250 1370 1440>
LayerCount: 2
Fore
SplineSet
210 -20 m 1,0,-1
 200 -20 l 1,1,-1
 200 1250 l 1,2,-1
 40 1250 l 1,3,-1
 40 1260 l 1,4,-1
 92 1370 l 1,5,-1
 200 1370 l 1,6,-1
 200 1440 l 1,7,-1
 390 1530 l 1,8,-1
 400 1530 l 1,9,-1
 400 1370 l 1,10,-1
 1000 1370 l 1,11,-1
 1000 1440 l 1,12,-1
 1190 1530 l 1,13,-1
 1200 1530 l 1,14,-1
 1200 1370 l 1,15,-1
 1360 1370 l 1,16,-1
 1360 1360 l 1,17,-1
 1308 1250 l 1,18,-1
 1200 1250 l 1,19,-1
 1200 70 l 1,20,-1
 1010 -20 l 1,21,-1
 1000 -20 l 1,22,-1
 1000 665 l 1,23,-1
 400 665 l 1,24,-1
 400 70 l 1,25,-1
 210 -20 l 1,0,-1
400 1250 m 1,26,-1
 400 845 l 1,27,-1
 1000 845 l 1,28,-1
 1000 1250 l 1,29,-1
 400 1250 l 1,26,-1
EndSplineSet
Validated: 1
EndChar

StartChar: IJ
Encoding: 306 306 198
Width: 1660
Flags: W
HStem: -20 180<846.548 1166.21> 1330 180<715 1300> 1510 20G<347.778 400>
VStem: 200 200<70 1440> 520 189<292.395 369.808> 1300 200<290.851 1330>
LayerCount: 2
Fore
SplineSet
200 -20 m 1,0,-1
 200 1440 l 1,1,-1
 390 1530 l 1,2,-1
 400 1530 l 1,3,-1
 400 70 l 1,4,-1
 210 -20 l 1,5,-1
 200 -20 l 1,0,-1
1008.5 -20 m 128,-1,7
 803 -20 803 -20 656 121 c 0,8,9
 550 223 550 223 520 363 c 1,10,-1
 699 448 l 1,11,-1
 709 448 l 9,12,13
 709 321 709 321 798 240.5 c 128,-1,14
 887 160 887 160 1008.5 160 c 128,-1,15
 1130 160 1130 160 1215 240.5 c 128,-1,16
 1300 321 1300 321 1300 448 c 18,17,-1
 1300 1330 l 1,18,-1
 635 1330 l 1,19,-1
 635 1340 l 1,20,-1
 715 1510 l 1,21,-1
 1500 1510 l 1,22,-1
 1500 474 l 2,23,24
 1500 262 1500 262 1357 121 c 128,-1,6
 1214 -20 1214 -20 1008.5 -20 c 128,-1,7
EndSplineSet
Validated: 1
EndChar

StartChar: lslash
Encoding: 322 322 199
Width: 684
Flags: W
HStem: -20 21G<252 303.975> 1510 20G<380.025 432>
VStem: 252 180<61 647 863 1449>
DStem2: 50 685 55 555 0.906303 0.422628<0 167.013 421.436 588.026>
LayerCount: 2
Fore
SplineSet
262 -20 m 1,0,-1
 252 -20 l 1,1,-1
 252 647 l 1,2,-1
 55 555 l 1,3,-1
 50 564 l 1,4,-1
 50 685 l 1,5,-1
 252 779 l 1,6,-1
 252 1449 l 1,7,-1
 422 1530 l 1,8,-1
 432 1530 l 1,9,-1
 432 863 l 1,10,-1
 629 955 l 1,11,-1
 634 946 l 1,12,-1
 634 824 l 1,13,-1
 432 730 l 1,14,-1
 432 61 l 1,15,-1
 262 -20 l 1,0,-1
EndSplineSet
Validated: 1
EndChar

StartChar: Lslash
Encoding: 321 321 200
Width: 1020
Flags: W
HStem: 0 180<400 930> 1510 20G<347.778 400>
VStem: 200 200<180 590 816 1440>
DStem2: 120 686 200 590 0.906902 0.421341<0 32.1034 308.707 587.776>
LayerCount: 2
Fore
SplineSet
200 0 m 1,0,-1
 200 590 l 1,1,-1
 125 555 l 1,2,-1
 120 564 l 1,3,-1
 120 686 l 1,4,-1
 200 723 l 1,5,-1
 200 1440 l 1,6,-1
 390 1530 l 1,7,-1
 400 1530 l 1,8,-1
 400 816 l 1,9,-1
 699 955 l 1,10,-1
 704 946 l 1,11,-1
 704 824 l 1,12,-1
 400 683 l 1,13,-1
 400 180 l 1,14,-1
 1010 180 l 1,15,-1
 1010 170 l 1,16,-1
 930 0 l 1,17,-1
 200 0 l 1,0,-1
EndSplineSet
Validated: 1
EndChar

StartChar: Eng
Encoding: 330 330 201
Width: 1370
Flags: W
HStem: -410 21G<686 791> -20 21G<180 232.222> 1350 180<519.38 851.44>
VStem: 180 200<70 1213.55> 990 200<-93.5471 1217.6>
LayerCount: 2
Fore
SplineSet
190 -20 m 1,0,-1
 180 -20 l 9,1,-1
 180 1036 l 2,2,3
 180 1248 180 1248 327.5 1389 c 128,-1,4
 475 1530 475 1530 685.5 1530 c 128,-1,5
 896 1530 896 1530 1043 1389 c 128,-1,6
 1190 1248 1190 1248 1190 1036 c 2,7,-1
 1190 84 l 18,8,9
 1190 -128 1190 -128 1043 -269 c 128,-1,10
 896 -410 896 -410 686 -410 c 1,11,-1
 686 -400 l 1,12,-1
 770 -220 l 1,13,14
 844 -201 844 -201 901 -150 c 0,15,16
 990 -68 990 -68 990 58 c 26,17,-1
 990 1062 l 2,18,19
 990 1189 990 1189 901 1269.5 c 128,-1,20
 812 1350 812 1350 685.5 1350 c 128,-1,21
 559 1350 559 1350 469.5 1269.5 c 128,-1,22
 380 1189 380 1189 380 1062 c 2,23,-1
 380 70 l 17,24,-1
 190 -20 l 1,0,-1
EndSplineSet
Validated: 1
EndChar

StartChar: OE
Encoding: 338 338 202
Width: 1674
Flags: W
HStem: -20 180<498.549 812.372> 0 180<1014 1544> 665 180<1014 1494> 1330 180<1014 1494> 1350 180<500.1 812.372>
VStem: 160 200<296.453 1213.55> 814 200<180.752 665 845 1329.25>
LayerCount: 2
Fore
SplineSet
1544 0 m 1,0,-1
 815 0 l 1,1,2
 745 -20 745 -20 666 -20 c 0,3,4
 456 -20 456 -20 308 121 c 128,-1,5
 160 262 160 262 160 474 c 2,6,-1
 160 1036 l 2,7,8
 160 1248 160 1248 308 1389 c 128,-1,9
 456 1530 456 1530 666 1530 c 0,10,11
 745 1530 745 1530 815 1510 c 1,12,-1
 1574 1510 l 1,13,-1
 1574 1500 l 1,14,-1
 1494 1330 l 1,15,-1
 1014 1330 l 1,16,-1
 1014 845 l 1,17,-1
 1574 845 l 1,18,-1
 1574 835 l 1,19,-1
 1494 665 l 1,20,-1
 1014 665 l 1,21,-1
 1014 180 l 1,22,-1
 1624 180 l 1,23,-1
 1624 170 l 1,24,-1
 1544 0 l 1,0,-1
814 194 m 1,25,-1
 814 1316 l 1,26,27
 748 1350 748 1350 666 1350 c 0,28,29
 540 1350 540 1350 450 1269.5 c 128,-1,30
 360 1189 360 1189 360 1062 c 2,31,-1
 360 448 l 2,32,33
 360 321 360 321 450 240 c 0,34,35
 540 160 540 160 666 160 c 0,36,37
 748 160 748 160 814 194 c 1,25,-1
EndSplineSet
Validated: 1
EndChar

StartChar: Thorn
Encoding: 222 222 203
Width: 1210
VWidth: 1798
Flags: W
HStem: -20 21G<200 252.222> 250 180<400 820.791> 1080 180<400 820.791> 1510 20G<347.778 400>
VStem: 200 200<70 250 430 1080 1260 1440> 960 200<583 926.182>
LayerCount: 2
Fore
SplineSet
200 -20 m 1,0,-1
 200 1440 l 1,1,-1
 390 1530 l 1,2,-1
 400 1530 l 1,3,-1
 400 1260 l 1,4,-1
 666 1260 l 2,5,6
 878 1260 878 1260 1019 1112.5 c 128,-1,7
 1160 965 1160 965 1160 754.5 c 128,-1,8
 1160 544 1160 544 1019 397 c 128,-1,9
 878 250 878 250 666 250 c 2,10,-1
 400 250 l 1,11,-1
 400 70 l 1,12,-1
 210 -20 l 1,13,-1
 200 -20 l 1,0,-1
400 1080 m 1,14,-1
 400 430 l 1,15,-1
 672 430 l 2,16,17
 799 430 799 430 879.5 529 c 128,-1,18
 960 628 960 628 960 754.5 c 128,-1,19
 960 881 960 881 879.5 980.5 c 128,-1,20
 799 1080 799 1080 672 1080 c 2,21,-1
 400 1080 l 1,14,-1
EndSplineSet
Validated: 1
EndChar

StartChar: Tbar
Encoding: 358 358 204
Width: 1070
Flags: W
HStem: -20 21G<435 487.222> 460 120<292 435 635 778> 1330 180<90 435 635 980>
VStem: 435 200<70 460 580 1330>
LayerCount: 2
Fore
SplineSet
445 -20 m 1,0,-1
 435 -20 l 1,1,-1
 435 460 l 1,2,-1
 240 460 l 1,3,-1
 240 470 l 1,4,-1
 292 580 l 1,5,-1
 435 580 l 1,6,-1
 435 1330 l 1,7,-1
 10 1330 l 1,8,-1
 10 1340 l 1,9,-1
 90 1510 l 1,10,-1
 1060 1510 l 1,11,-1
 1060 1500 l 1,12,-1
 980 1330 l 1,13,-1
 635 1330 l 1,14,-1
 635 580 l 1,15,-1
 830 580 l 1,16,-1
 830 570 l 1,17,-1
 778 460 l 1,18,-1
 635 460 l 1,19,-1
 635 70 l 1,20,-1
 445 -20 l 1,0,-1
EndSplineSet
Validated: 1
EndChar

StartChar: tbar
Encoding: 359 359 205
Width: 780
Flags: W
HStem: -20 21G<300 351.975> 460 120<152 300 480 628> 940 160<81 300 480 699> 1510 20G<428.025 480>
VStem: 300 180<61 460 580 940 1100 1449>
LayerCount: 2
Fore
SplineSet
310 -20 m 1,0,-1
 300 -20 l 1,1,-1
 300 460 l 1,2,-1
 100 460 l 1,3,-1
 100 470 l 1,4,-1
 152 580 l 1,5,-1
 300 580 l 1,6,-1
 300 940 l 1,7,-1
 10 940 l 1,8,-1
 10 950 l 1,9,-1
 81 1100 l 1,10,-1
 300 1100 l 1,11,-1
 300 1449 l 1,12,-1
 470 1530 l 1,13,-1
 480 1530 l 1,14,-1
 480 1100 l 1,15,-1
 770 1100 l 1,16,-1
 770 1090 l 1,17,-1
 699 940 l 1,18,-1
 480 940 l 1,19,-1
 480 580 l 1,20,-1
 680 580 l 1,21,-1
 680 570 l 1,22,-1
 628 460 l 1,23,-1
 480 460 l 1,24,-1
 480 61 l 1,25,-1
 310 -20 l 1,0,-1
EndSplineSet
Validated: 1
EndChar

StartChar: thorn
Encoding: 254 254 206
Width: 1190
Flags: W
HStem: -430 21G<200 251.975> -20 160<472.493 756.458> 960 160<472.493 756.458> 1510 20G<328.025 380>
VStem: 200 180<-349 69 230.762 869.238 1031 1449> 850 180<232.811 867.189>
LayerCount: 2
Fore
SplineSet
200 -430 m 1,0,-1
 200 1449 l 1,1,-1
 370 1530 l 1,2,-1
 380 1530 l 1,3,-1
 380 1031 l 1,4,5
 483 1120 483 1120 615 1120 c 0,6,7
 787 1120 787 1120 908.5 1003 c 128,-1,8
 1030 886 1030 886 1030 712 c 2,9,-1
 1030 388 l 2,10,11
 1030 214 1030 214 908.5 97 c 128,-1,12
 787 -20 787 -20 615 -20 c 0,13,14
 483 -20 483 -20 380 69 c 1,15,-1
 380 -349 l 1,16,-1
 210 -430 l 1,17,-1
 200 -430 l 1,0,-1
615 140 m 128,-1,19
 713 140 713 140 781.5 203.5 c 128,-1,20
 850 267 850 267 850 366 c 2,21,-1
 850 734 l 2,22,23
 850 833 850 833 781.5 896.5 c 128,-1,24
 713 960 713 960 615 960 c 128,-1,25
 517 960 517 960 448.5 896.5 c 128,-1,26
 380 833 380 833 380 734 c 2,27,-1
 380 366 l 2,28,29
 380 267 380 267 448.5 203.5 c 128,-1,18
 517 140 517 140 615 140 c 128,-1,19
EndSplineSet
Validated: 1
EndChar

StartChar: eth
Encoding: 240 240 207
Width: 1150
Flags: W
HStem: -20 160<433.542 716.458> 960 160<434.672 593.116> 1510 20G<424 489.446 695.241 743>
VStem: 160 180<232.811 866.955> 810 180<232.811 869.238>
DStem2: 295 1309 300 1180 0.905974 0.423333<0 112.729 309.614 438.473>
LayerCount: 2
Fore
SplineSet
575 140 m 128,-1,1
 673 140 673 140 741.5 203.5 c 128,-1,2
 810 267 810 267 810 366 c 2,3,-1
 810 734 l 2,4,5
 810 833 810 833 741.5 896.5 c 128,-1,6
 673 960 673 960 575 960 c 128,-1,7
 477 960 477 960 408.5 896.5 c 128,-1,8
 340 833 340 833 340 734 c 2,9,-1
 340 366 l 2,10,11
 340 267 340 267 408.5 203.5 c 128,-1,0
 477 140 477 140 575 140 c 128,-1,1
575 -20 m 128,-1,13
 403 -20 403 -20 281.5 97 c 128,-1,14
 160 214 160 214 160 388 c 2,15,-1
 160 712 l 2,16,17
 160 886 160 886 280 1002 c 0,18,19
 402 1120 402 1120 595 1120 c 1,20,-1
 477 1262 l 1,21,-1
 300 1180 l 1,22,-1
 295 1189 l 1,23,-1
 295 1309 l 1,24,-1
 397 1357 l 1,25,-1
 314 1455 l 1,26,-1
 464 1530 l 1,27,-1
 474 1530 l 1,28,-1
 552 1429 l 1,29,-1
 738 1516 l 1,30,-1
 743 1507 l 1,31,-1
 743 1386 l 1,32,-1
 626 1332 l 1,33,-1
 891 986 l 2,34,35
 990 857 990 857 990 712 c 2,36,-1
 990 388 l 2,37,38
 990 214 990 214 868.5 97 c 128,-1,12
 747 -20 747 -20 575 -20 c 128,-1,13
EndSplineSet
Validated: 1
EndChar

StartChar: oe
Encoding: 339 339 208
Width: 1737
Flags: W
HStem: -20 160<433.542 716.164 1020.17 1303.76> 960 160<433.542 716.164 1020.67 1303.46>
VStem: 160 180<232.811 867.189> 810 180<241.783 363 538 858.872> 1397 180<734 867.189>
DStem2: 990 538 989 363 0.902264 0.431184<0 467.507>
LayerCount: 2
Fore
SplineSet
575 140 m 128,-1,1
 673 140 673 140 741.5 203.5 c 128,-1,2
 810 267 810 267 810 366 c 2,3,-1
 810 734 l 2,4,5
 810 833 810 833 741.5 896.5 c 128,-1,6
 673 960 673 960 575 960 c 128,-1,7
 477 960 477 960 408.5 896.5 c 128,-1,8
 340 833 340 833 340 734 c 2,9,-1
 340 366 l 2,10,11
 340 267 340 267 408.5 203.5 c 128,-1,0
 477 140 477 140 575 140 c 128,-1,1
575 -20 m 0,12,13
 403 -20 403 -20 281.5 97 c 128,-1,14
 160 214 160 214 160 388 c 2,15,-1
 160 712 l 2,16,17
 160 886 160 886 281.5 1003 c 128,-1,18
 403 1120 403 1120 575 1120 c 0,19,20
 746 1120 746 1120 868 1003 c 1,21,22
 990 1120 990 1120 1162 1120 c 128,-1,23
 1334 1120 1334 1120 1455.5 1003 c 128,-1,24
 1577 886 1577 886 1577 712 c 2,25,-1
 1577 644 l 1,26,-1
 989 363 l 1,27,28
 986 297 986 297 964 240 c 1,29,30
 977 221 977 221 995 204 c 0,31,32
 1063 140 1063 140 1161 140 c 0,33,34
 1261 140 1261 140 1329 204 c 0,35,36
 1373 245 1373 245 1389 303 c 1,37,-1
 1567 388 l 1,38,-1
 1577 388 l 1,39,40
 1577 214 1577 214 1455.5 97 c 128,-1,41
 1334 -20 1334 -20 1162 -20 c 128,-1,42
 990 -20 990 -20 868 97 c 1,43,44
 746 -20 746 -20 575 -20 c 0,12,13
1397 734 m 1,45,46
 1397 833 1397 833 1328.5 896.5 c 128,-1,47
 1260 960 1260 960 1162 960 c 128,-1,48
 1064 960 1064 960 996 896 c 0,49,50
 978 879 978 879 964 861 c 1,51,52
 990 793 990 793 990 712 c 2,53,-1
 990 538 l 1,54,-1
 1397 734 l 1,45,46
EndSplineSet
Validated: 1
EndChar

StartChar: eng
Encoding: 331 331 209
Width: 1190
Flags: W
HStem: -410 21G<595 681> -20 21G<180 231.975> 960 160<453.494 736.458>
VStem: 180 180<61 867.189> 830 180<-157.189 867.189>
LayerCount: 2
Fore
SplineSet
190 -20 m 1,0,-1
 180 -20 l 9,1,-1
 180 712 l 2,2,3
 180 886 180 886 301 1003 c 0,4,5
 423 1120 423 1120 595 1120 c 128,-1,6
 767 1120 767 1120 888.5 1003 c 128,-1,7
 1010 886 1010 886 1010 712 c 2,8,-1
 1010 -2 l 18,9,10
 1010 -176 1010 -176 888.5 -293 c 128,-1,11
 767 -410 767 -410 595 -410 c 1,12,-1
 595 -400 l 1,13,-1
 671 -239 l 1,14,15
 721 -224 721 -224 762 -186 c 0,16,17
 830 -123 830 -123 830 -24 c 10,18,-1
 830 734 l 2,19,20
 830 833 830 833 761.5 896.5 c 128,-1,21
 693 960 693 960 595 960 c 128,-1,22
 497 960 497 960 428.5 896.5 c 128,-1,23
 360 833 360 833 360 734 c 2,24,-1
 360 61 l 17,25,-1
 190 -20 l 1,0,-1
EndSplineSet
Validated: 1
EndChar

StartChar: kgreenlandic
Encoding: 312 312 210
Width: 1170
Flags: W
HStem: -20 21G<200 251.975 830 881.975> 1100 20G<328.025 380 796.582 868>
VStem: 200 180<61 553.623 711 1039> 830 180<61 547.189>
DStem2: 380 711 672 783 0.730889 0.682497<262.559 599.27>
LayerCount: 2
Fore
SplineSet
200 -20 m 1,0,-1
 200 1039 l 1,1,-1
 370 1120 l 1,2,-1
 380 1120 l 1,3,-1
 380 711 l 1,4,-1
 818 1120 l 1,5,-1
 828 1120 l 1,6,-1
 968 1050 l 1,7,-1
 672 783 l 1,8,9
 804 765 804 765 888 683 c 0,10,11
 1010 566 1010 566 1010 392 c 2,12,-1
 1010 61 l 1,13,-1
 840 -20 l 1,14,-1
 830 -20 l 1,15,-1
 830 414 l 2,16,17
 830 513 830 513 761.5 576.5 c 128,-1,18
 693 640 693 640 600 640 c 128,-1,19
 507 640 507 640 443.5 576.5 c 128,-1,20
 380 513 380 513 380 414 c 2,21,-1
 380 61 l 1,22,-1
 210 -20 l 1,23,-1
 200 -20 l 1,0,-1
EndSplineSet
Validated: 1
EndChar

StartChar: ij
Encoding: 307 307 211
Width: 1100
Flags: W
HStem: -410 21G<485 571> -20 21G<200 251.975> 1100 20G<328.025 380 848.025 900> 1220 245<206.097 373.903 726.097 893.903>
VStem: 170 240<1257.13 1427.87> 200 180<61 1039> 690 240<1257.13 1427.87> 720 180<-157.189 1039>
LayerCount: 2
Fore
SplineSet
485 -410 m 1,0,-1
 485 -400 l 1,1,-1
 561 -239 l 1,2,3
 611 -224 611 -224 652 -186 c 0,4,5
 720 -123 720 -123 720 -24 c 2,6,-1
 720 1039 l 17,7,-1
 890 1120 l 1,8,-1
 900 1120 l 9,9,-1
 900 -2 l 2,10,11
 900 -176 900 -176 778.5 -293 c 128,-1,12
 657 -410 657 -410 485 -410 c 1,0,-1
200 -20 m 1,13,-1
 200 1039 l 1,14,-1
 370 1120 l 1,15,-1
 380 1120 l 1,16,-1
 380 61 l 1,17,-1
 210 -20 l 1,18,-1
 200 -20 l 1,13,-1
810 1465 m 128,-1,20
 860 1465 860 1465 895 1429 c 128,-1,21
 930 1393 930 1393 930 1342.5 c 128,-1,22
 930 1292 930 1292 895 1256 c 128,-1,23
 860 1220 860 1220 810 1220 c 128,-1,24
 760 1220 760 1220 725 1256 c 128,-1,25
 690 1292 690 1292 690 1342.5 c 128,-1,26
 690 1393 690 1393 725 1429 c 128,-1,19
 760 1465 760 1465 810 1465 c 128,-1,20
290 1465 m 128,-1,28
 340 1465 340 1465 375 1429 c 128,-1,29
 410 1393 410 1393 410 1342.5 c 128,-1,30
 410 1292 410 1292 375 1256 c 128,-1,31
 340 1220 340 1220 290 1220 c 128,-1,32
 240 1220 240 1220 205 1256 c 128,-1,33
 170 1292 170 1292 170 1342.5 c 128,-1,34
 170 1393 170 1393 205 1429 c 128,-1,27
 240 1465 240 1465 290 1465 c 128,-1,28
EndSplineSet
Validated: 1
EndChar

StartChar: hbar
Encoding: 295 295 212
Width: 1210
Flags: W
HStem: -20 21G<200 251.975 850 901.975> 960 160<472.493 756.458> 1250 120<92 200 380 528> 1510 20G<328.025 380>
VStem: 200 180<61 869.238 1031 1250 1370 1449> 850 180<61 867.189>
LayerCount: 2
Fore
SplineSet
210 -20 m 1,0,-1
 200 -20 l 1,1,-1
 200 1250 l 1,2,-1
 40 1250 l 1,3,-1
 40 1260 l 1,4,-1
 92 1370 l 1,5,-1
 200 1370 l 1,6,-1
 200 1449 l 1,7,-1
 370 1530 l 1,8,-1
 380 1530 l 1,9,-1
 380 1370 l 1,10,-1
 580 1370 l 1,11,-1
 580 1360 l 1,12,-1
 528 1250 l 1,13,-1
 380 1250 l 1,14,-1
 380 1031 l 1,15,16
 483 1120 483 1120 615 1120 c 0,17,18
 787 1120 787 1120 908.5 1003 c 128,-1,19
 1030 886 1030 886 1030 712 c 2,20,-1
 1030 61 l 1,21,-1
 860 -20 l 1,22,-1
 850 -20 l 1,23,-1
 850 734 l 2,24,25
 850 833 850 833 781.5 896.5 c 128,-1,26
 713 960 713 960 615 960 c 128,-1,27
 517 960 517 960 448.5 896.5 c 128,-1,28
 380 833 380 833 380 734 c 2,29,-1
 380 61 l 1,30,-1
 210 -20 l 1,0,-1
EndSplineSet
Validated: 1
EndChar

StartChar: longs
Encoding: 383 383 213
Width: 820
Flags: W
HStem: -20 21G<220 271.975> 740 160<81 220> 1350 160<494.166 739>
VStem: 220 180<61 740 900 1257.19>
LayerCount: 2
Fore
SplineSet
220 -20 m 1,0,-1
 220 740 l 1,1,-1
 10 740 l 1,2,-1
 10 750 l 1,3,-1
 81 900 l 1,4,-1
 220 900 l 1,5,-1
 220 1102 l 2,6,7
 220 1276 220 1276 341.5 1393 c 128,-1,8
 463 1510 463 1510 635 1510 c 2,9,-1
 810 1510 l 1,10,-1
 810 1500 l 1,11,-1
 739 1350 l 1,12,-1
 635 1350 l 2,13,14
 537 1350 537 1350 468.5 1286.5 c 128,-1,15
 400 1223 400 1223 400 1124 c 2,16,-1
 400 61 l 1,17,-1
 230 -20 l 1,18,-1
 220 -20 l 1,0,-1
EndSplineSet
Validated: 1
EndChar

StartChar: florin
Encoding: 402 402 214
Width: 800
Flags: W
HStem: -410 21G<-35 51> 740 160<380 680> 1350 160<474.166 719>
VStem: 200 180<-157.189 740 900 1257.19>
LayerCount: 2
Fore
SplineSet
-35 -410 m 1,0,1
 -35 -400 l 1,2,-1
 41 -239 l 1,3,4
 91 -224 91 -224 132 -186 c 0,5,6
 200 -123 200 -123 200 -24 c 2,7,-1
 200 1102 l 2,8,9
 200 1276 200 1276 321.5 1393 c 128,-1,10
 443 1510 443 1510 615 1510 c 2,11,-1
 790 1510 l 1,12,-1
 790 1500 l 1,13,-1
 719 1350 l 1,14,-1
 615 1350 l 2,15,16
 517 1350 517 1350 448.5 1286.5 c 128,-1,17
 380 1223 380 1223 380 1124 c 2,18,-1
 380 900 l 1,19,-1
 751 900 l 1,20,-1
 751 890 l 1,21,-1
 680 740 l 1,22,-1
 380 740 l 1,23,-1
 380 -2 l 2,24,25
 380 -176 380 -176 258.5 -293 c 128,-1,26
 137 -410 137 -410 -35 -410 c 1,0,1
EndSplineSet
Validated: 1
EndChar

StartChar: dcroat
Encoding: 273 273 215
Width: 1170
Flags: W
HStem: -20 160<433.542 716.458> 960 160<433.542 717.507> 1250 120<662 810 990 1098> 1510 20G<938.025 990>
VStem: 160 180<232.811 867.189> 810 180<232.811 869.238 1031 1250 1370 1449>
LayerCount: 2
Fore
SplineSet
575 960 m 128,-1,1
 477 960 477 960 408.5 896.5 c 128,-1,2
 340 833 340 833 340 734 c 2,3,-1
 340 366 l 2,4,5
 340 267 340 267 408.5 203.5 c 128,-1,6
 477 140 477 140 575 140 c 128,-1,7
 673 140 673 140 741.5 203.5 c 128,-1,8
 810 267 810 267 810 366 c 2,9,-1
 810 734 l 2,10,11
 810 833 810 833 741.5 896.5 c 128,-1,0
 673 960 673 960 575 960 c 128,-1,1
575 -20 m 128,-1,13
 403 -20 403 -20 281.5 97 c 128,-1,14
 160 214 160 214 160 388 c 2,15,-1
 160 712 l 2,16,17
 160 886 160 886 281.5 1003 c 128,-1,18
 403 1120 403 1120 575 1120 c 0,19,20
 707 1120 707 1120 810 1031 c 1,21,-1
 810 1250 l 1,22,-1
 610 1250 l 1,23,-1
 610 1260 l 1,24,-1
 662 1370 l 1,25,-1
 810 1370 l 1,26,-1
 810 1449 l 1,27,-1
 980 1530 l 1,28,-1
 990 1530 l 1,29,-1
 990 1370 l 1,30,-1
 1150 1370 l 1,31,-1
 1150 1360 l 1,32,-1
 1098 1250 l 1,33,-1
 990 1250 l 1,34,-1
 990 388 l 2,35,36
 990 214 990 214 868.5 97 c 128,-1,12
 747 -20 747 -20 575 -20 c 128,-1,13
EndSplineSet
Validated: 1
EndChar

StartChar: germandbls
Encoding: 223 223 216
Width: 1179
Flags: W
HStem: -20 160<586 767.797> 761 160<585 738.873> 1372 158<448.403 745.293>
VStem: 180 180<61 1288.58> 830 180<1013.56 1290.87> 919 180<298.859 631.207>
LayerCount: 2
Fore
SplineSet
190 -20 m 1,0,-1
 180 -20 l 1,1,-1
 180 1132 l 2,2,3
 180 1333 180 1333 304 1434 c 0,4,5
 422 1530 422 1530 595 1530 c 128,-1,6
 768 1530 768 1530 886 1434 c 0,7,8
 1010 1333 1010 1333 1010 1166 c 0,9,10
 1010 965 1010 965 826 863 c 1,11,12
 900 844 900 844 964 789 c 0,13,14
 1099 671 1099 671 1099 472 c 0,15,16
 1099 268 1099 268 965 125 c 0,17,18
 828 -20 828 -20 595 -20 c 2,19,-1
 515 -20 l 1,20,-1
 515 -10 l 1,21,-1
 586 140 l 1,22,23
 758 140 758 140 845 252 c 0,24,25
 919 347 919 347 919 470 c 0,26,27
 919 588 919 588 848 669 c 0,28,29
 766 761 766 761 619 761 c 2,30,-1
 514 761 l 1,31,-1
 514 771 l 1,32,-1
 585 921 l 1,33,34
 709 921 709 921 776 1001 c 0,35,36
 830 1064 830 1064 830 1158 c 0,37,38
 830 1254 830 1254 765 1312 c 0,39,40
 698 1372 698 1372 597 1372 c 0,41,42
 494 1372 494 1372 428 1313 c 0,43,44
 360 1252 360 1252 360 1147 c 2,45,-1
 360 61 l 1,46,-1
 190 -20 l 1,0,-1
EndSplineSet
Validated: 1
EndChar

StartChar: ae
Encoding: 230 230 217
Width: 1631
Flags: W
HStem: -20 160<319.601 641.359 915.351 1197.76> 589 151<336.664 625.938> 940 160<345 622.397> 960 160<914.666 1197.46>
VStem: 80 164<216.788 499.063> 704 180<202.182 363 652 858.872> 1291 180<734 867.189>
DStem2: 884 538 884 363 0.901978 0.431782<0 467.536>
LayerCount: 2
Fore
SplineSet
714 -20 m 1,0,-1
 704 -20 l 1,1,-1
 704 66 l 1,2,3
 611 -20 611 -20 466 -20 c 0,4,5
 279 -20 279 -20 179.5 93 c 128,-1,6
 80 206 80 206 80 360 c 0,7,8
 80 520 80 520 193 632 c 0,9,10
 302 740 302 740 466 740 c 0,11,12
 616 740 616 740 704 652 c 1,13,-1
 704 734 l 2,14,15
 704 833 704 833 635.5 886.5 c 128,-1,16
 567 940 567 940 469 940 c 2,17,-1
 274 940 l 1,18,-1
 274 950 l 1,19,-1
 345 1100 l 1,20,-1
 469 1100 l 2,21,22
 660 1100 660 1100 762 1003 c 1,23,24
 884 1120 884 1120 1056 1120 c 128,-1,25
 1228 1120 1228 1120 1349.5 1003 c 128,-1,26
 1471 886 1471 886 1471 712 c 2,27,-1
 1471 644 l 1,28,-1
 884 363 l 1,29,-1
 884 209 l 17,30,31
 957 140 957 140 1055 140 c 0,32,33
 1155 140 1155 140 1223 204 c 0,34,35
 1267 245 1267 245 1283 303 c 1,36,-1
 1461 388 l 1,37,-1
 1471 388 l 1,38,39
 1471 214 1471 214 1349.5 97 c 128,-1,40
 1228 -20 1228 -20 1056 -20 c 0,41,42
 932 -20 932 -20 838 39 c 1,43,-1
 714 -20 l 1,0,-1
481 127 m 128,-1,45
 579 127 579 127 648.5 190 c 128,-1,46
 718 253 718 253 718 358 c 128,-1,47
 718 463 718 463 648.5 526 c 128,-1,48
 579 589 579 589 481 589 c 128,-1,49
 383 589 383 589 313.5 526 c 128,-1,50
 244 463 244 463 244 358 c 128,-1,51
 244 253 244 253 313.5 190 c 128,-1,44
 383 127 383 127 481 127 c 128,-1,45
1291 734 m 1,52,53
 1291 833 1291 833 1222.5 896.5 c 128,-1,54
 1154 960 1154 960 1056 960 c 128,-1,55
 958 960 958 960 890 896 c 0,56,57
 872 879 872 879 858 861 c 1,58,59
 884 793 884 793 884 712 c 2,60,-1
 884 538 l 1,61,-1
 1291 734 l 1,52,53
EndSplineSet
Validated: 1
EndChar

StartChar: S
Encoding: 83 83 218
Width: 1140
Flags: W
HStem: -20 180<385.742 715.291> 1350 180<421.434 699.546>
VStem: 60 189<291.313 369.808> 153 195<1025.19 1277.13> 855 205<304.238 622.472>
LayerCount: 2
Fore
SplineSet
554 -20 m 128,-1,1
 343 -20 343 -20 196 121 c 0,2,3
 91 221 91 221 60 363 c 1,4,-1
 239 448 l 1,5,-1
 249 448 l 9,6,7
 249 319 249 319 337 240 c 0,8,9
 427 160 427 160 551 160 c 0,10,11
 685 160 685 160 771 251 c 0,12,13
 855 340 855 340 855 462 c 128,-1,14
 855 584 855 584 788 650 c 0,15,16
 711 726 711 726 562 743 c 0,17,18
 378 764 378 764 268 861 c 0,19,20
 153 961 153 961 153 1120 c 0,21,22
 153 1312 153 1312 278 1424 c 0,23,24
 396 1530 396 1530 563 1530 c 128,-1,25
 730 1530 730 1530 849 1417 c 0,26,27
 934 1337 934 1337 957 1237 c 1,28,-1
 781 1153 l 1,29,-1
 773 1153 l 9,30,31
 772 1240 772 1240 712.5 1295 c 128,-1,32
 653 1350 653 1350 566 1350 c 0,33,34
 469 1350 469 1350 412 1298 c 0,35,36
 348 1239 348 1239 348 1145 c 0,37,38
 348 971 348 971 598 942 c 0,39,40
 817 917 817 917 936 791 c 0,41,42
 1060 659 1060 659 1060 477 c 0,43,44
 1059 265 1059 265 912 122.5 c 128,-1,0
 765 -20 765 -20 554 -20 c 128,-1,1
EndSplineSet
Validated: 1
EndChar

StartChar: s
Encoding: 115 115 219
Width: 930
Flags: W
HStem: -20 155<312.53 593.127> 970 150<344.258 565.072>
VStem: 128 173<735.806 931.267> 670 180<212.333 456.558>
LayerCount: 2
Fore
SplineSet
449 -20 m 0,0,1
 281 -20 281 -20 168 85 c 0,2,3
 89 158 89 158 60 272 c 1,4,-1
 223 349 l 1,5,-1
 233 349 l 1,6,7
 233 247 233 247 309 182 c 0,8,9
 365 135 365 135 455 135 c 0,10,11
 551 135 551 135 610 194 c 0,12,13
 670 254 670 254 670 342 c 0,14,15
 670 499 670 499 456 523 c 0,16,17
 308 540 308 540 224 610 c 0,18,19
 128 691 128 691 128 812 c 0,20,21
 128 953 128 953 228 1038 c 0,22,23
 324 1120 324 1120 460 1120 c 0,24,25
 595 1120 595 1120 688 1036 c 0,26,27
 754 975 754 975 776 891 c 1,28,-1
 616 815 l 1,29,-1
 606 815 l 1,30,31
 606 886 606 886 565 928 c 128,-1,32
 524 970 524 970 457 970 c 0,33,34
 385 970 385 970 346 932 c 0,35,36
 301 889 301 889 301 827 c 0,37,38
 301 708 301 708 489 687 c 0,39,40
 670 667 670 667 754 581 c 0,41,42
 850 484 850 484 850 349 c 0,43,44
 850 192 850 192 733 87 c 0,45,46
 614 -20 614 -20 449 -20 c 0,0,1
EndSplineSet
Validated: 1
EndChar

StartChar: Aringacute
Encoding: 506 506 220
Width: 1370
Flags: W
HStem: -20 21G<180 232.222 990 1042.22> 665 180<380 990> 1350 180<519.38 851.44> 1570 98<524.776 662.24> 1836 98<525.247 662.469>
VStem: 180 200<70 665 845 1213.55> 410 97<1686.75 1818.1> 673 97<1678.01 1825.38> 990 200<70 665 845 1217.6>
DStem2: 752 1626 880 1570 0.427336 0.904093<4.06987 343.991>
LayerCount: 2
Fore
SplineSet
180 -20 m 1,0,-1
 180 1036 l 2,1,2
 180 1248 180 1248 327.5 1389 c 128,-1,3
 475 1530 475 1530 685.5 1530 c 128,-1,4
 896 1530 896 1530 1043 1389 c 128,-1,5
 1190 1248 1190 1248 1190 1036 c 2,6,-1
 1190 70 l 1,7,-1
 1000 -20 l 1,8,-1
 990 -20 l 1,9,-1
 990 665 l 1,10,-1
 380 665 l 1,11,-1
 380 70 l 1,12,-1
 190 -20 l 1,13,-1
 180 -20 l 1,0,-1
990 845 m 1,14,-1
 990 1062 l 2,15,16
 990 1189 990 1189 901 1269.5 c 128,-1,17
 812 1350 812 1350 685.5 1350 c 128,-1,18
 559 1350 559 1350 469.5 1269.5 c 128,-1,19
 380 1189 380 1189 380 1062 c 2,20,-1
 380 845 l 1,21,-1
 990 845 l 1,14,-1
591 1836 m 0,22,23
 556 1835 556 1835 532 1811 c 0,24,25
 507 1786 507 1786 507 1752 c 128,-1,26
 507 1718 507 1718 531 1694 c 128,-1,27
 555 1670 555 1670 590 1668 c 256,28,29
 626 1668 626 1668 648 1693 c 0,30,31
 672 1719 672 1719 673 1752 c 0,32,33
 672 1789 672 1789 648 1811 c 0,34,35
 622 1835 622 1835 591 1836 c 0,22,23
592 1934 m 0,36,37
 665 1934 665 1934 717 1881 c 0,38,39
 770 1826 770 1826 770 1753 c 0,40,41
 770 1677 770 1677 717 1624 c 0,42,43
 663 1570 663 1570 590 1570 c 256,44,45
 517 1570 517 1570 463 1624 c 0,46,47
 410 1677 410 1677 410 1753 c 0,48,49
 410 1827 410 1827 463 1881 c 0,50,51
 516 1934 516 1934 592 1934 c 0,36,37
909 1937 m 1,52,-1
 1029 1880 l 1,53,-1
 880 1570 l 1,54,-1
 870 1570 l 1,55,-1
 752 1626 l 1,56,-1
 899 1937 l 1,57,-1
 909 1937 l 1,52,-1
EndSplineSet
Validated: 1
EndChar

StartChar: aringacute
Encoding: 507 507 221
Width: 1064
Flags: W
HStem: -20 147<336.985 624.747> 589 151<336.664 625.938> 940 160<345 609.834> 1160 98<350.776 488.24> 1426 98<351.247 488.469>
VStem: 80 164<216.788 499.063> 236 97<1276.75 1408.1> 499 97<1268.01 1415.38> 704 180<61 66 202.182 513.818 652 847.189>
DStem2: 578 1216 706 1160 0.427336 0.904093<4.06987 343.991>
LayerCount: 2
Fore
SplineSet
481 127 m 128,-1,1
 579 127 579 127 648.5 190 c 128,-1,2
 718 253 718 253 718 358 c 128,-1,3
 718 463 718 463 648.5 526 c 128,-1,4
 579 589 579 589 481 589 c 128,-1,5
 383 589 383 589 313.5 526 c 128,-1,6
 244 463 244 463 244 358 c 128,-1,7
 244 253 244 253 313.5 190 c 128,-1,0
 383 127 383 127 481 127 c 128,-1,1
704 -20 m 1,8,-1
 704 66 l 1,9,10
 611 -20 611 -20 466 -20 c 0,11,12
 279 -20 279 -20 179.5 93 c 128,-1,13
 80 206 80 206 80 360 c 0,14,15
 80 520 80 520 193 632 c 0,16,17
 302 740 302 740 466 740 c 0,18,19
 616 740 616 740 704 652 c 1,20,-1
 704 714 l 2,21,22
 704 813 704 813 635.5 876.5 c 128,-1,23
 567 940 567 940 469 940 c 2,24,-1
 274 940 l 1,25,-1
 274 950 l 1,26,-1
 345 1100 l 1,27,-1
 469 1100 l 2,28,29
 641 1100 641 1100 762.5 983 c 128,-1,30
 884 866 884 866 884 692 c 2,31,-1
 884 61 l 17,32,-1
 714 -20 l 1,33,-1
 704 -20 l 1,8,-1
417 1426 m 0,34,35
 382 1425 382 1425 358 1401 c 0,36,37
 333 1376 333 1376 333 1342 c 128,-1,38
 333 1308 333 1308 357 1284 c 128,-1,39
 381 1260 381 1260 416 1258 c 256,40,41
 452 1258 452 1258 474 1283 c 0,42,43
 498 1309 498 1309 499 1342 c 0,44,45
 498 1379 498 1379 474 1401 c 0,46,47
 448 1425 448 1425 417 1426 c 0,34,35
418 1524 m 0,48,49
 491 1524 491 1524 543 1471 c 0,50,51
 596 1416 596 1416 596 1343 c 0,52,53
 596 1267 596 1267 543 1214 c 0,54,55
 489 1160 489 1160 416 1160 c 256,56,57
 343 1160 343 1160 289 1214 c 0,58,59
 236 1267 236 1267 236 1343 c 0,60,61
 236 1417 236 1417 289 1471 c 0,62,63
 342 1524 342 1524 418 1524 c 0,48,49
735 1527 m 1,64,-1
 855 1470 l 1,65,-1
 706 1160 l 1,66,-1
 696 1160 l 1,67,-1
 578 1216 l 1,68,-1
 725 1527 l 1,69,-1
 735 1527 l 1,64,-1
EndSplineSet
Validated: 1
EndChar

StartChar: AEacute
Encoding: 508 508 222
Width: 1688
Flags: W
HStem: -20 21G<180 232.222> 0 180<1028 1558> 665 180<380 828 1028 1508> 1330 180<1028 1508> 1350 180<520.1 826.106>
VStem: 180 200<70 665 845 1213.55> 828 200<180 665 845 1329.54>
DStem2: 822 1626 950 1570 0.427336 0.904093<4.06987 343.991>
LayerCount: 2
Fore
SplineSet
979 1937 m 1,0,-1
 1099 1880 l 1,1,-1
 950 1570 l 1,2,-1
 940 1570 l 1,3,-1
 822 1626 l 1,4,-1
 969 1937 l 1,5,-1
 979 1937 l 1,0,-1
1558 0 m 1,6,-1
 828 0 l 1,7,-1
 828 665 l 1,8,-1
 380 665 l 1,9,-1
 380 70 l 1,10,-1
 190 -20 l 1,11,-1
 180 -20 l 1,12,-1
 180 1036 l 2,13,14
 180 1248 180 1248 328 1389 c 128,-1,15
 476 1530 476 1530 686 1530 c 0,16,17
 765 1530 765 1530 835 1510 c 1,18,-1
 1588 1510 l 1,19,-1
 1588 1500 l 1,20,-1
 1508 1330 l 1,21,-1
 1028 1330 l 1,22,-1
 1028 845 l 1,23,-1
 1588 845 l 1,24,-1
 1588 835 l 1,25,-1
 1508 665 l 1,26,-1
 1028 665 l 1,27,-1
 1028 180 l 1,28,-1
 1638 180 l 1,29,-1
 1638 170 l 1,30,-1
 1558 0 l 1,6,-1
828 1319 m 1,31,32
 764 1350 764 1350 686 1350 c 0,33,34
 560 1350 560 1350 470 1269.5 c 128,-1,35
 380 1189 380 1189 380 1062 c 2,36,-1
 380 845 l 1,37,-1
 828 845 l 1,38,-1
 828 1319 l 1,31,32
EndSplineSet
Validated: 1
EndChar

